<?xml version="1.0" standalone="no"?>
<!DOCTYPE svg PUBLIC "-//W3C//DTD SVG 20010904//EN"
 "http://www.w3.org/TR/2001/REC-SVG-20010904/DTD/svg10.dtd">
<svg version="1.0" xmlns="http://www.w3.org/2000/svg"
 width="468.000000pt" height="400.000000pt" viewBox="0 0 468.000000 400.000000"
 preserveAspectRatio="xMidYMid meet">
<metadata>
Created by potrace 1.10, written by Peter Selinger 2001-2011
</metadata>
<g transform="translate(0.000000,400.000000) scale(0.100000,-0.100000)"
fill="#0b0b47" stroke="none">
<path d="M2080 3924 c-19 -3 -80 -14 -135 -25 -55 -12 -109 -22 -119 -25 -92
-18 -250 -94 -386 -185 -161 -108 -338 -295 -423 -449 l-28 -50 78 0 c139 0
145 3 208 86 230 306 557 464 961 464 332 0 634 -132 867 -380 106 -113 257
-346 241 -372 -3 -4 0 -8 5 -8 6 0 10 -3 10 -7 -1 -5 0 -10 1 -13 1 -3 3 -12
5 -20 2 -8 16 -60 30 -115 22 -80 28 -131 32 -251 6 -170 -5 -269 -43 -396
-13 -46 -26 -90 -28 -98 -17 -68 -100 -209 -178 -305 -75 -93 -218 -235 -236
-235 -4 0 -24 -15 -45 -33 -69 -61 -341 -188 -367 -172 -5 3 -11 1 -15 -4 -3
-5 -13 -10 -23 -10 -45 -2 -58 -3 -72 -9 -26 -10 -364 -10 -377 0 -7 6 -19 8
-28 5 -8 -4 -17 -2 -20 4 -4 5 -11 7 -16 3 -11 -7 -149 38 -235 77 -34 15
-107 57 -163 93 -56 36 -104 66 -106 66 -10 0 -149 139 -186 186 l-41 54 -114
0 c-63 0 -114 -2 -114 -5 0 -14 150 -206 204 -261 109 -110 243 -211 356 -266
98 -48 257 -108 283 -108 7 0 -61 36 -151 81 -181 89 -213 108 -324 192 -113
85 -288 278 -288 316 0 7 24 11 60 11 l60 0 108 -108 c118 -120 214 -189 354
-256 376 -179 740 -179 1098 -1 204 102 413 308 538 530 52 93 116 266 127
345 4 24 9 48 12 53 3 4 5 90 5 190 0 188 -8 249 -53 401 -103 345 -419 674
-764 795 -233 82 -484 92 -740 31 -92 -23 -139 -40 -250 -95 -134 -67 -263
-171 -371 -300 -41 -49 -83 -96 -92 -102 -24 -19 -122 -17 -122 2 0 21 62 106
144 198 166 186 381 321 631 395 99 29 122 34 260 52 173 22 452 -16 610 -85
130 -56 167 -74 221 -106 303 -184 534 -491 620 -826 34 -133 39 -181 38 -373
0 -176 -14 -272 -59 -407 -128 -381 -392 -670 -771 -843 -227 -104 -248 -124
-54 -53 276 102 524 291 673 514 100 151 212 406 221 503 2 18 6 39 11 45 19
32 29 296 15 416 -26 232 -101 427 -245 645 -144 218 -396 419 -647 519 -74
29 -95 35 -163 47 -16 3 -61 12 -100 21 -69 14 -327 25 -395 17z"/>
<path d="M2080 3650 c-25 -4 -53 -6 -62 -3 -10 2 -18 -1 -18 -7 0 -7 -8 -9
-20 -5 -12 4 -20 2 -20 -5 0 -6 -4 -9 -9 -6 -25 16 -351 -130 -351 -156 0 -5
-7 -8 -15 -8 -8 0 -15 -4 -15 -8 0 -5 -28 -30 -62 -55 -61 -45 -148 -128 -148
-142 0 -9 -62 -89 -72 -93 -5 -2 -8 -10 -8 -18 0 -8 -4 -14 -8 -14 -13 0 -99
-178 -128 -265 -14 -44 -27 -97 -28 -117 0 -21 -5 -38 -10 -38 -4 0 -5 -16 -2
-35 4 -19 3 -35 -1 -35 -9 0 -7 -235 2 -249 3 -6 3 -21 -1 -34 -3 -14 -1 -28
5 -31 5 -4 8 -12 5 -19 -8 -22 44 -184 87 -270 124 -249 286 -416 516 -531
180 -91 324 -126 518 -126 137 0 250 18 358 57 88 31 214 93 287 142 81 53
221 191 280 277 l51 74 -93 0 -93 0 -43 -54 c-76 -98 -203 -192 -360 -267 -46
-22 -87 -37 -93 -34 -5 4 -9 1 -9 -5 0 -7 -6 -10 -14 -7 -8 3 -17 3 -20 -1 -4
-3 -14 -7 -24 -8 -9 -1 -51 -7 -92 -14 -50 -8 -112 -10 -185 -5 -139 9 -148
10 -163 19 -7 4 -16 4 -22 1 -5 -3 -10 -1 -10 5 0 7 -7 10 -15 7 -8 -4 -17 -2
-20 4 -4 5 -10 7 -14 5 -15 -10 -190 83 -268 143 -207 156 -342 381 -384 635
-16 104 -7 289 20 393 23 91 98 273 112 273 5 0 9 4 9 10 0 5 10 22 23 37 35
44 181 197 191 202 5 2 17 12 27 22 11 11 24 19 29 19 6 0 10 5 10 10 0 6 7
10 15 10 8 0 15 5 15 12 0 6 3 9 6 6 3 -4 39 11 79 33 83 45 223 84 340 94
146 12 362 -24 482 -82 32 -15 61 -26 66 -25 4 1 7 -2 7 -8 0 -5 7 -10 15 -10
8 0 15 -5 15 -10 0 -6 4 -9 8 -8 24 8 240 -199 280 -267 4 -8 43 -14 109 -17
l103 -5 -27 49 c-14 26 -30 48 -35 48 -4 0 -8 7 -8 15 0 8 -4 15 -10 15 -5 0
-10 7 -10 15 0 8 -4 15 -10 15 -5 0 -10 5 -10 11 0 19 -101 129 -155 169 -29
21 -58 45 -66 52 -67 66 -369 211 -400 192 -5 -3 -9 0 -9 6 0 7 -7 9 -16 6 -9
-3 -21 -3 -27 1 -16 9 -43 12 -202 17 -77 3 -160 1 -185 -4z m425 -54 c186
-48 364 -150 503 -288 80 -80 168 -200 158 -217 -4 -5 -28 -9 -53 -7 -35 2
-51 9 -66 27 -133 166 -270 273 -423 330 -190 71 -442 87 -629 39 -192 -49
-323 -127 -471 -281 -194 -203 -277 -420 -273 -715 3 -233 63 -410 202 -592
126 -166 292 -288 472 -350 358 -122 762 -20 1042 265 76 77 84 83 123 83 l41
0 -15 -27 c-22 -42 -116 -143 -193 -205 -126 -104 -346 -203 -503 -228 -99
-15 -309 -12 -398 6 -181 37 -340 112 -488 229 -150 120 -284 313 -350 507
-59 174 -70 426 -25 610 102 425 461 759 896 834 123 21 325 12 450 -20z"/>
<path d="M2134 3398 c-70 -75 -95 -141 -59 -154 8 -4 13 -10 10 -14 -3 -4 2
-13 10 -20 8 -7 15 -16 15 -21 0 -8 8 -17 65 -82 14 -15 32 -41 40 -57 9 -17
20 -30 25 -31 6 0 53 0 105 0 162 0 153 -2 170 31 19 38 19 54 -1 18 l-15 -28
-122 0 -123 0 -75 108 c-42 59 -78 114 -82 123 -6 18 17 60 56 102 25 26 30
27 129 27 113 0 212 -18 284 -49 46 -21 46 -22 41 -59 l-6 -37 15 28 c8 15 12
32 9 37 -3 6 -1 10 4 10 6 0 11 5 11 11 0 13 -87 52 -99 44 -5 -3 -11 -1 -13
5 -2 6 -17 12 -33 15 -17 2 -54 9 -84 14 -29 6 -97 11 -150 11 -97 0 -97 0
-127 -32z"/>
<path d="M1830 3298 c0 -13 -48 -198 -106 -413 -58 -214 -107 -400 -108 -413
-1 -12 -5 -25 -9 -28 -3 -3 -3 -12 0 -20 3 -8 0 -14 -7 -14 -6 0 -9 -4 -6 -8
3 -5 -20 -100 -50 -211 -30 -112 -54 -208 -54 -212 0 -5 37 -9 83 -9 l82 0 28
103 c15 56 59 218 97 360 39 142 68 262 65 267 -3 5 0 10 6 12 6 2 11 20 11
41 0 25 5 37 14 37 8 0 14 -4 14 -10 0 -5 1 -13 1 -17 2 -12 35 -93 62 -153
58 -128 170 -396 170 -407 0 -7 3 -13 7 -13 4 0 7 -6 8 -12 0 -7 25 -70 54
-139 l54 -127 60 141 c32 78 58 145 57 149 -2 4 1 8 5 8 5 0 9 6 9 14 0 8 7
29 16 47 51 110 207 480 207 493 0 22 30 20 31 -1 0 -10 2 -29 4 -43 3 -21
126 -490 182 -692 l16 -58 84 0 c45 0 83 3 83 8 0 4 -30 115 -66 247 -36 132
-67 254 -69 271 -4 31 -21 92 -139 533 -36 134 -66 254 -66 267 0 35 -17 29
-25 -7 -4 -18 -52 -136 -107 -263 -106 -246 -137 -320 -213 -511 -75 -188 -63
-184 -119 -48 -26 65 -51 127 -56 138 -16 41 -94 226 -177 419 -47 109 -86
204 -87 210 -1 6 -8 28 -15 49 -14 41 -31 49 -31 15z m829 -145 c6 -21 24 -90
41 -153 17 -63 39 -151 49 -195 17 -71 80 -316 171 -664 16 -63 27 -118 24
-123 -3 -4 -23 -8 -44 -8 -45 0 -41 -7 -90 185 -33 129 -79 304 -112 425 -11
41 -21 80 -22 85 -13 55 -39 95 -62 95 -22 0 -52 -40 -78 -106 -15 -36 -35
-83 -45 -107 -11 -23 -45 -103 -76 -177 -32 -74 -72 -169 -90 -210 -18 -41
-42 -96 -53 -122 -12 -27 -23 -48 -26 -48 -3 0 -15 20 -26 45 -11 25 -29 65
-40 90 -11 25 -20 47 -20 50 0 2 -11 28 -25 57 -31 67 -137 319 -176 419 -44
114 -82 145 -114 95 -14 -20 -64 -201 -81 -286 -2 -14 -13 -54 -24 -90 -11
-36 -33 -119 -51 -185 -17 -66 -36 -138 -42 -160 -14 -53 -59 -79 -96 -56 -18
11 -12 39 66 326 30 110 63 236 73 280 23 94 83 323 110 415 10 36 24 84 30
108 18 70 14 75 128 -193 33 -77 71 -165 84 -195 24 -53 39 -90 43 -100 1 -3
6 -16 12 -30 6 -14 21 -50 33 -80 43 -112 82 -186 101 -198 33 -21 58 20 153
254 50 121 100 242 112 269 12 28 39 93 59 145 60 151 74 180 84 180 6 0 15
-17 20 -37z"/>
<path d="M1953 3229 c-29 -9 -31 -12 -23 -34 17 -46 120 -279 135 -308 8 -16
15 -34 15 -40 0 -6 7 -31 16 -54 21 -55 46 -59 44 -8 0 3 6 18 14 34 9 16 13
31 9 34 -3 3 2 13 10 22 9 8 19 40 23 71 6 52 5 57 -23 87 -17 18 -50 61 -73
97 -45 68 -85 111 -104 109 -6 0 -25 -5 -43 -10z m83 -63 c16 -18 45 -56 64
-84 19 -28 38 -51 42 -52 4 0 14 -13 23 -29 14 -28 13 -36 -8 -102 -12 -40
-27 -74 -32 -76 -9 -3 -156 348 -155 370 0 19 41 3 66 -27z"/>
<path d="M2741 3191 c-21 -21 -22 -21 19 -161 49 -171 91 -330 95 -364 3 -21
8 -43 12 -50 4 -6 8 -15 8 -20 0 -4 38 -28 84 -53 l84 -44 45 48 c24 26 50 65
58 87 15 42 19 96 7 96 -5 0 -9 12 -9 28 -3 58 -125 283 -191 348 -24 24 -43
48 -43 54 0 5 -7 10 -15 10 -8 0 -15 4 -15 9 0 12 -56 31 -91 31 -16 0 -38 -9
-48 -19z m102 -14 c97 -41 255 -313 273 -471 5 -46 3 -56 -27 -101 -19 -27
-43 -51 -53 -53 -22 -5 -91 28 -123 58 -13 11 -26 33 -29 48 -4 15 -12 47 -20
72 -94 322 -119 427 -104 445 15 19 41 19 83 2z"/>
<path d="M1559 3123 c-64 -70 -141 -201 -174 -292 -8 -23 -14 -42 -14 -44 0
-1 -4 -15 -10 -30 -6 -16 -9 -32 -6 -37 3 -5 0 -12 -6 -15 -5 -4 -8 -13 -5
-21 3 -7 -1 -47 -8 -89 -7 -42 -9 -78 -4 -81 4 -3 6 -10 3 -15 -11 -17 42 -9
58 9 10 10 17 21 17 25 0 4 20 28 45 54 62 66 89 114 115 208 12 44 36 107 52
140 16 33 31 68 33 77 2 9 13 26 24 37 35 35 27 66 -19 85 -56 22 -72 20 -101
-11z m90 -27 c9 -11 4 -28 -23 -77 -38 -69 -63 -135 -95 -244 -11 -39 -31 -84
-43 -101 -39 -53 -119 -137 -124 -131 -9 9 16 152 40 237 39 134 164 330 210
330 13 0 29 -6 35 -14z"/>
<path d="M1691 2968 c-55 -116 -86 -198 -74 -198 3 0 0 -7 -7 -15 -6 -8 -9
-19 -5 -25 3 -5 1 -10 -4 -10 -16 0 -13 -42 5 -68 18 -26 34 -29 34 -5 0 9 11
58 25 108 14 49 40 145 59 213 18 67 32 122 30 122 -2 0 -31 -55 -63 -122z"/>
<path d="M1866 2665 c-4 -14 -4 -30 -1 -35 4 -6 1 -10 -5 -10 -7 0 -9 -8 -5
-20 3 -11 2 -20 -3 -20 -11 0 -23 -40 -16 -52 3 -4 25 5 49 22 42 29 43 32 33
60 -5 17 -14 30 -20 30 -5 0 -7 4 -4 9 7 11 -3 41 -14 41 -4 0 -11 -11 -14
-25z"/>
<path d="M2579 2531 c-44 -34 -58 -53 -86 -118 -19 -43 -46 -102 -60 -132 -14
-30 -23 -64 -20 -77 2 -13 1 -24 -3 -24 -4 0 -7 -12 -7 -27 0 -16 -3 -35 -7
-44 -4 -9 -6 -34 -4 -54 3 -37 5 -39 108 -91 58 -29 115 -53 127 -54 16 0 143
59 161 75 2 2 -12 55 -94 357 -20 70 -37 140 -39 155 -2 16 -4 30 -5 33 -1 3
-2 13 -1 23 3 26 -12 21 -70 -22z m55 -57 c6 -21 33 -133 62 -249 39 -157 50
-213 41 -223 -17 -21 -83 -52 -110 -52 -34 0 -184 75 -196 99 -19 34 11 193
53 286 51 112 65 137 95 162 34 29 44 25 55 -23z"/>
<path d="M2201 2553 c0 -4 13 -34 27 -67 l27 -58 17 35 17 35 -32 24 c-44 33
-57 41 -56 31z"/>
<path d="M1885 2497 c-68 -43 -69 -43 -87 -117 -9 -36 -24 -90 -32 -120 -25
-87 -22 -100 37 -158 29 -29 56 -50 60 -46 4 4 9 -1 13 -10 6 -17 118 -95 168
-117 20 -9 32 -8 68 9 24 11 51 22 62 26 17 6 18 8 2 24 -9 10 -16 26 -16 35
0 9 -4 19 -10 22 -5 3 -10 15 -10 25 0 10 -6 25 -13 32 -8 7 -12 18 -10 24 2
7 -3 18 -11 27 -8 8 -12 17 -9 21 4 3 1 6 -5 6 -6 0 -9 6 -6 14 3 7 -2 20 -10
29 -8 8 -13 17 -10 20 3 2 -6 29 -20 58 -40 89 -72 162 -86 197 -7 17 -15 32
-19 31 -3 0 -28 -15 -56 -32z m65 -27 c0 -5 16 -44 36 -87 66 -141 154 -364
154 -389 0 -14 -56 -39 -82 -37 -34 3 -154 81 -222 146 -79 74 -77 60 -29 236
25 90 28 95 71 122 40 25 72 29 72 9z"/>
<path d="M2890 2521 c0 -5 11 -46 24 -92 13 -46 34 -120 45 -164 12 -44 24
-87 28 -95 8 -20 31 129 32 212 l1 68 -55 31 c-30 17 -55 35 -55 40 0 5 -4 9
-10 9 -5 0 -10 -4 -10 -9z m88 -127 l2 -39 -15 34 c-18 41 -19 54 -2 49 6 -3
13 -22 15 -44z"/>
<path d="M3136 2518 c-3 -7 -7 -56 -9 -108 -3 -52 -13 -120 -22 -150 -8 -30
-17 -62 -18 -70 -1 -8 -8 -21 -14 -28 -20 -20 -16 -54 4 -50 19 4 62 119 67
179 2 20 6 41 9 46 4 6 8 50 9 98 2 64 0 89 -9 92 -7 3 -15 -1 -17 -9z"/>
<path d="M1330 2401 c0 -22 4 -42 10 -46 5 -3 7 -12 4 -19 -7 -19 48 -182 88
-258 30 -58 33 -61 36 -35 2 16 -3 38 -11 50 -8 12 -19 39 -26 60 -7 20 -17
37 -21 37 -5 0 -7 7 -4 15 4 8 2 15 -3 15 -5 0 -9 8 -10 18 -4 47 -29 179 -36
190 -15 23 -27 12 -27 -27z"/>
<path d="M1705 2037 c-10 -39 -20 -78 -23 -84 -2 -7 0 -13 6 -13 8 0 15 21 23
68 2 16 20 42 29 42 5 0 20 -10 34 -22 46 -42 98 -83 165 -129 74 -51 101 -93
101 -156 0 -47 -10 -57 -73 -68 -32 -6 -50 -2 -115 30 -121 59 -262 164 -262
195 0 4 21 12 48 17 l47 10 -78 4 c-42 2 -77 2 -77 -1 0 -11 120 -135 130
-135 6 0 15 -7 20 -15 5 -8 13 -15 17 -15 7 -1 43 -22 123 -74 81 -53 123 -59
224 -30 l38 11 -6 51 c-13 106 -25 131 -83 170 -30 20 -58 37 -62 37 -5 0 -11
7 -15 15 -3 8 -10 15 -16 15 -6 0 -28 16 -48 35 -20 19 -41 35 -46 35 -6 0
-26 18 -46 40 l-36 40 -19 -73z"/>
<path d="M3016 2043 c9 -38 14 -42 14 -10 0 14 -5 29 -10 32 -7 4 -8 -3 -4
-22z"/>
<path d="M2733 1895 c-98 -48 -122 -69 -179 -157 -69 -104 -40 -131 78 -72
100 50 211 130 285 206 l62 63 -82 0 c-75 0 -89 -3 -164 -40z m147 -2 c-2 -43
-283 -233 -308 -209 -10 11 27 71 67 109 45 45 165 106 209 107 17 0 32 -3 32
-7z"/>
<path d="M2105 1628 c-69 -16 -73 -19 -46 -29 45 -17 225 -22 325 -9 97 13
112 21 77 40 -25 13 -301 11 -356 -2z"/>
<path d="M787 1553 c-2 -1 -59 -3 -127 -4 -202 -3 -440 -35 -440 -60 0 -15 21
-21 36 -9 37 32 130 43 401 49 173 4 276 10 283 17 7 7 -13 10 -70 10 -45 -1
-82 -2 -83 -3z"/>
<path d="M142 1464 c-21 -15 -30 -58 -14 -68 5 -3 6 8 4 24 -3 23 1 31 24 44
16 8 24 15 19 16 -6 0 -21 -7 -33 -16z"/>
<path d="M1187 1421 l-28 -18 25 -5 c15 -3 29 -1 32 3 3 5 0 9 -7 9 -8 0 -8 4
1 15 16 20 11 19 -23 -4z"/>
<path d="M450 1266 c0 -4 74 -22 231 -56 136 -29 460 -78 634 -94 251 -25 355
-32 355 -26 0 4 -66 12 -147 19 -275 22 -517 56 -776 107 -73 15 -145 28 -161
30 -16 2 -46 8 -65 14 -37 10 -71 13 -71 6z"/>
<path d="M1400 1175 c46 -18 47 -18 54 0 4 12 -4 15 -42 14 l-47 -1 35 -13z"/>
<path d="M1973 1112 c-35 -5 -27 -22 10 -23 31 -2 31 -2 -8 -9 -26 -5 17 -8
120 -10 204 -3 329 0 383 10 29 5 42 4 42 -4 0 -7 3 -7 8 -1 4 6 20 10 36 10
52 1 41 23 -11 23 -26 0 -163 2 -303 4 -140 1 -265 2 -277 0z"/>
<path d="M1861 1095 c-1 -6 -28 -9 -63 -9 l-63 2 65 -7 c72 -8 74 -8 67 11 -3
7 -6 9 -6 3z"/>
<path d="M456 957 c-19 -19 -56 -143 -70 -231 -1 -6 -5 -16 -9 -23 -4 -6 -4
-18 -1 -27 3 -9 1 -16 -6 -16 -6 0 -9 -4 -6 -9 3 -5 -8 -61 -25 -125 -16 -64
-27 -121 -24 -126 3 -6 32 -10 63 -10 l57 0 28 138 c16 75 33 159 39 187 l11
49 91 -179 c139 -274 152 -274 283 -10 48 96 90 175 93 175 3 0 16 -51 28
-112 13 -62 30 -143 38 -180 l16 -68 57 0 c32 0 60 2 63 5 2 3 -8 53 -24 112
-15 60 -30 122 -32 138 -3 17 -5 30 -6 30 -1 0 -3 11 -5 25 -2 14 -15 72 -29
130 -20 81 -31 110 -51 128 -59 51 -85 23 -201 -217 l-86 -176 -93 190 c-113
229 -142 259 -199 202z m154 -199 c84 -165 112 -208 135 -208 24 0 63 57 140
207 84 164 106 191 130 160 7 -11 34 -107 60 -215 25 -109 50 -209 55 -224 6
-19 5 -30 -6 -39 -23 -19 -39 4 -52 73 -44 224 -50 243 -83 253 -32 11 -52
-15 -139 -181 -88 -170 -102 -182 -144 -116 -13 21 -50 89 -81 151 -31 62 -68
125 -82 138 l-25 26 -24 -25 c-20 -19 -31 -51 -50 -144 -37 -178 -40 -186 -62
-182 -24 5 -19 40 35 263 48 199 63 238 91 233 11 -2 49 -66 102 -170z"/>
<path d="M1270 910 l0 -61 188 1 c103 0 189 1 192 0 3 0 -79 -85 -182 -188
-151 -151 -188 -193 -188 -215 0 -55 18 -58 325 -55 l278 3 -1 48 c0 26 -1 52
-1 58 -1 7 -62 10 -196 7 -107 -2 -195 -2 -195 0 0 2 83 87 185 189 153 153
185 190 185 214 0 56 -16 59 -317 59 l-273 0 0 -60z m535 -6 c0 -15 -57 -79
-167 -193 -93 -94 -168 -179 -168 -188 0 -9 7 -25 17 -35 14 -16 34 -18 184
-18 169 0 194 -5 169 -35 -10 -12 -39 -14 -148 -11 -76 2 -187 4 -248 5 -90 1
-113 4 -118 16 -4 11 52 74 174 197 99 101 180 188 180 195 0 7 -10 21 -22 33
-20 18 -35 20 -179 20 -95 0 -160 4 -164 10 -17 27 14 30 248 28 240 -3 242
-3 242 -24z"/>
<path d="M2268 950 c-23 -17 -94 -129 -163 -255 -15 -27 -44 -75 -64 -105 -79
-117 -113 -182 -104 -191 6 -6 39 -9 73 -7 l64 3 44 75 c25 41 80 133 123 203
l77 128 18 -40 c10 -23 22 -41 28 -41 5 0 6 -3 3 -7 -4 -3 3 -17 15 -30 l21
-23 -74 0 -74 0 -28 -45 c-45 -76 -45 -76 105 -74 l133 1 45 -73 46 -74 67 -3
c48 -2 67 1 67 9 0 13 -164 305 -210 376 -16 22 -31 51 -35 62 -3 12 -10 21
-14 21 -5 0 -15 15 -22 32 -29 71 -92 97 -141 58z m96 -51 c14 -17 37 -49 50
-72 229 -404 226 -397 189 -397 -26 0 -36 10 -66 62 -46 79 -64 88 -178 88
-90 0 -99 2 -99 19 0 23 19 31 73 31 42 0 77 21 77 47 0 36 -70 133 -95 133
-13 0 -64 -54 -83 -89 -8 -13 -23 -39 -33 -58 -43 -76 -149 -231 -161 -235 -7
-3 -21 -3 -30 0 -13 3 -15 9 -9 26 7 18 103 178 232 386 60 98 90 111 133 59z"/>
<path d="M2766 954 c-14 -13 -16 -54 -16 -290 l0 -275 58 3 57 3 0 183 c0 100
0 182 1 182 0 0 83 -83 185 -184 101 -101 194 -187 206 -191 15 -4 28 0 43 15
20 20 20 29 18 293 l-3 272 -58 3 -58 3 3 -185 c2 -103 1 -186 -1 -186 -2 0
-86 83 -187 185 -190 192 -211 207 -248 169z m228 -199 c116 -118 179 -175
194 -175 43 0 52 33 52 192 0 142 9 183 30 147 12 -18 13 -476 2 -483 -16 -9
-81 46 -226 193 -77 78 -149 144 -159 147 -12 4 -26 -1 -38 -12 -16 -17 -18
-37 -20 -165 -1 -143 -8 -184 -28 -164 -13 13 -22 455 -10 478 5 9 14 17 20
17 6 0 88 -79 183 -175z"/>
<path d="M3420 909 l0 -60 195 3 c107 2 195 0 195 -4 0 -3 -18 -22 -40 -41
-75 -64 -340 -346 -340 -362 0 -8 9 -24 20 -35 20 -20 31 -20 303 -18 l282 3
3 58 3 59 -200 -4 c-111 -1 -201 -3 -201 -2 0 0 86 86 190 190 200 199 210
214 168 254 -21 19 -34 20 -300 20 l-278 0 0 -61z m548 -1 c2 -11 -56 -77
-167 -189 -94 -95 -173 -181 -177 -191 -3 -12 1 -27 11 -38 16 -18 35 -20 189
-22 144 -3 171 -5 171 -18 0 -13 -36 -15 -251 -18 -222 -2 -252 0 -258 14 -4
11 45 68 169 194 110 112 175 187 175 199 0 41 -35 50 -194 52 -165 1 -183 4
-165 25 10 12 56 14 253 12 218 -3 241 -5 244 -20z"/>
<path d="M4135 957 c-3 -7 -4 -136 -3 -287 l3 -275 58 -3 57 -3 0 291 0 290
-55 0 c-36 0 -57 -5 -60 -13z m74 -41 c18 -21 13 -449 -5 -473 -27 -36 -34 7
-34 234 0 252 5 281 39 239z"/>
<path d="M829 347 c0 -1 -1 -37 -2 -80 l-2 -77 43 0 c31 0 42 4 42 15 0 8 -9
15 -20 15 -18 0 -20 7 -20 59 0 50 -3 59 -20 64 -11 3 -20 4 -21 4z"/>
<path d="M1040 271 l0 -81 40 0 c29 0 40 4 40 15 0 9 -9 15 -25 15 -23 0 -24
4 -27 62 -2 38 -8 63 -15 66 -10 3 -13 -17 -13 -77z"/>
<path d="M1250 268 l0 -78 45 0 c33 0 45 4 45 15 0 10 -10 15 -30 15 -24 0
-30 4 -30 21 0 18 4 20 30 14 26 -6 30 -4 30 15 0 19 -4 21 -30 15 -22 -5 -30
-3 -30 7 0 10 9 13 30 10 25 -4 30 -1 30 16 0 17 -8 21 -45 24 l-45 3 0 -77z"/>
<path d="M2230 339 c-89 -19 -92 -133 -4 -155 37 -9 100 21 85 40 -9 11 -18
12 -42 3 -37 -14 -63 -1 -67 36 -2 17 3 29 15 36 22 11 55 10 64 -3 4 -5 14
-6 23 -3 46 18 -19 58 -74 46z"/>
<path d="M2450 270 c0 -64 3 -80 15 -80 10 0 15 10 15 30 0 25 4 30 25 30 21
0 25 -5 25 -30 0 -23 4 -30 20 -30 18 0 20 7 20 74 0 65 -2 74 -20 79 -17 4
-20 0 -20 -29 0 -30 -3 -34 -25 -34 -22 0 -25 4 -25 35 0 24 -5 35 -15 35 -12
0 -15 -16 -15 -80z"/>
<path d="M2980 268 l0 -78 40 0 c29 0 40 4 40 15 0 8 -9 15 -20 15 -18 0 -20
7 -20 63 0 56 -2 63 -20 63 -18 0 -20 -7 -20 -78z"/>
<path d="M3443 343 l-43 -4 0 -75 0 -74 45 0 c33 0 45 4 45 15 0 10 -10 15
-31 15 -24 0 -30 4 -27 18 3 12 12 16 31 14 21 -2 27 1 27 17 0 17 -5 20 -30
15 -23 -5 -30 -3 -30 10 0 12 7 14 30 10 27 -6 30 -4 30 20 0 14 -1 25 -2 24
-2 -1 -22 -3 -45 -5z"/>
<path d="M3718 296 l-3 -51 -24 48 c-19 36 -30 47 -48 47 -22 0 -23 -3 -23
-75 0 -73 1 -75 24 -75 22 0 24 3 19 43 l-5 42 21 -25 c11 -14 23 -33 27 -42
3 -10 14 -18 25 -18 17 0 19 8 19 78 0 62 -3 79 -15 79 -10 0 -15 -15 -17 -51z"/>
<path d="M4233 343 l-43 -4 0 -75 0 -74 45 0 c33 0 45 4 45 15 0 9 -9 15 -25
15 -18 0 -25 5 -25 20 0 17 5 19 25 14 21 -5 25 -3 25 15 0 18 -4 20 -25 15
-18 -4 -25 -2 -25 9 0 10 8 13 25 9 22 -4 25 -1 25 22 0 14 -1 25 -2 24 -2 -1
-22 -3 -45 -5z"/>
<path d="M270 320 c-26 -26 -26 -80 -1 -111 23 -28 91 -33 116 -8 15 14 14 17
-1 30 -13 11 -18 11 -21 2 -3 -7 -18 -13 -34 -13 -22 0 -32 7 -41 26 -11 23
-10 29 12 46 14 11 30 16 39 12 47 -20 82 3 36 24 -39 18 -83 14 -105 -8z"/>
<path d="M550 320 c-25 -25 -26 -77 -1 -110 24 -30 91 -35 118 -7 27 27 23 94
-6 118 -31 25 -85 25 -111 -1z m81 -20 c23 -13 26 -68 4 -76 -24 -10 -62 4
-67 23 -6 28 2 51 20 56 9 3 18 5 20 6 2 0 12 -4 23 -9z"/>
<path d="M1496 319 c-32 -25 -35 -75 -7 -110 27 -33 95 -33 122 0 10 13 19 32
19 42 0 15 -7 19 -40 19 -29 0 -40 -4 -40 -15 0 -8 9 -15 21 -15 11 0 17 -4
14 -10 -11 -18 -64 -11 -75 9 -15 29 -13 39 14 56 18 12 29 13 51 5 38 -14 59
4 31 26 -28 20 -79 17 -110 -7z"/>
<path d="M1770 265 l0 -75 45 0 c33 0 45 4 45 15 0 10 -10 15 -30 15 -24 0
-30 4 -30 21 0 18 4 20 30 14 26 -6 30 -4 30 15 0 19 -4 21 -30 15 -22 -5 -30
-3 -30 7 0 10 9 13 30 10 25 -4 30 -1 30 17 0 18 -6 21 -45 21 l-45 0 0 -75z"/>
<path d="M2736 288 c-39 -88 -40 -98 -17 -98 12 0 21 7 21 15 0 10 10 15 30
15 18 0 33 -6 36 -15 5 -13 44 -23 44 -11 0 2 -13 35 -29 73 -37 87 -54 91
-85 21z m45 -41 c-15 -15 -24 -2 -16 24 7 20 8 21 17 5 7 -12 7 -21 -1 -29z"/>
<path d="M3190 265 l0 -75 40 0 c29 0 40 4 40 15 0 8 -9 15 -20 15 -18 0 -20
7 -20 60 0 53 -2 60 -20 60 -18 0 -20 -7 -20 -75z"/>
<path d="M3915 315 c-14 -13 -25 -35 -25 -49 0 -34 38 -75 77 -82 27 -5 37 -1
63 24 44 45 40 62 -15 62 -33 0 -45 -4 -45 -15 0 -9 10 -15 26 -15 14 0 23 -4
19 -10 -9 -14 -58 -13 -73 2 -36 36 11 93 57 69 12 -7 26 -9 31 -6 18 11 11
33 -12 39 -46 12 -79 6 -103 -19z"/>
</g>
</svg>
