<?xml version="1.0" standalone="no"?>
<!DOCTYPE svg PUBLIC "-//W3C//DTD SVG 20010904//EN"
 "http://www.w3.org/TR/2001/REC-SVG-20010904/DTD/svg10.dtd">
<svg version="1.0" xmlns="http://www.w3.org/2000/svg"
 width="640.000000pt" height="480.000000pt" viewBox="0 0 640.000000 480.000000"
 preserveAspectRatio="xMidYMid meet">
<metadata>
Created by potrace 1.10, written by Peter Selinger 2001-2011
</metadata>
<g transform="translate(0.000000,480.000000) scale(0.100000,-0.100000)"
fill="#0b0b47" stroke="none">
<path d="M1483 4024 c-18 -9 -40 -28 -50 -43 -17 -24 -18 -70 -18 -761 0 -705
1 -736 19 -763 39 -58 26 -57 621 -57 603 0 586 -2 625 63 19 31 20 56 20 755
0 798 3 762 -63 802 -31 19 -54 20 -577 20 -476 0 -549 -2 -577 -16z m1123
-29 c64 -26 62 -7 62 -773 1 -768 2 -750 -61 -777 -27 -11 -138 -14 -550 -14
-552 -1 -571 0 -596 47 -8 14 -11 244 -11 741 l0 719 25 31 c16 19 37 31 58
34 18 2 259 4 535 5 418 1 510 -1 538 -13z"/>
<path d="M2048 3743 c-10 -2 -38 -38 -63 -80 -50 -82 -97 -147 -148 -203 -103
-113 -129 -209 -87 -326 65 -185 269 -268 448 -182 95 45 171 156 179 261 7
88 -22 159 -101 249 -33 38 -86 108 -118 156 -71 110 -89 130 -110 125z m31
-57 c27 -63 88 -150 160 -229 70 -77 99 -129 107 -191 8 -54 -2 -127 -20 -151
-11 -16 -12 -10 -3 36 8 44 6 67 -7 111 -16 55 -39 90 -161 241 -33 40 -69 86
-80 102 l-20 28 -36 -54 c-20 -30 -64 -88 -99 -129 -113 -135 -136 -224 -84
-328 44 -89 137 -140 239 -129 196 20 289 242 135 322 -37 19 -65 19 -100 -1
-64 -39 -76 -116 -24 -167 l25 -25 -27 -53 -26 -53 -14 25 c-7 14 -45 49 -84
78 -83 60 -108 102 -90 155 24 73 117 111 170 68 23 -19 25 -19 54 -1 43 26
105 24 147 -4 47 -31 72 -87 72 -157 -2 -132 -107 -229 -250 -230 -158 0 -282
106 -300 259 -10 84 12 127 147 291 38 47 87 118 107 157 21 40 39 73 40 73 1
0 11 -20 22 -44z m47 -201 c32 -42 60 -80 62 -84 3 -9 -77 -23 -123 -22 -16 1
-58 2 -92 4 l-61 2 16 21 c10 12 40 52 67 88 28 36 55 65 61 66 6 0 37 -34 70
-75z m98 -221 c21 -21 26 -36 26 -73 0 -63 -51 -133 -108 -147 -31 -8 -38 1
-24 31 17 36 15 56 -8 85 -65 83 40 178 114 104z m-228 -216 c8 -12 -13 -10
-50 6 -29 12 -76 62 -76 81 0 7 118 -74 126 -87z"/>
<path d="M1950 3328 c-57 -30 -65 -96 -17 -141 118 -112 126 -118 137 -96 9
17 6 26 -19 55 -36 40 -42 98 -15 140 11 15 13 29 8 34 -17 17 -68 21 -94 8z
m45 -65 c-13 -75 -14 -77 -36 -57 -35 32 -19 94 23 94 16 0 18 -5 13 -37z"/>
<path d="M1706 2879 c-24 -19 -26 -27 -26 -89 0 -62 2 -70 26 -89 22 -17 40
-21 93 -20 36 1 73 6 82 12 13 8 29 7 57 -2 23 -8 52 -11 69 -7 15 4 37 7 48
6 11 -1 76 -3 145 -5 69 -1 130 -3 135 -5 28 -7 58 3 81 25 24 24 25 30 19 88
-5 48 -12 67 -31 85 -28 24 -92 30 -112 10 -9 -9 -18 -9 -37 0 -33 15 -157 16
-172 1 -8 -8 -21 -7 -47 2 -32 11 -38 11 -53 -3 -15 -15 -19 -16 -46 -1 -28
14 -33 14 -64 -2 -31 -17 -34 -17 -51 -2 -26 23 -84 21 -116 -4z m108 -25 c9
-8 16 -20 16 -25 0 -12 -27 -12 -35 1 -3 6 -17 10 -31 10 -35 0 -30 -26 8 -34
41 -8 58 -23 58 -51 0 -35 -27 -50 -82 -46 -21 1 -48 28 -48 47 0 18 15 18 34
-1 19 -19 66 -20 66 -1 0 8 -14 17 -32 21 -35 8 -68 31 -68 48 0 41 83 63 114
31z m135 -51 c12 -38 25 -74 28 -80 3 -8 -3 -13 -16 -13 -12 0 -21 6 -21 15 0
10 -11 15 -35 15 -24 0 -35 -5 -35 -15 0 -8 -9 -15 -19 -15 -18 0 -18 4 7 80
22 66 30 80 47 80 17 0 25 -13 44 -67z m108 15 l28 -53 3 53 c2 37 7 52 18 52
11 0 14 -17 14 -80 0 -73 -2 -80 -20 -80 -14 0 -28 16 -47 53 -28 55 -39 49
-31 -19 3 -28 1 -34 -14 -34 -16 0 -18 10 -18 80 0 73 2 80 20 80 14 0 28 -16
47 -52z m193 37 c7 -8 10 -26 8 -40 -3 -14 -1 -28 3 -31 13 -8 11 -48 -3 -62
-7 -7 -36 -12 -65 -12 l-53 0 0 80 0 80 49 0 c31 0 53 -5 61 -15z m142 -2 c24
-21 23 -33 -2 -33 -11 0 -20 5 -20 10 0 6 -11 10 -25 10 -36 0 -31 -26 7 -34
41 -8 58 -23 58 -51 0 -31 -23 -47 -67 -47 -34 0 -63 20 -63 44 0 11 28 10 35
-2 3 -5 19 -10 36 -10 40 0 38 27 -3 35 -37 8 -68 31 -68 51 0 40 77 59 112
27z"/>
<path d="M1896 2806 c-8 -32 -4 -39 17 -34 13 2 13 8 3 33 l-13 30 -7 -29z"/>
<path d="M2170 2825 c0 -10 10 -15 30 -15 20 0 30 5 30 15 0 10 -10 15 -30 15
-20 0 -30 -5 -30 -15z"/>
<path d="M2170 2760 c0 -18 5 -21 33 -18 20 2 32 8 32 18 0 10 -12 16 -32 18
-28 3 -33 0 -33 -18z"/>
</g>
</svg>
