<?xml version="1.0" standalone="no"?>
<!DOCTYPE svg PUBLIC "-//W3C//DTD SVG 20010904//EN"
 "http://www.w3.org/TR/2001/REC-SVG-20010904/DTD/svg10.dtd">
<svg version="1.0" xmlns="http://www.w3.org/2000/svg"
 width="311.000000pt" height="151.000000pt" viewBox="0 0 311.000000 151.000000"
 preserveAspectRatio="xMidYMid meet">
<metadata>
Created by potrace 1.10, written by Peter Selinger 2001-2011
</metadata>
<g transform="translate(0.000000,151.000000) scale(0.100000,-0.100000)"
fill="#0b0b47" stroke="none">
<path d="M2503 1463 c-44 -6 -42 -17 6 -31 37 -12 39 -14 45 -64 4 -28 12 -60
17 -71 14 -25 70 -48 124 -49 102 -2 158 69 118 148 -28 58 -70 74 -183 72
-52 0 -110 -3 -127 -5z m247 -30 c54 -31 69 -94 31 -134 -15 -16 -35 -23 -73
-26 -59 -4 -97 10 -114 45 -6 12 -14 19 -19 14 -4 -4 -3 2 2 12 7 12 7 27 2
38 -5 10 -13 27 -19 38 -5 11 -10 22 -10 25 0 3 39 5 86 5 62 0 94 -5 114 -17z"/>
<path d="M2310 1443 c-92 -11 -176 -26 -185 -33 -5 -4 -30 -11 -55 -15 -24 -4
-51 -11 -60 -15 -8 -4 -42 -18 -75 -30 -74 -28 -165 -81 -226 -132 l-45 -38
-699 -2 -699 -3 -18 -85 c-19 -90 -40 -186 -63 -285 -38 -164 -77 -343 -88
-403 -2 -10 164 -12 811 -12 446 0 812 -3 812 -7 0 -5 -17 -16 -38 -25 -30
-14 -132 -84 -266 -183 -10 -7 -17 -18 -15 -24 4 -11 131 50 239 114 30 18 95
53 144 79 l90 46 483 0 483 0 5 27 c9 44 76 315 86 348 14 47 46 192 63 285 9
47 19 95 22 108 l5 23 -502 -2 c-276 -1 -511 -4 -523 -7 -56 -15 59 -20 495
-21 l466 -1 7 -37 c3 -21 6 -51 5 -68 0 -26 -2 -27 -9 -10 -6 14 -7 6 -3 -22
3 -24 1 -49 -4 -55 -6 -7 -14 -39 -17 -70 -4 -32 -12 -60 -17 -63 -5 -4 -9
-21 -10 -38 -1 -31 -1 -31 -9 -7 -6 17 -7 9 -3 -24 4 -35 2 -47 -6 -42 -7 5
-11 -1 -11 -16 0 -13 -3 -41 -6 -63 -6 -33 -8 -37 -15 -20 -6 13 -6 7 -3 -18
4 -20 2 -43 -4 -50 -5 -6 -13 -36 -17 -65 -5 -40 -11 -52 -21 -48 -8 3 -14 1
-14 -3 0 -5 6 -12 13 -14 6 -3 -181 -5 -418 -5 -236 1 -412 4 -390 7 30 5 36
8 22 14 -22 9 -67 -1 -67 -15 0 -6 -26 -9 -67 -6 -36 2 -61 2 -54 0 8 -3 5 -9
-8 -19 -12 -8 -26 -11 -33 -7 -7 5 -8 3 -3 -6 6 -10 1 -12 -21 -7 -16 3 -23 4
-16 1 20 -9 14 -21 -15 -29 -15 -3 -31 -12 -36 -18 -5 -8 -7 -4 -4 8 2 11 9
19 16 17 7 -1 10 2 7 7 -4 5 0 11 6 14 10 3 10 7 -1 20 -12 16 -80 17 -810 18
-438 1 -789 3 -780 6 12 3 15 11 11 25 -5 21 -6 21 -13 2 -5 -11 -6 2 -3 31 7
56 14 72 23 57 3 -5 7 22 7 60 1 41 7 73 13 78 7 4 11 11 10 16 -1 5 -1 20 1
34 1 23 2 24 10 5 6 -13 7 -3 3 28 -4 31 -2 47 5 47 6 0 9 7 6 15 -4 8 -3 23
1 32 7 17 8 17 14 1 3 -9 7 14 7 53 1 39 6 75 13 82 6 6 11 24 11 40 0 15 4
26 8 23 5 -3 7 7 4 22 -4 31 23 92 31 70 4 -10 6 -10 6 0 1 9 139 12 659 11
361 0 651 -3 645 -6 -15 -5 -18 -33 -4 -33 5 0 12 8 16 18 7 23 55 48 56 29 0
-6 5 -1 10 12 6 14 15 21 24 18 10 -4 12 -1 8 10 -5 13 -2 15 12 9 11 -4 16
-4 12 0 -11 12 13 33 30 27 12 -5 14 -3 8 7 -6 10 -4 12 8 7 12 -4 14 -2 10
11 -6 15 -5 16 12 2 17 -14 18 -13 12 3 -5 14 0 19 23 24 17 3 30 10 30 15 0
5 10 6 23 2 12 -3 19 -3 15 1 -8 9 58 45 82 45 9 0 21 5 28 12 6 6 38 12 71
12 34 0 53 4 43 8 -16 6 -16 7 1 7 9 1 20 1 23 0 4 0 10 4 13 10 10 16 211 27
211 12 0 -7 5 -9 12 -5 7 5 9 2 6 -7 -3 -8 2 -21 10 -29 14 -13 15 -12 8 5 -4
13 -4 16 2 10 14 -15 23 -87 10 -79 -8 5 -9 1 -5 -10 4 -10 3 -15 -3 -11 -6 3
-10 2 -10 -3 0 -12 -70 -23 -157 -25 -35 -1 -63 -5 -63 -8 0 -4 -17 -9 -37
-12 -53 -7 -135 -26 -141 -32 -14 -14 13 -14 79 0 41 8 121 20 179 25 182 19
207 31 195 100 -8 45 -60 110 -91 111 -11 0 -26 2 -34 3 -8 1 -26 1 -40 -1z
m672 -318 c-2 -14 -6 -25 -8 -25 -2 0 -4 11 -4 25 0 14 4 25 9 25 4 0 6 -11 3
-25z m-1297 -804 c-6 -5 -21 -11 -35 -15 -21 -5 -20 -3 5 9 35 17 42 18 30 6z"/>
<path d="M1915 1141 c-60 -24 -123 -59 -131 -73 -5 -8 -2 -9 12 -3 10 4 28 9
39 10 11 1 19 8 17 14 -1 7 7 9 23 5 14 -3 33 -3 42 2 39 16 245 32 358 27 70
-3 86 -2 72 7 -13 8 -66 10 -175 7 -143 -5 -184 -9 -277 -31 -28 -7 -29 -7
-11 8 11 9 34 19 53 22 18 3 33 10 33 15 0 12 -7 10 -55 -10z"/>
<path d="M2373 1113 c4 -6 25 -13 48 -17 123 -20 223 -138 203 -241 -4 -23 -2
-35 5 -35 17 0 13 107 -5 146 -21 44 -85 101 -139 124 -55 24 -120 37 -112 23z"/>
<path d="M1590 1052 c0 -43 5 -56 28 -79 45 -45 88 -63 150 -64 l57 -1 -37
-15 c-21 -9 -38 -20 -38 -25 0 -5 -5 -6 -12 -2 -8 5 -9 2 -5 -10 5 -12 3 -15
-5 -10 -19 12 -170 5 -187 -9 -8 -7 -12 -7 -9 -2 4 6 -12 11 -39 13 -25 1 -53
7 -64 13 -14 7 -19 6 -19 -2 0 -8 -13 -10 -42 -6 -23 3 -36 2 -29 -2 10 -6 8
-10 -6 -16 -10 -5 -24 -7 -32 -6 -7 1 -10 -2 -6 -8 3 -7 0 -8 -9 -5 -9 3 -13
10 -10 15 3 5 -2 9 -10 9 -10 0 -13 6 -10 15 3 8 0 17 -8 20 -14 6 -15 34 -2
75 5 13 6 13 15 0 7 -11 8 -8 3 12 -5 24 -4 26 18 21 22 -5 22 -5 4 9 -18 14
-18 15 11 21 34 7 49 32 32 53 -8 9 -43 13 -132 12 -67 0 -134 2 -147 6 -19 6
-21 5 -10 -3 13 -9 13 -11 -2 -11 -10 0 -18 -5 -18 -11 0 -5 -4 -7 -10 -4 -5
3 -10 1 -10 -6 0 -8 -5 -7 -17 3 -10 8 -27 18 -38 22 -30 11 -185 8 -200 -4
-7 -6 -18 -32 -25 -58 -6 -26 -14 -54 -18 -62 -3 -8 -4 -20 -3 -26 1 -7 -8 -9
-21 -7 -21 4 -23 9 -19 51 3 37 6 43 12 27 6 -13 6 -6 2 20 -3 22 -9 45 -14
50 -11 15 -177 17 -203 3 -11 -7 -24 -11 -28 -10 -5 1 -7 -1 -6 -6 1 -4 -4
-17 -11 -30 -13 -24 -6 -82 10 -82 20 0 8 -18 -16 -24 -18 -5 -25 -13 -25 -31
0 -13 5 -27 10 -30 6 -4 8 -11 4 -16 -3 -5 -2 -8 3 -7 4 1 19 -4 32 -11 22
-12 67 -11 128 3 12 2 35 1 50 -4 15 -5 44 -12 64 -15 29 -4 39 -12 49 -35 7
-18 20 -30 30 -30 26 0 50 -11 50 -22 0 -6 -8 -4 -17 3 -17 13 -17 12 -4 -4
10 -12 11 -21 4 -25 -5 -4 -13 -25 -17 -47 -4 -23 -3 -35 2 -27 6 10 13 8 27
-8 21 -23 13 -25 -46 -11 -38 9 -68 -7 -82 -41 -9 -25 39 -79 52 -59 5 7 14
10 20 7 18 -11 241 -14 241 -3 0 5 8 6 18 2 30 -13 94 -16 108 -4 11 9 18 8
28 0 8 -7 17 -8 20 -3 4 7 157 9 176 2 3 -1 18 -1 33 0 15 1 34 -3 41 -9 8 -7
20 -6 39 4 31 16 36 16 59 4 9 -5 19 -5 22 -1 3 5 23 7 45 5 26 -2 45 2 55 13
18 17 21 59 6 69 -5 3 -1 20 10 41 11 19 21 47 21 62 l1 27 8 -30 c8 -30 8
-30 9 -3 0 14 7 29 14 31 7 3 5 6 -5 6 -25 1 -23 21 2 21 15 0 20 -7 20 -26 0
-14 -4 -23 -9 -19 -12 7 4 -52 18 -69 6 -7 8 -16 4 -20 -4 -4 0 -4 10 0 10 3
17 1 17 -5 0 -15 82 -14 114 1 17 7 27 22 31 42 8 47 3 77 -12 72 -7 -3 -13 2
-13 10 0 9 6 14 12 12 39 -13 70 87 33 107 -13 6 -19 18 -17 32 2 13 -5 27
-18 36 -20 14 -18 15 39 22 34 4 64 12 67 17 5 7 -3 9 -22 5 -107 -22 -137
-26 -199 -26 -59 -1 -76 3 -107 24 -44 30 -54 47 -57 100 -3 58 -11 56 -11 -3z
m-1016 -8 c24 -24 20 -51 -9 -56 -13 -3 -22 -1 -19 4 8 13 -15 38 -36 38 -9 0
-24 -8 -34 -19 -21 -23 -8 -35 47 -45 30 -6 41 -14 52 -38 l13 -31 6 41 c3 23
9 60 12 82 5 31 11 40 26 40 17 0 19 -5 12 -47 -4 -27 -11 -58 -15 -71 -5 -13
-9 -34 -9 -48 0 -20 5 -24 28 -24 35 0 72 26 72 50 0 10 4 21 9 24 5 3 12 31
16 61 l7 56 36 -3 c20 -1 40 -7 44 -12 5 -7 11 -7 20 2 19 19 75 15 99 -9 18
-18 20 -28 14 -78 -9 -70 -16 -84 -60 -111 -25 -16 -43 -20 -65 -15 -16 4 -30
11 -30 16 0 5 -4 9 -9 9 -6 0 -13 -21 -17 -46 -7 -46 -26 -66 -45 -47 -7 7 -7
17 -1 29 25 48 58 212 49 236 -3 7 -6 1 -6 -13 -1 -14 -4 -29 -8 -33 -5 -4
-13 -37 -18 -74 -10 -63 -12 -67 -37 -67 -14 0 -30 -3 -34 -7 -24 -25 -104 5
-104 39 0 20 -17 15 -23 -7 -6 -22 -44 -40 -86 -40 -45 0 -94 60 -58 73 6 2
21 -6 33 -18 23 -25 64 -24 85 1 18 22 4 41 -36 47 -40 6 -75 32 -75 53 0 7
12 26 26 43 21 26 33 31 69 31 26 0 50 -6 59 -16z m583 -6 c25 -24 31 -76 11
-96 -7 -7 -41 -12 -81 -12 l-68 0 3 -27 c2 -23 9 -29 33 -31 20 -2 38 4 52 18
22 20 53 27 53 13 -1 -21 -33 -46 -76 -59 -45 -13 -51 -13 -74 4 -19 14 -26
30 -28 62 -5 60 3 83 40 119 40 39 99 43 135 9z m160 9 c-2 -7 -13 -13 -26
-15 -33 -5 -65 -57 -76 -125 -9 -54 -13 -62 -34 -65 -21 -3 -23 -1 -16 20 4
12 14 62 23 109 l16 86 58 1 c42 1 58 -3 55 -11z m-227 -141 c0 -9 -40 -13
-46 -5 -3 5 6 9 20 9 14 0 26 -2 26 -4z m790 -25 c0 -11 -4 -23 -10 -26 -20
-12 -9 -25 20 -25 28 0 30 -2 24 -27 -10 -41 -14 -45 -40 -39 -19 5 -24 2 -24
-13 0 -11 -3 -27 -6 -36 -5 -11 0 -18 15 -22 48 -12 14 -72 -46 -80 -35 -5
-45 -2 -66 20 -24 23 -25 26 -12 63 24 67 21 72 -32 66 -27 -2 -49 -6 -51 -7
-1 -1 -10 -33 -20 -70 l-17 -67 -48 -2 c-26 -1 -50 0 -52 2 -2 3 2 17 10 33
17 32 18 39 7 39 -5 0 -15 -11 -22 -24 -16 -30 -76 -56 -131 -56 -46 0 -99 24
-99 45 0 21 -17 18 -30 -5 -19 -35 -110 -68 -110 -40 0 6 -4 10 -9 10 -9 0
-26 -63 -24 -88 1 -9 -14 -12 -56 -9 -63 3 -63 2 -35 100 9 29 21 86 27 127
l12 75 44 3 c24 2 48 -1 54 -7 6 -6 15 -7 21 -2 11 9 39 14 64 12 7 0 20 -18
29 -38 14 -35 16 -36 29 -18 29 39 67 55 132 55 54 0 67 -4 87 -25 14 -13 26
-30 26 -37 1 -7 4 3 8 22 l6 35 86 2 86 1 -5 -25 c-3 -18 -1 -24 7 -19 6 4 11
14 11 22 0 8 7 17 15 20 8 4 15 12 15 18 0 11 81 54 103 55 4 1 7 -8 7 -18z
m-872 -67 c15 -10 22 -24 20 -37 -3 -19 -8 -21 -38 -19 -19 2 -43 8 -54 14
-12 7 -22 6 -29 -1 -12 -12 -8 -13 60 -31 48 -12 61 -36 42 -81 -16 -40 -56
-59 -123 -59 -47 0 -57 4 -75 26 -12 15 -21 35 -21 46 0 17 5 19 48 12 26 -4
52 -14 58 -22 6 -8 16 -12 23 -8 19 12 -4 33 -44 40 -22 4 -42 17 -52 32 -15
24 -15 27 4 51 35 48 137 68 181 37z m-268 -245 c0 -5 -7 -9 -15 -9 -8 0 -15
-4 -15 -10 0 -17 19 -11 32 10 16 26 25 25 34 -2 6 -21 7 -21 21 -2 12 16 15
17 23 4 5 -8 10 -20 10 -26 0 -16 -28 -26 -35 -13 -4 5 -11 6 -17 3 -6 -4 -14
0 -19 7 -7 11 -9 10 -9 -5 0 -15 -3 -16 -14 -7 -11 9 -15 9 -19 -1 -4 -10 -10
-8 -21 5 -22 28 0 72 31 60 7 -3 13 -9 13 -14z m522 3 c9 -9 8 -12 -5 -12 -9
0 -17 -4 -17 -10 0 -12 3 -12 24 -4 9 3 16 12 16 20 0 19 10 18 26 -3 8 -11
13 -13 14 -5 0 16 30 16 30 0 0 -9 3 -9 12 0 18 18 55 15 68 -5 11 -17 11 -17
6 0 -6 20 14 23 32 5 9 -9 12 -8 12 6 0 15 3 16 15 6 12 -10 15 -10 15 1 0 10
3 10 11 2 6 -6 18 -9 25 -6 8 3 21 0 29 -7 10 -9 15 -9 15 -1 0 6 7 11 15 11
8 0 15 -8 15 -19 0 -10 -7 -24 -15 -31 -10 -9 -15 -9 -15 -1 0 6 -6 11 -14 11
-8 0 -17 6 -19 13 -3 7 -6 4 -6 -6 -1 -11 -6 -15 -12 -11 -6 3 -16 0 -21 -7
-7 -11 -11 -11 -15 -1 -2 6 -17 12 -33 12 -16 0 -30 -6 -33 -12 -3 -9 -10 -7
-21 7 -8 11 -16 15 -16 9 0 -9 -72 -12 -105 -3 -5 1 -23 -1 -39 -6 -32 -9 -47
5 -39 36 8 31 -12 22 -24 -11 -8 -21 -16 -28 -27 -24 -9 4 -16 1 -16 -6 0 -10
-3 -10 -15 0 -19 16 -19 27 -1 46 9 9 17 10 21 4 4 -7 14 -5 27 4 23 16 63 15
80 -2z m-398 -14 c-5 -7 -2 -8 6 -3 22 13 80 15 80 2 0 -7 5 -4 11 6 14 23 27
13 22 -17 -4 -18 -11 -24 -31 -24 -15 0 -30 5 -34 12 -6 8 -8 7 -8 -1 0 -7 -7
-13 -15 -13 -8 0 -15 6 -15 13 0 8 -4 7 -10 -3 -9 -13 -11 -13 -20 0 -11 17
-13 34 -4 43 10 10 25 -3 18 -15z"/>
<path d="M860 1017 c-15 -7 -31 -29 -39 -54 -13 -37 -13 -44 2 -67 22 -33 53
-33 89 1 36 35 39 94 6 117 -27 19 -26 19 -58 3z m52 -59 c-7 -52 -33 -73 -72
-58 -3 1 8 5 24 9 16 3 31 13 33 21 4 12 3 12 -5 2 -16 -23 -46 -10 -49 21 -2
25 0 27 14 15 15 -11 16 -11 10 6 -6 15 -4 17 13 13 11 -3 20 -1 20 5 0 5 4 7
8 4 5 -3 7 -20 4 -38z"/>
<path d="M1046 1006 c-15 -13 -26 -26 -26 -30 0 -9 118 -8 123 2 3 4 1 17 -4
30 -11 30 -60 30 -93 -2z"/>
<path d="M1401 766 c-7 -8 -15 -33 -18 -56 -5 -33 -3 -40 11 -40 9 0 16 2 16
4 0 2 7 19 15 38 11 29 12 39 2 53 -12 15 -14 15 -26 1z"/>
<path d="M1142 740 c-25 -40 -7 -85 23 -60 19 15 20 80 2 80 -7 0 -18 -9 -25
-20z"/>
<path d="M2007 964 c-3 -5 50 -8 116 -6 190 5 297 -23 297 -79 0 -68 -55 -114
-260 -221 -14 -7 -58 -32 -98 -55 -40 -24 -75 -43 -79 -43 -3 0 -46 -24 -94
-53 -82 -48 -104 -67 -79 -67 6 0 10 3 10 8 0 4 21 19 48 32 26 14 49 27 52
30 5 5 73 42 145 79 16 9 32 18 35 21 3 3 23 15 45 26 142 75 180 97 183 105
2 5 9 9 16 9 17 0 72 60 80 87 15 49 14 65 -4 83 -11 11 -26 20 -34 20 -8 0
-16 6 -18 12 -5 15 -352 26 -361 12z"/>
<path d="M2591 770 c-12 -22 -43 -56 -69 -75 -26 -19 -52 -39 -59 -44 -6 -6
-23 -13 -37 -17 -14 -3 -26 -10 -26 -15 0 -5 -5 -9 -10 -9 -19 0 -83 -30 -78
-36 7 -6 110 36 119 49 3 5 9 8 13 8 27 -5 166 115 166 143 0 8 5 16 12 18 8
3 8 7 2 11 -6 3 -21 -12 -33 -33z"/>
<path d="M2250 555 c-36 -20 -117 -55 -129 -55 -6 0 -11 -4 -11 -10 0 -6 -3
-9 -7 -8 -5 1 -21 -4 -36 -10 -16 -7 -33 -12 -38 -12 -5 0 -9 -4 -9 -10 0 -14
5 -13 68 16 31 15 80 37 109 50 28 13 57 24 62 24 6 0 11 5 11 11 0 5 4 8 9 4
5 -3 12 -1 16 5 9 14 -16 12 -45 -5z"/>
<path d="M1757 432 c-25 -16 -36 -32 -19 -32 10 1 56 40 51 45 -2 2 -17 -4
-32 -13z"/>
<path d="M618 423 c12 -2 32 -2 45 0 12 2 2 4 -23 4 -25 0 -35 -2 -22 -4z"/>
<path d="M903 423 c9 -2 25 -2 35 0 9 3 1 5 -18 5 -19 0 -27 -2 -17 -5z"/>
<path d="M1048 423 c12 -2 32 -2 45 0 12 2 2 4 -23 4 -25 0 -35 -2 -22 -4z"/>
<path d="M2313 423 c20 -2 54 -2 75 0 20 2 3 4 -38 4 -41 0 -58 -2 -37 -4z"/>
</g>
</svg>
