<?xml version="1.0" standalone="no"?>
<!DOCTYPE svg PUBLIC "-//W3C//DTD SVG 20010904//EN"
 "http://www.w3.org/TR/2001/REC-SVG-20010904/DTD/svg10.dtd">
<svg version="1.0" xmlns="http://www.w3.org/2000/svg"
 width="300.000000pt" height="225.000000pt" viewBox="0 0 300.000000 225.000000"
 preserveAspectRatio="xMidYMid meet">
<metadata>
Created by potrace 1.10, written by Peter Selinger 2001-2011
</metadata>
<g transform="translate(0.000000,225.000000) scale(0.100000,-0.100000)"
fill="#8e8eb4" stroke="none">
<path d="M982 1733 c-7 -3 -19 -18 -27 -33 -13 -24 -15 -105 -15 -510 l0 -482
29 -29 29 -29 372 0 372 0 29 29 29 29 0 492 0 491 -25 24 -24 25 -378 -1
c-208 0 -384 -3 -391 -6z m774 -34 c18 -20 19 -45 21 -488 2 -468 0 -512 -33
-525 -8 -3 -176 -6 -375 -6 -330 -2 -362 0 -380 16 -19 17 -19 34 -17 508 l3
490 24 12 c17 9 125 13 381 13 350 1 357 0 376 -20z"/>
<path d="M1332 1510 c-15 -23 -47 -68 -72 -101 -90 -120 -99 -135 -106 -176
-13 -89 38 -175 133 -224 29 -15 40 -26 34 -32 -7 -7 -16 -6 -26 3 -12 10 -21
10 -40 2 -17 -8 -32 -8 -54 0 -50 20 -78 0 -83 -58 -5 -66 16 -91 74 -88 24 1
51 5 61 9 9 4 25 4 35 -1 27 -12 56 -13 70 -1 10 8 16 7 21 -1 5 -8 26 -9 76
-3 43 5 77 5 88 -1 23 -12 74 7 82 31 8 27 -3 82 -21 102 -18 20 -69 26 -79 9
-4 -7 -13 -6 -27 1 -11 6 -33 9 -50 7 -16 -3 -31 -1 -34 4 -3 4 3 8 14 8 28 0
93 50 124 96 34 48 45 118 28 169 -7 20 -39 68 -71 107 -32 39 -73 94 -90 124
-17 30 -37 54 -45 54 -8 0 -27 -18 -42 -40z m158 -153 c37 -42 63 -83 70 -108
13 -46 5 -115 -14 -126 -6 -5 -19 -20 -29 -35 -25 -40 -87 -68 -147 -68 -94 0
-167 58 -190 151 -10 41 -9 53 7 90 11 24 39 67 63 94 45 52 101 136 113 169
6 15 13 7 37 -40 16 -33 57 -89 90 -127z m-110 -377 c0 -5 -7 -7 -15 -4 -8 4
-15 8 -15 10 0 2 7 4 15 4 8 0 15 -4 15 -10z m-174 -24 c10 -8 16 -18 12 -22
-4 -4 -15 -1 -23 6 -12 10 -19 10 -27 2 -11 -11 -8 -13 40 -28 7 -2 12 -14 10
-26 -4 -29 -58 -38 -78 -13 -15 19 -5 34 12 17 14 -14 48 -16 48 -3 0 5 -13
12 -30 16 -23 5 -30 12 -30 30 0 34 33 45 66 21z m95 -44 c15 -44 15 -52 3
-52 -8 0 -14 5 -14 10 0 6 -9 10 -20 10 -11 0 -20 -4 -20 -10 0 -5 -7 -10 -15
-10 -14 0 -13 8 20 98 9 25 28 6 46 -46z m69 18 c11 -22 22 -40 24 -40 2 0 2
19 -1 41 -5 31 -3 41 7 37 8 -2 13 -24 14 -56 1 -62 -14 -68 -44 -19 l-20 32
0 -32 c0 -53 -18 -38 -22 18 -1 28 -1 53 1 55 11 11 22 1 41 -36z m128 27 c6
-4 10 -26 9 -50 -2 -41 -3 -42 -39 -45 l-38 -3 0 54 c0 53 1 54 28 52 16 -1
33 -5 40 -8z m98 -4 c20 -21 1 -32 -22 -12 -10 8 -18 9 -25 2 -8 -8 0 -14 25
-23 42 -14 49 -46 14 -59 -25 -9 -60 0 -66 17 -2 7 9 9 32 5 46 -7 46 3 1 21
-38 16 -45 39 -17 55 25 15 38 13 58 -6z"/>
<path d="M1347 1440 c-10 -17 -35 -50 -56 -74 -62 -72 -83 -112 -83 -161 0
-92 66 -155 161 -155 61 0 109 22 135 62 42 66 6 158 -62 158 -58 0 -94 -78
-54 -117 17 -17 17 -21 3 -50 -14 -32 -31 -44 -31 -23 0 5 -22 26 -50 47 -27
20 -54 48 -60 63 -13 32 0 74 29 89 26 14 74 14 88 0 8 -8 17 -8 31 0 26 14
67 14 92 1 28 -15 43 -47 51 -105 l6 -50 2 48 c1 62 -16 99 -85 179 -31 34
-63 75 -72 91 -9 15 -19 27 -22 27 -3 0 -14 -14 -23 -30z m71 -71 l42 -47 -44
-11 c-27 -7 -54 -8 -68 -2 -13 4 -33 7 -46 5 -27 -5 -25 1 27 64 20 23 38 41
41 40 3 -2 25 -24 48 -49z m70 -148 c27 -33 2 -105 -45 -129 -31 -17 -33 -15
-27 18 4 19 1 38 -10 55 -21 32 -20 41 5 66 22 22 55 19 77 -10z m-173 -131
c8 -13 -25 0 -47 19 -30 25 -20 34 12 11 16 -11 32 -25 35 -30z"/>
<path d="M1292 1264 c-39 -27 -29 -66 30 -117 35 -30 55 -42 60 -34 4 6 -2 21
-12 32 -22 24 -27 89 -8 101 7 5 5 11 -7 21 -24 17 -36 17 -63 -3z m34 -30
c-3 -9 -6 -25 -6 -35 0 -11 -4 -17 -10 -14 -11 7 -14 48 -3 58 12 13 25 7 19
-9z"/>
<path d="M1260 915 c0 -8 5 -15 10 -15 6 0 10 7 10 15 0 8 -4 15 -10 15 -5 0
-10 -7 -10 -15z"/>
<path d="M1450 935 c0 -8 9 -15 20 -15 24 0 27 15 4 24 -22 9 -24 8 -24 -9z"/>
<path d="M1450 890 c0 -5 9 -10 20 -10 11 0 20 5 20 10 0 6 -9 10 -20 10 -11
0 -20 -4 -20 -10z"/>
</g>
</svg>
