<?xml version="1.0" standalone="no"?>
<!DOCTYPE svg PUBLIC "-//W3C//DTD SVG 20010904//EN"
 "http://www.w3.org/TR/2001/REC-SVG-20010904/DTD/svg10.dtd">
<svg version="1.0" xmlns="http://www.w3.org/2000/svg"
 width="204.000000pt" height="248.000000pt" viewBox="0 0 204.000000 248.000000"
 preserveAspectRatio="xMidYMid meet">
<metadata>
Created by potrace 1.10, written by Peter Selinger 2001-2011
</metadata>
<g transform="translate(0.000000,248.000000) scale(0.100000,-0.100000)"
fill="#0b0b47" stroke="none">
<path d="M235 2381 c-48 -22 -69 -44 -90 -94 -13 -32 -15 -161 -15 -1054 0
-966 1 -1020 19 -1058 22 -48 44 -69 94 -90 32 -13 136 -15 802 -15 666 0 770
2 802 15 50 21 72 42 94 90 18 38 19 92 19 1058 0 893 -2 1022 -15 1054 -21
50 -42 72 -90 94 -38 18 -84 19 -810 19 -726 0 -772 -1 -810 -19z m1622 -41
c67 -40 63 28 63 -1105 0 -1133 4 -1065 -63 -1105 -31 -19 -56 -20 -812 -20
-756 0 -781 1 -812 20 -67 40 -63 -28 -63 1105 0 1133 -4 1065 63 1105 31 19
56 20 812 20 756 0 781 -1 812 -20z"/>
<path d="M1018 1963 c-9 -10 -31 -45 -49 -78 -52 -94 -104 -169 -196 -279
-112 -133 -150 -192 -169 -267 -47 -182 64 -392 254 -482 64 -30 73 -32 187
-32 108 0 125 3 175 26 74 34 121 77 191 172 68 93 83 145 77 258 -6 107 -50
193 -159 314 -96 106 -153 184 -205 280 -42 79 -62 105 -79 105 -7 0 -19 -8
-27 -17z m42 -25 c0 -19 61 -132 111 -203 27 -38 87 -113 134 -165 52 -57 99
-121 118 -160 30 -60 32 -72 32 -165 0 -84 -4 -107 -23 -145 -12 -25 -20 -34
-16 -20 3 14 8 59 11 100 9 125 -33 214 -183 385 -44 50 -103 124 -133 165
-29 41 -57 79 -61 84 -5 4 -30 -25 -58 -65 -27 -41 -91 -123 -141 -184 -51
-60 -106 -139 -124 -174 -28 -57 -32 -76 -32 -146 0 -68 4 -89 29 -139 58
-118 159 -185 291 -194 210 -13 382 142 354 320 -20 124 -150 194 -253 135
-93 -53 -101 -186 -15 -256 19 -16 19 -17 -16 -84 -20 -37 -38 -67 -40 -67 -3
0 -11 13 -19 29 -9 16 -55 58 -104 94 -143 104 -177 169 -133 254 49 96 176
128 247 62 l22 -21 30 22 c34 25 109 37 167 26 44 -9 100 -56 127 -110 29 -57
36 -167 14 -234 -83 -250 -441 -312 -647 -111 -74 72 -112 160 -117 272 -4 82
-3 91 27 151 17 35 64 101 104 147 110 129 191 241 238 333 39 75 59 97 59 64z
m37 -245 c22 -32 72 -95 112 -141 39 -45 71 -84 71 -85 0 -2 -30 -3 -68 -3
-45 1 -81 -5 -108 -17 -40 -18 -43 -18 -75 -1 -68 36 -167 20 -227 -36 -13
-12 -26 -19 -29 -16 -8 8 34 69 111 159 37 43 85 105 108 138 23 32 47 59 53
59 6 0 29 -26 52 -57z m174 -366 c71 -47 88 -135 43 -225 -38 -76 -112 -131
-198 -147 l-38 -8 31 61 c17 34 31 70 31 80 0 11 -13 36 -30 57 -16 20 -32 52
-36 70 -8 42 19 101 55 120 40 22 103 19 142 -8z m-383 -262 c51 -38 100 -81
109 -94 l16 -24 -42 7 c-50 8 -106 34 -149 71 -40 33 -92 138 -92 184 l0 35
33 -54 c23 -40 57 -74 125 -125z"/>
<path d="M904 1396 c-67 -29 -101 -113 -70 -171 10 -18 41 -50 69 -71 28 -21
72 -60 99 -85 l47 -47 21 35 c11 20 20 36 18 37 -96 58 -125 161 -68 238 24
33 20 45 -26 64 -41 17 -50 17 -90 0z m80 -35 c3 -5 -1 -26 -10 -47 -16 -39
-15 -115 2 -158 7 -19 5 -18 -24 2 -98 71 -118 128 -63 183 29 29 83 40 95 20z"/>
<path d="M552 745 c-35 -30 -46 -63 -32 -101 8 -20 8 -36 -1 -56 -10 -25 -9
-33 8 -56 31 -42 81 -64 128 -56 22 4 57 6 78 5 25 -1 47 6 66 20 l29 22 35
-22 c46 -28 127 -29 152 -1 17 19 18 19 41 1 20 -16 43 -19 141 -20 86 -1 122
3 138 13 20 13 27 13 63 -6 100 -49 208 30 173 127 -6 17 -8 45 -5 61 5 24 0
36 -24 62 -27 28 -36 32 -84 32 -33 0 -62 -6 -76 -16 -21 -14 -26 -14 -57 0
-50 24 -222 20 -244 -6 -20 -23 -34 -23 -56 2 -27 30 -70 26 -96 -9 l-22 -29
-24 29 c-34 40 -73 39 -108 -3 -27 -32 -27 -32 -44 -12 -42 52 -129 61 -179
19z m142 -26 c34 -26 36 -64 4 -53 -13 3 -27 13 -31 20 -11 20 -66 18 -74 -2
-7 -20 10 -31 60 -40 75 -12 98 -72 45 -116 -45 -39 -158 -9 -158 43 0 26 36
25 50 -2 16 -28 85 -24 85 6 0 14 -12 23 -52 35 -62 18 -75 30 -75 66 0 59 91
86 146 43z m187 -46 c12 -38 30 -89 40 -115 l19 -48 -25 0 c-18 0 -28 7 -34
24 -8 19 -17 23 -51 23 -34 0 -43 -4 -51 -23 -5 -16 -17 -24 -32 -24 l-23 0
39 115 c38 110 41 115 67 115 26 0 30 -6 51 -67z m165 -11 c22 -39 43 -75 46
-78 4 -3 4 31 1 75 l-6 81 27 0 26 0 0 -115 0 -115 -27 0 c-24 0 -34 11 -76
83 l-48 82 6 -82 6 -83 -25 0 -26 0 0 116 0 115 27 -3 c22 -2 35 -17 69 -76z
m258 68 c29 -11 45 -54 29 -79 -7 -11 -6 -22 4 -38 18 -28 9 -79 -17 -93 -10
-6 -49 -10 -87 -10 l-68 0 2 112 c1 62 2 114 3 116 1 7 112 1 134 -8z m207 -3
c21 -16 41 -55 32 -60 -11 -6 -49 9 -58 22 -8 13 -45 14 -64 2 -22 -14 2 -37
47 -45 53 -8 82 -31 82 -66 0 -44 -34 -70 -91 -70 -51 0 -83 19 -94 58 -5 19
-3 22 19 22 16 0 26 -6 26 -14 0 -27 69 -36 89 -12 15 18 -1 31 -56 45 -51 14
-73 34 -73 67 0 38 33 64 83 64 23 0 49 -6 58 -13z"/>
<path d="M817 653 c-3 -16 -8 -35 -11 -43 -5 -11 1 -15 24 -15 26 0 30 3 25
20 -4 11 -9 30 -12 43 -7 30 -19 28 -26 -5z"/>
<path d="M1210 675 c0 -22 4 -25 39 -25 22 0 43 5 46 10 12 19 -16 40 -51 40
-30 0 -34 -3 -34 -25z"/>
<path d="M1210 580 c0 -30 1 -31 43 -28 37 3 42 6 42 28 0 22 -5 25 -42 28
-42 3 -43 2 -43 -28z"/>
</g>
</svg>
