<?xml version="1.0" standalone="no"?>
<!DOCTYPE svg PUBLIC "-//W3C//DTD SVG 20010904//EN"
 "http://www.w3.org/TR/2001/REC-SVG-20010904/DTD/svg10.dtd">
<svg version="1.0" xmlns="http://www.w3.org/2000/svg"
 width="225.000000pt" height="225.000000pt" viewBox="0 0 225.000000 225.000000"
 preserveAspectRatio="xMidYMid meet">
<metadata>
Created by potrace 1.10, written by Peter Selinger 2001-2011
</metadata>
<g transform="translate(0.000000,225.000000) scale(0.100000,-0.100000)"
fill="#00008b" stroke="none">
<path d="M495 2226 c-66 -30 -105 -101 -105 -195 l0 -59 -122 -4 c-103 -3
-130 -7 -165 -26 -46 -24 -87 -84 -96 -142 -7 -39 -7 -39 53 47 49 69 68 78
200 81 143 5 155 12 162 107 7 83 35 127 104 167 30 16 54 32 54 34 0 9 -57 2
-85 -10z"/>
<path d="M1684 2227 c10 -7 37 -24 60 -38 49 -30 76 -79 76 -137 0 -54 17 -97
43 -110 12 -6 72 -12 134 -14 131 -4 146 -11 206 -101 35 -52 37 -58 23 -79
-8 -13 -24 -61 -36 -107 -84 -333 -277 -591 -572 -764 -52 -31 -91 -64 -134
-116 -34 -41 -95 -101 -135 -135 -73 -62 -74 -63 -72 -109 3 -104 88 -226 216
-311 115 -76 120 -92 55 -162 l-42 -45 30 7 c48 11 73 32 85 73 18 59 -7 101
-84 142 -80 42 -157 122 -196 201 -33 68 -50 138 -33 138 25 0 137 97 193 167
48 61 76 85 136 120 155 88 302 222 401 366 114 166 202 402 204 548 1 85 -27
139 -92 177 -41 25 -56 27 -167 31 l-123 3 0 62 c-1 120 -72 208 -168 205 -25
0 -25 -1 -8 -12z"/>
<path d="M174 1890 c-38 -12 -82 -55 -90 -87 -16 -60 30 -249 91 -376 18 -40
57 -109 86 -152 57 -88 224 -262 278 -290 33 -16 34 -16 54 4 l21 21 -42 122
c-69 202 -114 416 -137 650 -10 102 -21 111 -136 115 -52 1 -108 -2 -125 -7z
m226 -81 c0 -83 40 -334 75 -474 27 -108 68 -230 110 -329 30 -69 -222 178
-294 288 -89 137 -145 274 -171 423 -12 65 -11 75 4 98 25 37 48 44 169 44
l107 1 0 -51z"/>
<path d="M1872 1893 c-36 -7 -51 -42 -62 -148 -25 -233 -56 -375 -127 -593
l-47 -142 21 -22 22 -21 48 31 c62 40 185 166 246 253 98 139 197 396 197 511
0 92 -55 131 -185 134 -49 1 -100 0 -113 -3z m240 -61 c18 -17 23 -33 22 -70
-2 -128 -102 -371 -211 -517 -59 -79 -167 -188 -233 -235 -30 -21 -33 -22 -25
-4 42 99 82 220 111 333 36 148 74 385 74 469 l0 54 120 -4 c109 -3 122 -5
142 -26z"/>
<path d="M1066 1809 c-15 -12 -38 -43 -51 -70 -19 -36 -33 -50 -53 -55 -81
-18 -102 -26 -126 -50 -43 -43 -37 -91 20 -155 l46 -52 -6 -77 c-7 -73 -6 -79
19 -108 37 -44 73 -49 139 -18 30 14 62 26 71 26 9 0 41 -12 71 -26 63 -30 99
-27 135 12 22 23 24 33 21 109 l-2 83 45 53 c59 69 62 112 11 157 -18 16 -51
32 -72 36 -68 12 -74 16 -105 72 -17 30 -41 61 -52 69 -30 21 -80 19 -111 -6z
m89 -15 c10 -4 30 -35 45 -69 16 -35 32 -65 37 -68 5 -3 38 -11 74 -16 68 -11
99 -34 99 -74 0 -11 -22 -44 -50 -73 -53 -56 -57 -69 -41 -153 10 -52 -1 -84
-35 -100 -19 -8 -33 -5 -76 17 -81 43 -81 43 -153 7 -55 -28 -71 -32 -90 -23
-33 15 -44 47 -34 99 16 84 12 97 -41 153 -80 84 -64 128 50 147 35 5 68 13
73 16 5 3 22 34 37 68 32 72 56 87 105 69z"/>
<path d="M11 1729 c-3 -110 96 -363 201 -516 98 -143 269 -298 419 -378 43
-23 71 -48 108 -96 54 -72 115 -129 174 -162 35 -20 37 -25 32 -57 -18 -108
-120 -239 -235 -301 -55 -30 -67 -42 -79 -76 -13 -36 -12 -43 5 -79 14 -28 29
-42 54 -50 19 -7 37 -10 39 -8 2 2 -13 22 -33 44 -58 64 -51 81 59 155 126 84
215 211 219 313 1 45 0 46 -73 108 -40 34 -101 94 -135 134 -46 56 -83 86
-154 129 -193 117 -346 278 -446 471 -47 91 -115 275 -116 313 0 6 -9 30 -19
52 l-19 40 -1 -36z"/>
</g>
</svg>
