<?xml version="1.0" standalone="no"?>
<!DOCTYPE svg PUBLIC "-//W3C//DTD SVG 20010904//EN"
 "http://www.w3.org/TR/2001/REC-SVG-20010904/DTD/svg10.dtd">
<svg version="1.0" xmlns="http://www.w3.org/2000/svg"
 width="858.000000pt" height="915.000000pt" viewBox="0 0 858.000000 915.000000"
 preserveAspectRatio="xMidYMid meet">
<metadata>
Created by potrace 1.10, written by Peter Selinger 2001-2011
</metadata>
<g transform="translate(0.000000,915.000000) scale(0.100000,-0.100000)"
fill="#111165" stroke="none">
<path d="M3744 9035 c-5 -12 -29 -15 -129 -15 -97 0 -125 -3 -135 -15 -9 -11
-34 -15 -100 -15 -69 0 -89 -3 -94 -15 -4 -11 -22 -15 -69 -15 -45 0 -68 -5
-77 -15 -8 -10 -30 -15 -65 -15 -35 0 -57 -5 -65 -15 -8 -9 -30 -15 -57 -15
-30 0 -45 -5 -49 -15 -4 -10 -20 -15 -50 -15 -30 0 -46 -5 -50 -15 -4 -10 -20
-15 -44 -15 -21 0 -43 -7 -50 -15 -7 -8 -27 -15 -45 -15 -20 0 -35 -6 -39 -15
-3 -10 -19 -15 -45 -15 -25 0 -41 -5 -45 -15 -3 -9 -19 -15 -41 -15 -22 0 -38
-6 -41 -15 -4 -8 -17 -15 -30 -15 -14 0 -27 -7 -30 -15 -4 -8 -18 -15 -34 -15
-15 0 -33 -7 -40 -15 -7 -8 -23 -15 -35 -15 -12 0 -28 -7 -35 -15 -7 -8 -23
-15 -37 -15 -13 0 -26 -7 -29 -15 -4 -8 -17 -15 -30 -15 -14 0 -27 -7 -30 -15
-4 -8 -17 -15 -30 -15 -14 0 -27 -7 -30 -15 -4 -8 -17 -15 -30 -15 -12 0 -27
-6 -31 -12 -9 -15 -37 -33 -70 -48 -13 -5 -23 -14 -23 -20 0 -5 -11 -10 -25
-10 -14 0 -28 -7 -31 -15 -4 -8 -16 -15 -28 -15 -12 0 -33 -13 -46 -30 -14
-16 -34 -29 -45 -30 -11 0 -33 -14 -49 -30 -16 -17 -37 -30 -46 -30 -9 0 -27
-13 -40 -30 -14 -16 -34 -29 -44 -30 -11 0 -39 -20 -63 -45 -23 -25 -51 -45
-60 -45 -10 0 -44 -27 -77 -60 -32 -33 -65 -60 -73 -60 -8 0 -71 -55 -139
-122 -68 -68 -140 -139 -161 -158 -83 -78 -273 -282 -273 -294 0 -7 -27 -40
-60 -74 -33 -33 -60 -67 -60 -75 0 -8 -20 -36 -45 -63 -25 -26 -45 -54 -45
-63 -1 -9 -14 -27 -30 -41 -17 -13 -30 -33 -30 -45 -1 -11 -14 -31 -30 -45
-17 -14 -30 -34 -30 -47 0 -13 -5 -23 -10 -23 -6 0 -15 -10 -20 -22 -15 -34
-33 -62 -47 -71 -7 -4 -13 -17 -13 -28 0 -11 -7 -22 -15 -25 -8 -4 -15 -15
-15 -26 0 -11 -10 -28 -22 -38 -15 -12 -19 -22 -13 -27 11 -9 495 0 632 12 76
7 83 10 104 39 12 17 28 35 36 39 7 4 13 16 13 25 0 9 20 39 45 67 25 27 45
56 45 63 0 7 20 32 45 55 25 24 45 50 45 58 0 8 38 54 85 103 47 48 85 92 85
97 0 16 169 187 235 237 33 26 87 72 119 104 32 32 64 58 71 58 6 0 33 20 59
45 27 25 53 45 60 45 6 0 25 12 42 28 37 32 61 49 92 62 12 5 22 14 22 20 0 5
10 10 23 10 13 0 33 13 47 30 14 16 35 29 48 30 12 0 25 7 28 15 4 8 17 15 30
15 14 0 27 7 30 15 4 8 14 15 24 15 10 0 23 7 30 15 7 8 20 15 30 15 10 0 23
7 30 15 7 8 23 15 37 15 13 0 26 7 29 15 4 8 17 15 30 15 14 0 27 7 30 15 4 8
17 15 30 15 14 0 27 7 30 15 4 9 19 15 39 15 18 0 38 7 45 15 7 8 25 15 40 15
16 0 30 7 34 15 3 10 19 15 45 15 25 0 41 5 45 15 3 10 19 15 45 15 25 0 41 5
45 15 4 11 20 15 56 15 36 0 52 4 56 15 5 11 21 15 60 15 39 0 56 4 60 15 5
11 22 15 64 15 39 0 62 5 70 15 9 11 33 15 90 15 57 0 81 4 90 15 10 12 37 15
124 15 83 0 117 4 132 15 29 22 789 22 818 0 15 -11 48 -15 122 -15 81 0 103
-3 108 -15 4 -11 23 -15 79 -15 54 0 78 -4 87 -15 8 -10 30 -15 65 -15 35 0
57 -5 65 -15 8 -9 29 -15 55 -15 29 0 45 -5 49 -15 4 -10 19 -15 49 -15 27 0
49 -6 57 -15 7 -8 27 -15 45 -15 18 0 38 -7 45 -15 7 -8 25 -15 40 -15 16 0
30 -7 34 -15 3 -9 19 -15 41 -15 22 0 38 -6 41 -15 4 -8 18 -15 34 -15 16 0
30 -7 34 -15 3 -8 17 -15 31 -15 14 0 28 -7 31 -15 4 -8 14 -15 24 -15 16 0
52 -15 100 -42 8 -4 25 -12 37 -17 11 -6 24 -15 28 -20 3 -6 14 -11 25 -11 10
0 20 -7 24 -15 3 -8 16 -15 30 -15 13 0 26 -7 30 -15 3 -8 16 -15 28 -15 13
-1 34 -14 48 -30 13 -17 32 -30 41 -30 10 0 33 -13 51 -30 18 -16 39 -30 48
-30 8 -1 26 -14 40 -30 13 -17 32 -30 41 -30 9 0 38 -20 65 -45 26 -25 53 -45
59 -45 7 0 39 -27 73 -60 33 -33 63 -60 67 -60 25 0 455 -420 455 -445 0 -7
28 -41 61 -76 34 -35 70 -79 79 -97 10 -18 29 -43 42 -55 13 -12 27 -29 31
-37 17 -34 33 -57 60 -85 15 -17 27 -37 27 -45 0 -9 8 -23 18 -32 30 -29 42
-47 42 -63 0 -9 7 -18 15 -21 8 -4 15 -17 15 -30 0 -12 6 -27 13 -31 14 -9 32
-37 47 -70 5 -13 14 -23 20 -23 5 0 10 -11 10 -25 0 -14 7 -28 15 -31 8 -4 15
-17 15 -30 0 -14 7 -27 15 -30 8 -4 15 -17 15 -30 0 -14 7 -27 15 -30 9 -4 15
-19 15 -35 0 -17 6 -32 15 -35 9 -4 15 -19 15 -40 0 -22 6 -37 15 -40 8 -4 15
-17 15 -30 0 -14 7 -27 15 -30 10 -4 15 -20 15 -45 0 -26 5 -42 15 -45 8 -4
15 -18 15 -34 0 -15 7 -33 15 -40 8 -7 15 -29 15 -50 0 -21 7 -43 15 -50 9 -7
15 -29 15 -52 0 -25 5 -41 15 -44 11 -5 15 -21 15 -60 0 -39 4 -56 15 -60 11
-5 15 -21 15 -60 0 -39 4 -56 15 -60 11 -5 15 -23 15 -79 0 -52 4 -76 15 -85
11 -9 15 -35 15 -104 0 -66 4 -98 15 -112 22 -29 22 -891 0 -920 -10 -13 -14
-46 -15 -110 0 -69 -4 -95 -15 -104 -10 -9 -15 -32 -15 -75 0 -43 -5 -66 -15
-75 -10 -8 -15 -31 -15 -70 0 -42 -4 -59 -15 -64 -10 -4 -15 -20 -15 -51 0
-31 -5 -47 -15 -51 -10 -4 -15 -20 -15 -49 0 -26 -6 -47 -15 -55 -8 -7 -15
-27 -15 -45 0 -18 -7 -38 -15 -45 -8 -7 -15 -25 -15 -40 0 -16 -7 -30 -15 -34
-10 -3 -15 -19 -15 -45 0 -25 -5 -41 -15 -45 -8 -3 -15 -16 -15 -30 0 -13 -7
-26 -15 -30 -8 -3 -15 -16 -15 -29 0 -14 -7 -30 -15 -37 -8 -7 -15 -26 -15
-42 0 -16 -6 -31 -15 -34 -8 -4 -15 -17 -15 -30 0 -14 -7 -27 -15 -30 -8 -4
-15 -15 -15 -26 0 -11 -13 -37 -30 -58 -16 -21 -30 -45 -30 -53 0 -8 -7 -17
-15 -21 -8 -3 -15 -16 -15 -30 0 -13 -7 -26 -15 -30 -8 -3 -15 -14 -15 -24 0
-10 -13 -32 -30 -48 -16 -16 -30 -38 -30 -49 -1 -11 -14 -31 -30 -45 -17 -13
-30 -33 -30 -45 -1 -11 -14 -31 -30 -45 -17 -13 -30 -30 -30 -37 0 -15 -9 -27
-56 -76 -17 -18 -39 -47 -50 -66 -10 -19 -43 -58 -71 -86 -29 -29 -68 -74 -86
-101 -54 -80 -375 -394 -402 -394 -5 0 -34 -26 -65 -58 -31 -32 -63 -62 -71
-66 -38 -19 -61 -35 -83 -59 -13 -14 -39 -34 -58 -44 -18 -10 -47 -30 -63 -46
-16 -15 -37 -27 -45 -27 -8 0 -28 -14 -44 -30 -16 -17 -38 -30 -48 -30 -10 0
-21 -7 -24 -15 -4 -8 -16 -15 -28 -15 -11 0 -34 -14 -50 -30 -16 -17 -38 -30
-48 -30 -10 0 -21 -7 -24 -15 -4 -8 -17 -15 -30 -15 -14 0 -27 -7 -30 -15 -4
-8 -17 -15 -30 -15 -14 0 -27 -7 -30 -15 -4 -8 -17 -15 -30 -15 -14 0 -27 -7
-30 -15 -4 -8 -17 -15 -30 -15 -14 0 -27 -7 -30 -15 -4 -8 -18 -15 -34 -15
-15 0 -33 -7 -40 -15 -7 -8 -26 -15 -42 -15 -16 0 -31 -6 -34 -15 -4 -9 -19
-15 -39 -15 -18 0 -38 -7 -45 -15 -7 -8 -25 -15 -40 -15 -15 0 -33 -7 -40 -15
-7 -8 -27 -15 -45 -15 -18 0 -38 -7 -45 -15 -8 -9 -30 -15 -57 -15 -30 0 -45
-5 -49 -15 -4 -10 -21 -15 -54 -15 -30 0 -52 -6 -60 -15 -8 -10 -31 -15 -72
-15 -43 0 -60 -4 -64 -15 -5 -12 -24 -15 -85 -15 -62 0 -81 -3 -85 -15 -5 -12
-29 -15 -123 -15 -86 -1 -121 -4 -135 -15 -29 -22 -632 -22 -660 0 -15 11 -48
15 -122 15 -78 0 -104 3 -114 15 -9 11 -33 15 -85 15 -56 0 -74 4 -79 15 -4
11 -21 15 -65 15 -43 0 -60 4 -65 15 -4 11 -21 15 -61 15 -42 0 -55 3 -55 15
0 11 -12 15 -44 15 -30 0 -46 5 -50 15 -3 10 -19 15 -45 15 -25 0 -41 5 -45
15 -3 10 -19 15 -45 15 -25 0 -41 5 -45 15 -3 9 -18 15 -34 15 -16 0 -35 7
-42 15 -7 8 -25 15 -40 15 -16 0 -30 7 -34 15 -3 8 -17 15 -31 15 -14 0 -28 7
-31 15 -4 9 -19 15 -40 15 -22 0 -37 6 -40 15 -4 8 -16 15 -29 15 -12 0 -28 7
-35 15 -7 8 -21 15 -32 15 -10 0 -21 7 -24 15 -4 8 -17 15 -30 15 -14 0 -27 7
-30 15 -4 8 -17 15 -30 15 -13 0 -24 4 -24 9 0 5 -21 20 -48 33 -26 13 -51 29
-55 35 -4 7 -19 13 -31 13 -13 0 -26 7 -30 15 -3 8 -14 15 -24 15 -10 0 -32
13 -48 30 -16 16 -38 30 -49 30 -11 1 -31 14 -45 30 -13 17 -33 30 -45 30 -11
1 -31 14 -45 30 -13 17 -32 30 -41 30 -9 0 -38 20 -65 45 -26 25 -53 45 -61
45 -7 0 -39 27 -71 60 -33 33 -64 60 -69 60 -16 0 -60 40 -192 172 -148 148
-171 174 -171 188 0 7 -27 39 -60 72 -33 34 -60 68 -60 77 0 9 -8 24 -18 32
-11 9 -25 25 -33 37 -15 20 -23 21 -372 24 -250 2 -358 0 -361 -8 -2 -6 11
-23 30 -39 21 -17 34 -38 34 -52 0 -13 6 -23 14 -23 8 0 16 -10 20 -23 3 -13
23 -43 46 -67 22 -25 40 -52 40 -60 0 -9 13 -27 30 -40 16 -14 29 -34 30 -44
0 -11 20 -38 44 -62 24 -23 47 -51 51 -63 3 -11 36 -51 72 -88 72 -75 133
-147 133 -157 0 -13 229 -236 242 -236 8 0 24 -14 36 -30 13 -17 26 -30 31
-30 5 0 43 -34 86 -75 42 -41 82 -75 89 -75 6 0 32 -19 56 -42 41 -40 63 -56
100 -75 8 -4 25 -20 38 -35 13 -15 32 -28 41 -28 10 0 31 -13 47 -30 16 -16
36 -30 45 -30 9 0 29 -13 45 -30 16 -16 39 -30 50 -30 12 0 24 -6 27 -13 2 -7
22 -21 43 -32 22 -11 43 -26 47 -32 4 -7 19 -13 31 -13 13 0 26 -7 30 -15 3
-8 14 -15 24 -15 11 0 25 -7 32 -15 7 -8 18 -15 25 -15 7 0 18 -7 25 -15 7 -8
23 -15 37 -15 13 0 26 -7 29 -15 4 -8 16 -15 29 -15 12 0 28 -7 35 -15 7 -8
18 -15 25 -15 7 0 18 -7 25 -15 7 -8 25 -15 40 -15 16 0 30 -7 34 -15 3 -8 16
-15 30 -15 13 0 26 -7 30 -15 3 -8 17 -15 31 -15 15 0 34 -7 42 -16 9 -9 26
-14 40 -11 16 3 27 -2 34 -14 6 -13 21 -19 43 -19 19 0 39 -7 46 -15 7 -8 23
-15 37 -15 13 0 31 -7 40 -16 11 -11 26 -14 54 -9 32 6 39 3 49 -15 9 -17 17
-20 39 -15 20 4 34 1 46 -11 12 -13 31 -17 66 -15 37 1 51 -2 55 -14 7 -16 49
-21 58 -6 4 5 -7 12 -23 16 -16 3 -35 13 -42 21 -6 8 -22 14 -34 14 -12 0 -33
8 -46 19 -13 10 -42 24 -64 31 -22 7 -77 30 -122 52 -45 21 -84 38 -87 38 -7
0 -179 79 -196 91 -8 5 -24 12 -35 16 -32 10 -401 203 -502 262 -53 31 -170
108 -308 201 -160 109 -560 463 -634 563 -21 29 -49 61 -61 72 -35 30 -166
193 -248 308 -126 176 -123 179 142 175 l188 -3 53 -57 c29 -31 85 -95 124
-142 174 -208 471 -470 711 -627 47 -30 98 -64 114 -75 16 -10 34 -22 40 -26
235 -155 760 -385 1106 -484 125 -36 159 -44 250 -63 265 -54 386 -65 715 -66
355 0 475 11 775 72 69 14 146 29 173 34 63 11 201 52 312 94 50 18 108 39
130 45 69 21 374 173 518 258 179 106 343 222 465 327 26 23 70 58 97 80 84
66 352 334 454 454 53 63 133 164 178 225 45 61 91 122 101 136 11 14 43 63
72 110 210 335 347 632 444 965 67 228 78 278 107 485 5 41 15 100 21 130 7
33 13 211 15 455 l4 400 -30 205 c-37 254 -87 481 -136 619 -8 24 -15 52 -15
62 0 10 -9 38 -19 61 -11 24 -29 70 -41 103 -12 33 -30 78 -41 101 -10 23 -19
45 -19 49 0 22 -103 230 -187 375 -132 230 -185 306 -425 609 -75 94 -379 394
-503 497 -66 54 -124 104 -130 110 -21 23 -259 182 -410 275 -99 60 -351 185
-438 215 -22 8 -45 19 -52 24 -13 11 -327 115 -377 125 -18 3 -53 12 -78 20
-44 13 -130 31 -260 55 -36 7 -105 16 -155 21 -49 4 -112 13 -140 18 -65 13
-696 13 -755 0 -25 -5 -92 -13 -150 -18 -293 -24 -646 -110 -1003 -245 -148
-56 -413 -192 -557 -284 -195 -127 -535 -396 -646 -513 -93 -99 -294 -339
-379 -454 -95 -128 -122 -151 -197 -166 -67 -13 -295 -19 -326 -8 -34 13 -28
50 25 137 115 190 315 436 537 660 186 189 286 276 507 441 229 172 540 358
719 430 41 16 107 46 147 66 95 47 328 129 483 170 69 18 138 38 153 44 53 21
272 63 437 85 266 36 317 40 564 43 169 3 281 0 325 -7 36 -7 118 -15 181 -20
117 -8 208 -21 315 -45 33 -8 80 -17 105 -21 25 -3 106 -22 180 -41 74 -19
149 -38 165 -43 63 -16 292 -98 425 -152 88 -36 399 -191 485 -241 33 -20 77
-45 98 -57 61 -33 282 -185 369 -253 75 -58 168 -138 355 -303 90 -79 314
-327 410 -453 23 -31 66 -86 95 -124 28 -37 61 -82 72 -101 44 -70 72 -113
115 -176 43 -62 232 -429 297 -575 86 -193 180 -491 224 -710 12 -55 27 -122
35 -149 8 -27 15 -68 15 -90 0 -23 5 -57 11 -76 21 -64 30 -222 36 -595 3
-233 1 -405 -6 -465 -36 -325 -78 -541 -151 -790 -18 -58 -35 -118 -40 -135
-4 -16 -24 -75 -45 -130 -21 -55 -44 -118 -52 -139 -26 -71 -152 -331 -243
-501 -211 -393 -593 -863 -929 -1143 -124 -104 -344 -269 -456 -343 -185 -123
-553 -321 -739 -398 -44 -18 -112 -48 -150 -66 -124 -57 -280 -127 -311 -139
-16 -6 -41 -19 -55 -29 -13 -9 -30 -17 -38 -17 -7 0 -10 -4 -7 -10 10 -16 55
-12 55 5 0 11 12 15 45 15 25 0 57 7 70 16 17 11 36 14 57 10 24 -5 34 -2 45
14 12 16 21 19 48 14 27 -5 35 -2 44 14 9 17 18 20 46 15 26 -4 36 -2 41 11 4
10 18 16 35 16 17 0 32 6 35 15 4 9 19 15 40 15 22 0 37 6 40 15 4 8 18 15 34
15 16 0 30 7 34 15 3 9 19 15 41 15 22 0 38 6 41 15 4 8 17 15 30 15 14 0 27
7 30 15 4 8 17 15 30 15 14 0 27 7 30 15 4 8 17 15 30 15 14 0 27 7 30 15 4 8
17 15 30 15 14 0 27 7 30 15 4 8 17 15 30 15 14 0 27 7 30 15 4 8 14 15 23 15
9 0 31 13 49 30 18 16 42 30 53 30 11 0 22 7 25 15 4 8 14 15 23 15 9 0 31 13
49 30 18 16 41 30 51 30 9 0 28 13 41 30 14 16 32 29 40 30 9 0 31 14 49 31
19 17 49 39 68 49 18 10 44 29 57 43 12 13 33 28 44 31 12 4 54 38 94 77 40
38 78 69 85 69 19 0 445 427 475 476 15 22 47 62 74 88 26 27 56 64 67 84 10
19 32 47 48 61 16 14 29 33 29 41 0 9 13 29 28 46 16 16 37 45 48 64 10 19 31
46 47 60 15 13 27 34 27 46 0 12 7 24 15 28 8 3 15 14 15 24 0 10 13 32 30 48
16 16 30 39 30 50 0 12 7 24 15 28 8 3 15 16 15 30 0 13 7 26 15 30 8 3 15 15
15 26 0 11 6 23 14 26 8 3 17 13 20 22 3 9 10 24 15 32 5 8 19 36 31 62 12 27
26 50 31 54 5 3 9 16 9 28 0 13 7 29 15 36 8 7 15 25 15 40 0 16 7 30 15 34 8
3 15 16 15 30 0 13 7 26 15 30 8 3 15 17 15 31 0 15 7 33 15 41 8 9 15 26 15
40 0 14 7 27 15 30 10 4 15 20 15 45 0 26 5 42 15 45 8 4 15 18 15 34 0 15 7
33 15 40 9 8 15 30 15 57 0 30 5 45 15 49 10 4 15 20 15 49 0 29 5 45 15 49
10 4 15 19 15 49 0 27 6 49 15 57 10 8 15 30 15 65 0 35 5 57 15 65 10 9 15
32 15 77 0 47 4 65 15 69 11 5 15 23 15 79 0 52 4 76 15 85 12 10 15 38 15
135 0 98 3 124 15 128 22 9 23 795 0 803 -12 5 -15 27 -15 119 0 88 -3 115
-15 125 -11 9 -15 34 -15 95 0 64 -3 84 -15 89 -11 4 -15 22 -15 71 0 49 -4
67 -15 71 -11 5 -15 21 -15 60 0 39 -4 56 -15 60 -11 4 -15 21 -15 59 0 38 -4
55 -15 59 -10 3 -15 19 -15 46 0 27 -5 43 -15 46 -10 4 -15 20 -15 45 0 26 -5
42 -15 45 -10 4 -15 20 -15 45 0 26 -5 42 -15 45 -9 4 -15 19 -15 39 0 18 -7
38 -15 45 -8 7 -15 25 -15 40 0 16 -7 30 -15 34 -9 3 -15 18 -15 40 0 21 -6
36 -15 40 -8 3 -15 17 -15 31 0 14 -7 28 -15 31 -8 4 -15 17 -15 30 0 14 -7
27 -15 30 -8 4 -15 17 -15 30 0 14 -7 27 -15 30 -8 4 -15 16 -15 29 0 12 -7
28 -15 35 -8 7 -15 21 -15 32 0 10 -7 21 -15 24 -8 4 -15 17 -15 30 0 14 -7
27 -15 30 -8 4 -15 17 -15 30 0 14 -7 27 -15 30 -8 4 -15 16 -15 28 0 11 -14
34 -30 50 -17 16 -30 38 -30 48 0 10 -7 21 -15 24 -8 4 -15 16 -15 28 0 12
-13 33 -30 46 -16 14 -29 34 -30 45 0 12 -13 32 -30 45 -16 14 -29 33 -30 44
0 10 -20 39 -45 64 -25 25 -45 52 -45 60 0 8 -20 35 -45 60 -25 25 -45 52 -45
60 0 8 -28 42 -62 77 -35 34 -81 86 -103 115 -60 78 -251 270 -329 330 -37 28
-94 78 -125 111 -32 32 -66 59 -75 59 -9 0 -36 20 -58 45 -23 25 -48 45 -57
45 -9 0 -38 20 -66 45 -27 25 -57 45 -65 45 -8 1 -26 14 -40 30 -13 17 -33 30
-45 30 -11 1 -31 14 -45 30 -13 17 -34 30 -46 30 -12 0 -24 7 -28 15 -3 8 -14
15 -24 15 -10 0 -32 13 -48 30 -16 16 -39 30 -50 30 -12 0 -24 7 -28 15 -3 8
-16 15 -30 15 -13 0 -26 7 -30 15 -3 8 -16 15 -30 15 -13 0 -26 7 -30 15 -3 8
-16 15 -30 15 -13 0 -26 7 -30 15 -3 8 -16 15 -30 15 -13 0 -26 7 -30 15 -3 8
-16 15 -30 15 -13 0 -26 7 -30 15 -3 8 -16 15 -30 15 -13 0 -26 7 -30 15 -3 8
-16 15 -29 15 -14 0 -30 7 -37 15 -7 8 -27 15 -45 15 -20 0 -35 6 -39 15 -3 9
-18 15 -34 15 -16 0 -35 7 -42 15 -7 8 -25 15 -40 15 -16 0 -30 7 -34 15 -3
10 -19 15 -45 15 -25 0 -41 5 -45 15 -3 10 -19 15 -45 15 -25 0 -41 5 -45 15
-4 11 -20 15 -55 15 -34 0 -51 4 -55 15 -4 10 -20 15 -51 15 -28 0 -52 6 -61
15 -10 10 -35 15 -70 15 -39 0 -56 4 -60 15 -5 11 -23 15 -75 15 -53 0 -71 4
-75 15 -5 11 -23 15 -79 15 -52 0 -76 4 -85 15 -10 12 -40 15 -150 15 -113 0
-139 3 -144 15 -5 13 -52 15 -341 15 -289 0 -336 -2 -341 -15z"/>
<path d="M3810 8203 c-14 -3 -29 -9 -34 -14 -6 -5 -58 -9 -117 -9 -82 0 -109
-3 -119 -15 -9 -11 -32 -15 -82 -15 -52 0 -70 -4 -74 -15 -5 -11 -22 -15 -65
-15 -46 0 -59 -3 -59 -15 0 -12 -13 -15 -55 -15 -40 0 -57 -4 -61 -15 -4 -10
-20 -15 -50 -15 -30 0 -46 -5 -50 -15 -4 -10 -20 -15 -45 -15 -28 0 -39 -4
-39 -15 0 -11 -11 -15 -40 -15 -27 0 -43 -5 -46 -15 -4 -10 -20 -15 -45 -15
-26 0 -42 -5 -45 -15 -4 -8 -17 -15 -30 -15 -14 0 -27 -7 -30 -15 -4 -9 -19
-15 -35 -15 -17 0 -32 -6 -35 -15 -4 -8 -16 -15 -29 -15 -12 0 -28 -7 -35 -15
-7 -8 -21 -15 -32 -15 -11 0 -37 -13 -58 -30 -21 -16 -45 -30 -54 -30 -9 0
-19 -7 -22 -15 -4 -8 -17 -15 -30 -15 -14 0 -27 -7 -30 -15 -4 -8 -17 -15 -30
-15 -12 0 -27 -6 -31 -12 -4 -7 -25 -22 -47 -33 -21 -11 -41 -25 -43 -32 -3
-7 -15 -13 -27 -13 -12 0 -33 -13 -46 -30 -14 -16 -33 -29 -44 -30 -10 0 -39
-20 -64 -45 -25 -25 -52 -45 -60 -45 -7 0 -41 -27 -74 -60 -34 -33 -67 -60
-75 -60 -19 0 -453 -434 -453 -454 0 -9 -20 -36 -45 -59 -25 -24 -45 -50 -45
-59 0 -8 -20 -35 -45 -60 -25 -25 -45 -54 -45 -64 -1 -11 -14 -30 -30 -44 -17
-13 -30 -33 -30 -45 -1 -11 -14 -31 -30 -45 -17 -13 -30 -34 -30 -46 0 -12 -7
-24 -15 -28 -8 -3 -15 -16 -15 -30 0 -13 -6 -26 -14 -29 -7 -3 -23 -26 -36
-51 -12 -25 -26 -48 -31 -52 -5 -3 -9 -13 -9 -24 0 -10 -7 -20 -15 -24 -8 -3
-15 -16 -15 -30 0 -13 -7 -26 -15 -30 -8 -3 -15 -16 -15 -30 0 -13 -7 -26 -15
-30 -10 -3 -15 -19 -15 -45 0 -25 -5 -41 -15 -45 -8 -3 -15 -16 -15 -30 0 -13
-7 -26 -15 -30 -9 -3 -15 -19 -15 -41 0 -22 -6 -38 -15 -41 -8 -4 -15 -18 -15
-34 0 -16 -7 -30 -15 -34 -10 -3 -15 -19 -15 -45 0 -25 -5 -41 -15 -45 -10 -3
-15 -19 -15 -46 0 -27 -5 -43 -15 -46 -11 -5 -15 -22 -15 -64 0 -42 -4 -59
-15 -64 -11 -4 -15 -21 -15 -65 0 -43 -4 -60 -15 -65 -11 -4 -15 -22 -15 -76
0 -54 -4 -72 -15 -76 -12 -5 -15 -27 -15 -109 0 -82 -3 -104 -15 -109 -23 -8
-23 -764 0 -772 12 -5 15 -27 15 -110 0 -86 3 -104 15 -104 12 0 15 -15 15
-74 0 -56 4 -75 15 -80 11 -4 15 -21 15 -59 0 -36 5 -59 15 -67 9 -8 15 -30
15 -57 0 -30 5 -45 15 -49 10 -4 15 -20 15 -45 0 -26 5 -42 15 -45 10 -4 15
-20 15 -50 0 -32 4 -44 15 -44 11 0 15 -11 15 -40 0 -27 5 -43 15 -46 8 -4 15
-18 15 -34 0 -15 7 -33 15 -40 8 -7 15 -26 15 -42 0 -16 6 -31 15 -34 8 -4 15
-17 15 -30 0 -14 7 -27 15 -30 8 -4 15 -17 15 -30 0 -14 7 -27 15 -30 8 -4 15
-18 15 -34 0 -16 7 -30 15 -34 8 -3 15 -15 15 -26 0 -11 7 -23 15 -26 8 -4 15
-17 15 -30 0 -14 7 -27 15 -30 8 -4 15 -17 15 -30 0 -12 6 -27 13 -31 14 -9
32 -37 47 -71 5 -12 14 -22 20 -22 5 0 10 -10 10 -23 0 -13 13 -33 30 -47 16
-14 29 -34 30 -45 0 -12 13 -32 30 -45 16 -14 29 -34 30 -44 0 -11 20 -39 45
-63 25 -23 45 -49 45 -57 0 -8 41 -56 90 -107 50 -51 90 -98 90 -105 0 -17
228 -244 245 -244 8 0 48 -34 88 -75 41 -41 82 -75 91 -75 9 0 36 -20 59 -45
24 -25 50 -45 59 -45 8 0 28 -13 44 -30 16 -16 35 -30 42 -30 14 0 33 -14 60
-42 9 -10 26 -18 37 -18 11 0 29 -13 40 -30 14 -21 28 -30 46 -30 15 0 29 -7
33 -15 3 -8 16 -15 30 -15 13 0 26 -7 30 -15 3 -8 14 -15 23 -15 10 0 33 -13
51 -30 18 -16 41 -30 50 -30 9 0 26 -7 36 -15 11 -8 27 -15 37 -15 9 0 22 -7
29 -15 7 -8 23 -15 35 -15 12 0 28 -7 35 -15 7 -8 23 -15 35 -15 13 0 25 -7
29 -15 3 -9 18 -15 34 -15 16 0 35 -7 42 -15 7 -8 25 -15 40 -15 15 0 33 -7
40 -15 7 -8 27 -15 45 -15 20 0 35 -6 39 -15 4 -10 19 -15 49 -15 27 0 49 -6
57 -15 7 -9 29 -15 52 -15 25 0 41 -5 44 -15 5 -11 22 -15 65 -15 46 0 59 -3
59 -15 0 -12 15 -15 74 -15 56 0 75 -4 80 -15 4 -12 24 -15 89 -15 63 0 88 -4
97 -15 19 -23 891 -23 910 0 9 11 34 15 97 15 65 0 85 3 89 15 5 11 24 15 80
15 59 0 74 3 74 15 0 12 13 15 60 15 47 0 60 3 60 15 0 11 12 15 45 15 31 0
47 5 51 15 4 10 20 15 44 15 21 0 43 7 50 15 8 9 29 15 55 15 29 0 45 5 49 15
3 8 17 15 31 15 14 0 28 7 31 15 4 10 20 15 50 15 32 0 44 4 44 15 0 9 9 15
25 15 14 0 28 7 31 15 4 8 17 15 30 15 14 0 27 7 30 15 4 8 18 15 34 15 16 0
30 7 34 15 3 8 15 15 26 15 11 0 23 7 26 15 4 8 17 15 30 15 14 0 27 7 30 15
4 8 17 15 30 15 14 0 27 7 30 15 4 8 16 15 28 15 12 0 29 8 38 18 29 30 47 42
63 42 9 0 18 7 21 15 4 8 16 15 28 15 12 0 33 13 46 30 15 17 35 29 50 30 16
0 32 10 45 29 11 17 26 32 35 36 34 13 66 36 102 75 25 26 46 40 63 40 14 0
25 4 25 9 0 10 146 157 234 234 36 33 66 63 66 68 0 4 41 48 90 97 50 49 90
96 90 104 0 8 27 42 60 76 33 35 60 70 60 78 0 8 14 27 30 41 17 13 30 33 30
43 0 10 14 30 30 43 17 14 30 34 30 43 0 10 17 33 38 51 22 19 33 35 27 40 -5
4 -144 7 -307 5 -239 -3 -298 -6 -298 -16 0 -8 -7 -19 -15 -26 -8 -7 -15 -19
-15 -26 0 -8 -19 -32 -42 -55 -38 -36 -54 -57 -74 -97 -11 -21 -254 -262 -265
-262 -5 0 -12 -7 -15 -15 -4 -8 -13 -15 -21 -15 -8 0 -42 -27 -75 -60 -34 -33
-68 -60 -77 -60 -10 0 -28 -13 -41 -30 -14 -16 -33 -29 -43 -30 -10 0 -31 -13
-47 -30 -16 -16 -38 -30 -48 -30 -10 0 -29 -13 -42 -30 -14 -16 -35 -29 -48
-30 -12 0 -25 -7 -28 -15 -4 -8 -17 -15 -30 -15 -14 0 -27 -7 -30 -15 -4 -8
-14 -15 -24 -15 -10 0 -23 -7 -30 -15 -7 -8 -18 -15 -25 -15 -7 0 -18 -7 -25
-15 -7 -8 -20 -15 -30 -15 -10 0 -20 -7 -24 -15 -3 -8 -16 -15 -29 -15 -14 0
-30 -7 -37 -15 -7 -8 -26 -15 -42 -15 -16 0 -31 -6 -34 -15 -4 -8 -17 -15 -30
-15 -14 0 -27 -7 -30 -15 -4 -9 -19 -15 -39 -15 -18 0 -38 -7 -45 -15 -7 -8
-23 -15 -37 -15 -13 0 -26 -7 -29 -15 -4 -10 -20 -15 -50 -15 -32 0 -44 -4
-44 -15 0 -11 -12 -15 -44 -15 -26 0 -48 -6 -56 -15 -8 -9 -30 -15 -60 -15
-30 0 -52 -6 -60 -15 -9 -10 -32 -15 -75 -15 -47 0 -64 -4 -69 -15 -4 -12 -25
-15 -99 -15 -66 0 -99 -4 -113 -15 -28 -21 -550 -21 -578 0 -15 11 -48 15
-122 15 -81 0 -103 3 -108 15 -4 11 -22 15 -75 15 -52 0 -70 4 -75 15 -4 11
-21 15 -60 15 -39 0 -55 4 -60 15 -4 11 -20 15 -56 15 -36 0 -52 4 -56 15 -4
10 -20 15 -44 15 -24 0 -40 5 -44 15 -3 9 -18 15 -36 15 -18 0 -33 6 -36 15
-4 10 -20 15 -44 15 -24 0 -40 5 -44 15 -3 8 -16 15 -30 15 -13 0 -26 7 -30
15 -3 8 -16 15 -30 15 -13 0 -26 7 -30 15 -3 8 -16 15 -30 15 -13 0 -26 7 -30
15 -3 8 -16 15 -30 15 -13 0 -26 7 -30 15 -3 8 -16 15 -30 15 -13 0 -26 7 -30
15 -3 8 -14 15 -24 15 -10 0 -32 13 -48 30 -16 16 -38 30 -49 30 -11 1 -31 14
-45 30 -13 17 -32 30 -43 30 -10 0 -30 13 -45 29 -15 15 -42 37 -61 47 -19 10
-60 45 -92 76 -32 32 -65 58 -72 58 -18 0 -327 307 -327 325 0 7 -28 41 -61
76 -34 35 -70 79 -79 97 -10 18 -29 43 -43 56 -13 12 -28 32 -31 43 -4 12 -17
32 -29 45 -12 14 -31 42 -42 63 -11 20 -25 40 -32 42 -7 3 -13 15 -13 27 0 12
-8 29 -17 38 -31 29 -43 47 -43 63 0 9 -7 18 -15 21 -8 4 -15 17 -15 30 0 14
-7 27 -15 30 -8 4 -15 17 -15 30 0 14 -7 27 -15 30 -8 4 -15 17 -15 30 0 14
-7 27 -15 30 -8 4 -15 18 -15 34 0 15 -7 33 -15 40 -8 7 -15 26 -15 42 0 16
-6 31 -15 34 -9 4 -15 19 -15 39 0 18 -7 38 -15 45 -8 7 -15 27 -15 45 0 18
-7 38 -15 45 -9 7 -15 29 -15 52 0 25 -5 41 -15 44 -11 5 -15 21 -15 60 0 39
-4 56 -15 60 -11 5 -15 22 -15 64 0 39 -5 62 -15 70 -11 9 -15 34 -15 99 0 61
-4 93 -15 107 -22 28 -22 700 0 728 11 14 15 46 15 105 1 60 5 92 15 105 9 12
15 42 15 77 0 38 5 61 15 69 9 8 15 30 15 60 0 33 5 50 15 54 11 4 15 20 15
56 0 36 4 52 15 56 10 4 15 20 15 45 0 26 5 42 15 45 9 4 15 19 15 39 0 18 7
38 15 45 8 7 15 25 15 40 0 16 7 30 15 34 8 3 15 16 15 30 0 13 7 26 15 30 8
3 15 16 15 29 0 14 7 30 15 37 8 7 15 17 15 23 0 15 40 96 51 103 5 3 9 13 9
24 0 10 7 20 15 24 8 3 15 16 15 30 0 13 7 26 15 30 8 3 15 14 15 24 0 10 13
32 30 48 16 16 30 37 30 47 0 10 12 29 26 42 14 13 34 39 44 58 10 18 36 52
58 75 23 23 44 51 47 62 8 25 459 477 484 485 11 3 46 30 78 60 32 30 65 55
73 55 9 0 27 13 40 30 14 16 34 29 45 30 12 0 32 13 45 30 14 16 35 29 48 30
12 0 25 7 28 15 4 8 16 15 28 15 11 0 34 14 50 30 16 17 39 30 52 30 12 0 24
7 28 15 3 8 16 15 30 15 13 0 26 7 30 15 3 8 16 15 29 15 14 0 30 7 37 15 7 8
26 15 42 15 16 0 31 6 34 15 4 8 17 15 30 15 14 0 27 7 30 15 4 10 20 15 45
15 26 0 42 5 45 15 4 10 20 15 50 15 32 0 44 4 44 15 0 11 12 15 50 15 36 0
52 4 56 15 5 11 22 15 64 15 42 0 59 4 64 15 4 11 23 15 80 15 56 0 75 4 80
15 4 12 29 15 134 15 97 0 133 4 148 15 27 21 367 21 404 0 18 -10 63 -14 166
-15 117 0 143 -3 148 -15 4 -12 23 -15 84 -15 59 0 83 -4 92 -15 8 -10 31 -15
72 -15 43 0 60 -4 64 -15 4 -11 21 -15 59 -15 38 0 55 -4 59 -15 4 -10 20 -15
51 -15 33 0 45 -4 45 -15 0 -11 12 -15 44 -15 30 0 46 -5 50 -15 3 -8 16 -15
30 -15 13 0 26 -7 30 -15 3 -9 19 -15 41 -15 22 0 38 -6 41 -15 4 -8 18 -15
34 -15 16 0 30 -7 34 -15 3 -8 16 -15 30 -15 13 0 26 -7 30 -15 3 -8 16 -15
30 -15 13 0 26 -7 30 -15 3 -8 17 -15 31 -15 14 0 25 -5 25 -10 0 -6 10 -15
23 -20 33 -15 61 -33 70 -47 4 -7 18 -13 30 -13 12 -1 33 -14 47 -30 13 -17
32 -30 42 -30 10 0 38 -20 61 -45 24 -25 51 -45 60 -45 9 0 50 -34 90 -75 41
-41 78 -75 83 -75 13 0 154 -136 154 -148 0 -5 41 -52 90 -103 50 -51 90 -100
90 -108 0 -8 20 -34 45 -58 25 -23 45 -51 45 -61 0 -9 13 -29 29 -43 16 -14
31 -36 33 -50 l3 -24 285 -5 c241 -5 291 -9 323 -23 35 -16 38 -16 44 -1 4 10
0 20 -10 26 -10 5 -17 20 -17 32 0 13 -7 26 -15 30 -8 3 -15 17 -15 31 0 16
-6 25 -15 25 -9 0 -15 9 -15 23 0 13 -13 33 -30 47 -16 14 -29 35 -30 47 0 11
-13 33 -30 46 -16 14 -30 34 -30 44 0 11 -13 30 -30 43 -16 14 -29 34 -30 45
0 11 -13 32 -28 45 -15 14 -31 32 -35 40 -20 40 -36 62 -73 98 -22 21 -44 45
-48 53 -21 42 -44 69 -186 210 -138 137 -228 219 -243 219 -3 0 -33 27 -67 60
-34 33 -70 60 -79 60 -9 1 -27 14 -41 30 -13 17 -33 30 -45 30 -11 1 -31 14
-45 30 -13 17 -33 30 -45 30 -11 1 -31 14 -45 30 -13 17 -33 30 -45 30 -11 1
-31 14 -45 30 -13 17 -34 30 -46 30 -12 0 -24 7 -28 15 -3 8 -16 15 -30 15
-13 0 -26 7 -30 15 -3 8 -16 15 -30 15 -13 0 -26 7 -30 15 -3 8 -15 15 -26 15
-11 0 -23 7 -26 15 -4 8 -18 15 -34 15 -16 0 -30 7 -34 15 -3 8 -16 15 -30 15
-13 0 -26 7 -30 15 -3 8 -16 15 -30 15 -13 0 -26 7 -30 15 -3 10 -19 15 -45
15 -25 0 -41 5 -45 15 -3 8 -16 15 -30 15 -13 0 -26 7 -30 15 -3 10 -19 15
-45 15 -25 0 -41 5 -45 15 -3 10 -19 15 -45 15 -25 0 -41 5 -45 15 -4 11 -20
15 -56 15 -36 0 -52 4 -56 15 -4 10 -20 15 -50 15 -32 0 -44 4 -44 15 0 12
-14 15 -64 15 -44 0 -67 5 -76 15 -9 11 -33 15 -85 15 -56 0 -74 4 -79 15 -4
12 -26 15 -104 15 -65 0 -102 4 -110 13 -10 9 -88 12 -315 13 -166 1 -313 0
-327 -3z m565 -103 c33 -6 103 -15 155 -20 52 -6 118 -14 145 -20 28 -5 110
-21 184 -35 73 -14 161 -35 195 -46 33 -11 90 -29 126 -40 36 -11 85 -29 110
-39 25 -10 77 -31 115 -46 62 -23 127 -55 368 -175 32 -16 77 -41 100 -56 23
-15 50 -32 59 -38 53 -32 253 -171 308 -216 261 -209 432 -384 608 -624 179
-242 221 -317 190 -336 -7 -5 -79 -9 -159 -9 l-146 0 -46 35 c-25 19 -61 58
-80 86 -46 68 -204 254 -297 348 -123 124 -243 224 -437 363 -80 58 -339 198
-463 250 -141 60 -371 135 -485 158 -33 6 -78 16 -100 21 -22 5 -71 14 -110
19 -38 5 -90 14 -115 19 -25 6 -81 10 -125 11 -44 0 -120 7 -170 15 -105 17
-289 19 -366 5 -30 -6 -112 -15 -184 -19 -493 -33 -1019 -242 -1470 -586 -96
-73 -495 -462 -573 -560 -249 -308 -442 -667 -545 -1015 -9 -30 -23 -77 -31
-105 -21 -72 -52 -209 -65 -290 -6 -38 -16 -104 -23 -145 -19 -122 -23 -686
-4 -795 8 -49 20 -128 27 -175 14 -101 44 -222 93 -385 105 -343 285 -681 526
-985 41 -52 88 -111 102 -131 80 -108 392 -395 567 -522 183 -133 452 -286
585 -333 22 -8 44 -18 50 -23 9 -8 78 -31 346 -116 42 -14 223 -51 300 -61 19
-3 85 -12 145 -21 61 -8 207 -17 325 -20 176 -5 231 -3 296 11 45 9 99 16 120
16 21 0 57 5 79 10 22 5 81 17 130 26 50 8 113 22 140 31 28 8 82 24 120 35
207 60 567 223 745 336 246 157 382 257 482 354 24 23 82 77 131 120 48 44
122 123 165 176 98 122 118 134 235 139 110 6 147 -5 147 -42 0 -52 -113 -195
-324 -413 -151 -154 -242 -234 -431 -379 -190 -146 -569 -353 -795 -435 -241
-87 -482 -158 -539 -158 -17 0 -42 -5 -58 -11 -15 -6 -75 -18 -133 -26 -135
-20 -891 -24 -985 -6 -83 17 -181 34 -240 42 -27 4 -70 13 -95 20 -25 7 -67
18 -95 26 -125 34 -388 127 -470 165 -122 57 -282 138 -327 167 -21 12 -41 23
-45 23 -15 0 -274 177 -397 270 -21 17 -85 71 -141 121 -56 50 -111 97 -122
104 -27 19 -275 301 -347 394 -31 41 -82 113 -112 160 -31 47 -65 98 -75 113
-10 15 -19 30 -19 32 0 3 -17 34 -38 68 -43 70 -128 244 -207 423 -26 59 -95
264 -133 400 -34 118 -51 203 -77 379 -23 154 -25 200 -25 505 0 185 5 372 10
416 28 210 58 359 96 484 8 25 14 55 14 67 0 28 59 199 112 324 23 52 54 127
70 165 88 211 285 521 497 784 116 143 383 393 591 553 181 139 626 380 825
447 50 16 115 39 145 50 83 32 324 93 435 111 33 5 76 14 95 20 19 5 64 10
100 10 36 0 83 5 105 11 22 6 60 15 85 19 67 11 456 11 525 0z"/>
<path d="M6290 2271 c0 -23 5 -30 27 -35 28 -8 47 8 38 32 -3 8 -5 18 -5 23 0
5 -13 9 -30 9 -26 0 -30 -3 -30 -29z"/>
<path d="M3910 7475 c-7 -8 -20 -15 -30 -15 -16 0 -50 -29 -50 -43 0 -3 -34
-40 -75 -82 -41 -41 -75 -84 -75 -94 0 -10 -7 -21 -15 -25 -8 -3 -15 -14 -15
-24 0 -10 -13 -32 -30 -48 -16 -16 -30 -34 -30 -40 0 -6 -7 -17 -15 -24 -10
-8 -15 -30 -15 -63 0 -47 3 -54 45 -94 25 -23 45 -52 45 -62 0 -11 6 -24 14
-28 8 -4 24 -27 36 -50 12 -24 26 -43 30 -43 5 0 10 -12 12 -27 2 -19 10 -29
28 -33 14 -3 26 -13 28 -22 2 -10 23 -37 48 -62 24 -25 44 -53 44 -62 0 -9 27
-43 60 -76 34 -33 60 -67 60 -78 0 -12 7 -23 15 -26 8 -4 15 -16 15 -29 0 -12
7 -28 15 -35 8 -7 15 -19 15 -27 0 -23 42 -63 66 -63 12 0 27 -7 34 -15 7 -8
20 -15 30 -15 10 0 23 7 30 15 10 13 50 15 238 15 202 0 226 -2 238 -17 12
-17 13 -17 19 0 6 14 21 17 102 17 114 0 133 8 133 56 0 22 6 37 15 40 9 4 15
19 15 35 0 19 5 29 15 29 11 0 15 11 15 40 0 27 5 43 15 46 8 4 15 17 15 30 0
14 7 27 15 30 8 4 15 18 15 34 0 16 7 30 15 34 9 3 15 19 15 41 0 22 6 38 15
41 9 4 15 19 15 35 0 19 5 29 15 29 11 0 15 11 15 39 0 25 5 41 15 45 9 3 15
18 15 36 0 20 5 30 15 30 10 0 15 10 15 30 0 20 5 30 15 30 11 0 15 11 15 40
0 27 5 43 15 46 8 4 15 17 15 30 0 14 7 27 15 30 8 4 15 16 15 29 0 12 9 34
20 48 11 14 20 33 20 42 0 20 -38 54 -61 55 -9 0 -22 7 -29 15 -7 8 -20 15
-30 15 -10 0 -23 7 -30 15 -7 8 -23 15 -35 15 -13 0 -25 7 -29 15 -4 11 -21
15 -60 15 -39 0 -55 4 -60 15 -3 8 -16 15 -29 15 -14 0 -30 7 -37 15 -8 9 -30
15 -60 15 -31 0 -52 5 -61 16 -10 12 -25 15 -56 11 -36 -4 -45 -1 -54 15 -9
17 -20 19 -91 17 -67 -3 -81 -1 -89 14 -9 15 -37 17 -318 17 -262 0 -310 -2
-321 -15z m620 -84 c19 -6 54 -11 77 -11 43 0 267 -53 371 -88 31 -11 77 -25
102 -33 126 -37 180 -74 180 -125 0 -45 -49 -191 -99 -296 -22 -48 -41 -92
-41 -98 0 -5 -9 -29 -20 -53 -10 -23 -28 -67 -40 -97 -11 -30 -34 -82 -49
-115 -16 -33 -37 -79 -46 -102 -10 -23 -31 -54 -47 -70 l-29 -28 -353 0 c-291
0 -356 3 -370 14 -19 16 -86 114 -86 125 0 10 -160 224 -212 284 -24 27 -51
62 -61 78 -29 50 -59 97 -99 157 -21 32 -38 70 -38 83 0 67 157 284 254 352
37 26 46 27 190 32 218 7 376 4 416 -9z"/>
<path d="M2867 7134 c-4 -4 -7 -20 -7 -35 0 -15 -4 -31 -10 -34 -5 -3 -10 -31
-10 -61 0 -39 -4 -56 -15 -60 -11 -4 -15 -21 -15 -59 0 -38 -4 -55 -15 -59
-11 -4 -15 -21 -15 -61 0 -42 -3 -55 -15 -55 -12 0 -15 -13 -15 -55 0 -40 -4
-57 -15 -61 -10 -4 -15 -21 -15 -54 0 -33 -5 -50 -15 -54 -11 -4 -15 -20 -15
-54 0 -32 -5 -54 -15 -62 -10 -8 -15 -30 -15 -62 0 -34 -4 -50 -15 -54 -11 -4
-15 -21 -15 -59 0 -38 -4 -55 -15 -59 -11 -4 -15 -21 -15 -60 0 -39 -4 -55
-15 -60 -11 -4 -15 -20 -15 -54 0 -32 -5 -54 -15 -62 -9 -7 -15 -29 -15 -52 0
-22 -7 -46 -15 -54 -9 -9 -15 -34 -15 -58 0 -27 -6 -48 -15 -56 -9 -8 -15 -30
-15 -60 0 -33 -5 -50 -15 -54 -11 -4 -15 -21 -15 -60 0 -39 -4 -55 -15 -60
-11 -4 -15 -21 -15 -60 0 -39 -4 -55 -15 -60 -10 -4 -15 -19 -15 -49 0 -27 -6
-49 -15 -57 -9 -8 -15 -30 -15 -57 0 -26 -6 -51 -15 -59 -9 -9 -15 -34 -15
-60 0 -30 -5 -46 -15 -50 -11 -5 -15 -21 -15 -60 0 -41 -4 -54 -15 -54 -12 0
-15 -13 -15 -60 0 -47 -3 -60 -15 -60 -11 0 -15 -13 -15 -54 0 -39 -4 -55 -15
-60 -10 -4 -15 -19 -15 -49 0 -27 -6 -49 -15 -57 -9 -8 -15 -30 -15 -60 0 -30
-6 -52 -15 -60 -9 -8 -15 -30 -15 -60 0 -33 -5 -50 -15 -54 -11 -4 -15 -21
-15 -61 0 -42 -3 -55 -15 -55 -12 0 -15 -13 -15 -55 0 -40 -4 -57 -15 -61 -10
-4 -15 -21 -15 -54 0 -30 -6 -52 -15 -60 -9 -7 -15 -29 -15 -55 0 -26 -6 -48
-15 -55 -10 -8 -15 -30 -15 -62 0 -34 -4 -50 -15 -54 -11 -5 -15 -21 -15 -60
0 -41 -4 -54 -15 -54 -12 0 -15 -13 -15 -60 0 -47 -3 -60 -15 -60 -11 0 -15
-13 -15 -54 0 -39 -4 -55 -15 -60 -10 -4 -15 -19 -15 -49 0 -27 -6 -49 -15
-57 -9 -8 -15 -30 -15 -60 0 -30 -6 -52 -15 -60 -9 -8 -15 -30 -15 -60 0 -31
-5 -50 -14 -53 -15 -6 -29 -109 -16 -117 4 -3 127 -3 272 0 l263 5 3 55 c2 35
9 58 18 63 9 5 14 25 14 61 0 39 4 55 15 60 11 4 15 20 15 56 0 36 4 52 15 56
10 4 15 21 15 54 0 33 5 50 15 54 11 4 15 20 15 54 0 32 5 54 15 62 10 8 15
30 15 62 0 34 4 50 15 54 11 4 15 21 15 59 0 38 4 55 15 59 11 4 15 21 15 60
0 39 4 55 15 60 11 4 15 20 15 56 0 36 4 52 15 56 10 4 15 21 15 54 0 30 6 52
15 60 9 7 15 29 15 55 0 26 6 48 15 55 10 8 15 30 15 62 0 34 4 50 15 54 11 4
15 21 15 59 0 38 4 55 15 59 11 4 15 21 15 60 0 39 4 55 15 60 11 4 15 20 15
56 0 36 4 52 15 56 10 4 15 21 15 54 0 30 6 52 15 60 9 8 15 30 15 57 0 26 6
51 15 59 9 9 15 34 15 60 0 30 5 46 15 50 11 4 15 21 15 59 0 38 4 55 15 59
11 4 15 21 15 60 0 39 4 55 15 60 11 4 15 20 15 54 0 31 5 54 15 62 9 8 13 28
12 61 -2 53 11 71 48 67 15 -2 20 -11 20 -32 0 -16 6 -31 13 -33 7 -3 12 -21
12 -43 0 -24 5 -40 15 -44 8 -3 15 -17 15 -31 0 -14 7 -28 15 -31 8 -4 15 -18
15 -34 0 -16 7 -30 15 -34 9 -3 15 -19 15 -41 0 -22 6 -38 15 -41 8 -4 15 -17
15 -30 0 -14 7 -27 15 -30 8 -4 15 -18 15 -34 0 -16 7 -35 15 -44 8 -8 15 -26
15 -41 0 -14 7 -28 15 -31 8 -4 15 -17 15 -30 0 -14 7 -27 15 -30 9 -4 15 -19
15 -39 0 -18 7 -38 15 -45 8 -7 15 -23 15 -37 0 -13 7 -26 15 -29 8 -4 15 -18
15 -34 0 -15 7 -33 15 -40 8 -7 15 -26 15 -42 0 -16 6 -31 15 -34 8 -4 15 -17
15 -30 0 -14 7 -27 15 -30 8 -4 15 -18 15 -33 0 -15 7 -36 15 -47 8 -10 15
-29 15 -42 0 -12 7 -25 15 -28 8 -4 15 -18 15 -34 0 -16 7 -30 15 -34 9 -3 15
-19 15 -41 0 -22 6 -38 15 -41 8 -4 15 -17 15 -30 0 -14 7 -27 15 -30 8 -4 15
-18 15 -34 0 -15 7 -33 15 -40 8 -7 15 -26 15 -42 0 -16 6 -31 15 -34 8 -4 15
-18 15 -34 0 -16 7 -30 15 -34 9 -3 15 -18 15 -40 0 -21 6 -36 15 -40 8 -3 15
-17 15 -31 0 -14 7 -28 15 -31 8 -4 15 -18 15 -34 0 -16 7 -30 15 -34 9 -3 15
-19 15 -41 0 -22 6 -38 15 -41 8 -4 15 -17 15 -30 0 -14 7 -27 15 -30 9 -4 15
-19 15 -39 0 -18 7 -38 15 -45 8 -7 15 -23 15 -37 0 -13 7 -26 15 -29 8 -4 15
-16 15 -29 0 -12 7 -28 15 -35 8 -7 15 -28 15 -47 0 -21 6 -36 15 -39 8 -4 15
-17 15 -30 0 -14 7 -27 15 -30 8 -4 15 -18 15 -34 0 -15 7 -33 15 -40 8 -7 15
-26 15 -42 0 -16 6 -31 15 -34 8 -4 15 -17 15 -30 0 -14 7 -27 15 -30 10 -4
15 -20 15 -45 0 -26 5 -42 15 -45 8 -4 15 -18 15 -34 0 -16 7 -30 16 -34 10
-4 13 -13 9 -25 -7 -24 3 -51 20 -51 7 0 16 13 20 30 4 16 11 32 16 35 5 4 9
20 9 36 0 17 6 32 15 35 8 4 15 18 15 34 0 16 7 30 15 34 9 3 15 19 15 41 0
22 6 38 15 41 8 4 15 18 15 34 0 16 7 30 15 34 8 3 15 16 15 29 0 14 7 30 15
37 8 7 15 26 15 42 0 16 6 31 15 34 8 4 15 18 15 34 0 16 7 30 15 34 9 3 15
18 15 34 0 16 7 35 15 42 8 7 15 25 15 40 0 16 7 30 15 34 8 3 15 16 15 30 0
13 7 26 15 30 9 3 15 19 15 41 0 22 6 38 15 41 8 4 15 18 15 34 0 16 7 30 15
34 8 3 15 17 15 31 0 14 7 28 15 31 10 4 15 20 15 44 0 24 5 40 15 44 8 3 15
16 15 30 0 13 7 26 15 30 9 3 15 18 15 34 0 16 7 35 15 42 8 7 15 25 15 40 0
16 7 30 15 34 8 3 15 16 15 30 0 13 7 26 15 30 9 3 15 19 15 41 0 22 6 38 15
41 8 4 15 18 15 34 0 16 7 30 15 34 8 3 15 16 15 29 0 14 7 30 15 37 8 7 15
26 15 42 0 16 6 31 15 34 8 4 15 18 15 34 0 16 7 30 15 34 8 3 15 17 15 31 0
15 7 33 15 41 8 9 15 28 15 44 0 16 7 30 15 34 8 3 15 16 15 30 0 13 7 26 15
30 9 3 15 18 15 34 0 16 7 35 15 42 8 7 15 25 15 40 0 16 7 30 15 34 8 3 15
16 15 30 0 13 7 26 15 30 10 3 15 19 15 46 0 29 4 40 15 40 10 0 15 10 15 29
0 16 6 31 15 35 8 3 15 16 15 29 0 14 7 30 15 37 8 7 15 28 15 46 0 24 5 34
15 34 10 0 15 10 15 29 0 16 6 31 15 35 9 3 15 18 15 40 0 21 6 36 15 40 9 3
15 18 15 35 0 17 6 31 16 35 10 4 13 13 9 26 -10 31 10 50 43 41 26 -7 27 -10
24 -63 -2 -43 1 -57 13 -61 11 -5 15 -21 15 -61 0 -39 4 -55 15 -60 11 -4 15
-20 15 -54 0 -32 5 -54 15 -62 9 -8 15 -30 15 -57 0 -30 5 -45 15 -49 11 -4
15 -21 15 -59 0 -38 4 -55 15 -59 11 -4 15 -21 15 -60 0 -39 4 -55 15 -60 11
-4 15 -20 15 -56 0 -36 4 -52 15 -56 11 -5 15 -21 15 -60 0 -39 4 -56 15 -60
11 -5 15 -21 15 -60 0 -39 4 -56 15 -60 10 -4 15 -20 15 -49 0 -26 6 -47 15
-55 10 -8 15 -30 15 -62 0 -34 4 -50 15 -54 11 -5 15 -21 15 -60 0 -39 4 -56
15 -60 11 -4 15 -21 15 -55 0 -35 4 -51 15 -55 11 -5 15 -21 15 -60 0 -39 4
-56 15 -60 11 -5 15 -21 15 -60 0 -39 4 -56 15 -60 10 -4 15 -21 15 -54 0 -30
6 -52 15 -60 9 -7 15 -29 15 -55 0 -26 6 -48 15 -55 9 -8 15 -30 15 -60 0 -30
6 -52 15 -60 9 -8 15 -30 15 -60 0 -33 5 -50 15 -54 11 -4 15 -20 15 -56 0
-36 4 -52 15 -56 11 -5 15 -22 15 -65 0 -46 3 -59 15 -59 11 0 15 -12 15 -45
l0 -45 255 -1 c140 -1 261 -2 268 -3 19 -2 22 88 2 104 -9 8 -15 29 -15 57 0
30 -5 45 -15 49 -11 5 -15 21 -15 60 0 39 -4 56 -15 60 -11 5 -15 21 -15 60 0
39 -4 56 -15 60 -11 4 -15 21 -15 55 0 35 -4 51 -15 55 -10 4 -15 21 -15 54 0
30 -6 52 -15 60 -9 8 -15 30 -15 60 0 33 -5 50 -15 54 -11 4 -15 20 -15 56 0
36 -4 52 -15 56 -11 5 -15 21 -15 60 0 39 -4 56 -15 60 -10 4 -15 21 -15 54 0
30 -6 52 -15 60 -9 7 -15 29 -15 55 0 26 -6 48 -15 55 -10 8 -15 30 -15 62 0
34 -4 50 -15 54 -11 4 -15 21 -15 55 0 35 -4 51 -15 55 -11 5 -15 21 -15 60 0
39 -4 56 -15 60 -11 5 -15 21 -15 60 0 39 -4 56 -15 60 -10 4 -15 21 -15 54 0
30 -6 52 -15 60 -9 7 -15 29 -15 55 0 26 -6 48 -15 55 -9 8 -15 30 -15 60 0
33 -5 50 -15 54 -11 4 -15 20 -15 56 0 36 -4 52 -15 56 -11 5 -15 21 -15 60 0
39 -4 56 -15 60 -11 4 -15 21 -15 59 0 38 -4 55 -15 59 -10 4 -15 19 -15 49 0
27 -6 49 -15 57 -10 8 -15 30 -15 62 0 34 -4 50 -15 54 -10 4 -15 21 -15 54 0
30 -6 52 -15 60 -10 8 -15 30 -15 62 0 34 -4 50 -15 54 -11 5 -15 21 -15 60 0
39 -4 56 -15 60 -11 4 -15 21 -15 55 0 35 -4 51 -15 55 -10 4 -15 21 -15 54 0
30 -6 52 -15 60 -9 8 -15 30 -15 60 0 33 -5 50 -15 54 -11 4 -15 20 -15 56 0
36 -4 52 -15 56 -11 5 -15 21 -15 60 0 39 -4 56 -15 60 -11 4 -15 21 -15 59 0
38 -4 55 -15 59 -10 4 -15 19 -15 49 0 27 -6 49 -15 57 -9 8 -15 30 -15 60 0
30 -6 52 -15 60 -9 8 -15 30 -15 60 0 33 -5 50 -15 54 -11 4 -15 21 -15 60 0
40 -4 55 -16 60 -12 5 -14 14 -9 46 5 32 4 41 -10 46 -20 8 -34 -11 -28 -37 3
-11 -1 -21 -11 -25 -9 -3 -16 -18 -16 -33 0 -14 -7 -35 -15 -45 -8 -11 -15
-32 -15 -47 0 -15 -7 -29 -15 -33 -8 -3 -15 -16 -15 -30 0 -13 -7 -26 -15 -30
-10 -3 -15 -19 -15 -45 0 -25 -5 -41 -15 -45 -8 -3 -15 -16 -15 -30 0 -13 -7
-26 -15 -30 -8 -3 -15 -17 -15 -31 0 -15 -7 -33 -15 -41 -8 -9 -15 -28 -15
-44 0 -16 -7 -30 -15 -34 -8 -3 -15 -17 -15 -31 0 -14 -7 -28 -15 -31 -10 -4
-15 -20 -15 -44 0 -24 -5 -40 -15 -44 -8 -3 -15 -16 -15 -30 0 -13 -7 -26 -15
-30 -8 -3 -15 -17 -15 -31 0 -15 -7 -33 -15 -41 -8 -9 -15 -28 -15 -44 0 -16
-7 -30 -15 -34 -8 -3 -15 -16 -15 -30 0 -13 -7 -26 -15 -30 -9 -3 -15 -19 -15
-41 0 -22 -6 -38 -15 -41 -8 -4 -15 -18 -15 -34 0 -16 -7 -30 -15 -34 -8 -3
-15 -16 -15 -29 0 -14 -7 -30 -15 -37 -8 -7 -15 -27 -15 -45 0 -20 -6 -35 -15
-39 -8 -3 -15 -16 -15 -30 0 -13 -7 -26 -15 -30 -9 -3 -15 -19 -15 -41 0 -22
-6 -38 -15 -41 -8 -4 -15 -18 -15 -34 0 -16 -7 -30 -15 -34 -8 -3 -15 -16 -15
-29 0 -14 -7 -30 -15 -37 -8 -7 -15 -27 -15 -45 0 -20 -6 -35 -15 -39 -8 -3
-15 -16 -15 -30 0 -13 -7 -26 -15 -30 -9 -3 -15 -19 -15 -41 0 -22 -6 -38 -15
-41 -8 -4 -15 -18 -15 -34 0 -16 -7 -30 -15 -34 -8 -3 -15 -17 -15 -31 0 -15
-7 -33 -15 -41 -8 -9 -15 -28 -15 -44 0 -16 -7 -30 -15 -34 -8 -3 -15 -16 -15
-30 0 -13 -7 -26 -15 -30 -9 -3 -15 -19 -15 -41 0 -22 -6 -38 -15 -41 -8 -4
-15 -18 -15 -34 0 -16 -7 -30 -15 -34 -8 -3 -15 -17 -15 -31 0 -15 -7 -33 -15
-41 -8 -9 -15 -28 -15 -44 0 -16 -7 -30 -15 -34 -8 -3 -15 -16 -15 -30 0 -13
-7 -26 -15 -30 -9 -3 -15 -19 -15 -41 0 -22 -6 -38 -15 -41 -8 -4 -15 -18 -15
-34 0 -16 -7 -30 -15 -34 -9 -3 -15 -18 -15 -34 0 -16 -7 -35 -15 -42 -8 -7
-15 -25 -15 -40 0 -16 -7 -30 -15 -34 -8 -3 -15 -16 -15 -30 0 -13 -7 -26 -15
-30 -9 -3 -15 -18 -15 -39 0 -19 -7 -40 -15 -47 -9 -7 -14 -21 -13 -30 2 -9
-2 -23 -9 -31 -6 -8 -13 -25 -15 -39 -2 -17 -10 -26 -25 -28 -20 -3 -23 1 -23
32 0 20 -4 36 -10 36 -5 0 -10 18 -10 40 0 27 -5 43 -15 46 -8 4 -15 17 -15
30 0 14 -7 27 -15 30 -9 4 -15 19 -15 35 0 17 -6 32 -15 35 -9 4 -15 19 -15
40 0 22 -6 37 -15 40 -8 4 -15 17 -15 30 0 14 -7 27 -15 30 -9 4 -15 19 -15
39 0 18 -7 38 -15 45 -8 7 -15 23 -15 37 0 13 -7 26 -15 29 -8 4 -15 18 -15
34 0 16 -7 30 -15 34 -9 3 -15 19 -15 41 0 22 -6 38 -15 41 -8 4 -15 17 -15
30 0 14 -7 27 -15 30 -8 4 -15 18 -15 34 0 16 -7 35 -15 44 -8 8 -15 26 -15
41 0 14 -7 28 -15 31 -8 4 -15 17 -15 30 0 14 -7 27 -15 30 -9 4 -15 19 -15
39 0 18 -7 38 -15 45 -8 7 -15 23 -15 37 0 13 -7 26 -15 29 -8 4 -15 18 -15
34 0 15 -7 33 -15 40 -8 7 -15 26 -15 42 0 16 -6 31 -15 34 -8 4 -15 17 -15
30 0 14 -7 27 -15 30 -8 4 -15 18 -15 34 0 16 -7 35 -15 44 -8 8 -15 26 -15
41 0 14 -7 28 -15 31 -8 4 -15 18 -15 34 0 16 -7 30 -15 34 -9 3 -15 19 -15
41 0 22 -6 38 -15 41 -8 4 -15 17 -15 30 0 14 -7 27 -15 30 -8 4 -15 18 -15
34 0 15 -7 33 -15 40 -8 7 -15 26 -15 42 0 16 -6 31 -15 34 -8 4 -15 18 -15
34 0 16 -7 30 -15 34 -9 3 -15 18 -15 34 0 16 -7 35 -15 42 -8 7 -15 23 -15
37 0 13 -7 26 -15 29 -8 4 -15 18 -15 34 0 16 -7 30 -15 34 -9 3 -15 19 -15
41 0 22 -6 38 -15 41 -8 4 -15 17 -15 30 0 14 -7 27 -15 30 -8 4 -15 18 -15
34 0 16 -7 35 -15 44 -8 8 -15 26 -15 41 0 14 -7 28 -15 31 -8 4 -15 16 -15
29 0 12 -7 28 -15 35 -8 7 -15 28 -15 47 0 21 -6 36 -15 39 -8 4 -15 17 -15
30 0 14 -7 27 -15 30 -8 4 -15 18 -15 34 0 15 -7 33 -15 40 -8 7 -15 26 -15
42 0 16 -6 31 -15 34 -8 4 -15 18 -15 34 0 16 -7 30 -15 34 -10 3 -15 19 -15
45 0 23 -5 41 -12 44 -7 2 -13 17 -13 33 0 28 -22 44 -38 28z m2541 -418 c25
-49 48 -118 62 -186 20 -97 41 -180 75 -305 20 -71 40 -148 45 -170 5 -22 18
-76 31 -120 12 -44 24 -93 26 -110 2 -16 9 -39 14 -50 5 -11 13 -40 18 -65 5
-25 30 -126 56 -225 26 -99 58 -227 71 -285 24 -103 28 -119 58 -230 32 -117
97 -370 131 -510 8 -30 35 -134 60 -230 26 -96 66 -251 91 -345 83 -322 132
-510 153 -586 11 -41 26 -106 34 -143 13 -62 12 -69 -4 -89 -15 -19 -29 -22
-112 -25 -116 -5 -150 9 -176 71 -10 23 -46 152 -81 287 -35 135 -80 310 -101
390 -102 392 -142 548 -149 585 -5 22 -14 54 -20 70 -7 17 -18 57 -26 90 -7
33 -34 137 -59 230 -25 94 -54 204 -65 245 -10 41 -26 102 -35 135 -9 33 -21
78 -27 100 -38 151 -91 244 -155 271 -41 18 -68 8 -115 -44 -50 -55 -79 -108
-133 -242 -26 -63 -64 -153 -85 -200 -21 -47 -52 -119 -69 -160 -17 -41 -65
-154 -107 -250 -71 -163 -99 -231 -154 -370 -12 -30 -26 -59 -31 -64 -5 -6 -9
-16 -9 -23 0 -7 -20 -57 -44 -110 -39 -86 -97 -222 -156 -363 -10 -25 -34 -81
-54 -125 -19 -44 -50 -118 -69 -165 -93 -224 -130 -289 -160 -277 -15 6 -80
128 -112 212 -12 33 -51 123 -85 200 -34 77 -71 160 -80 185 -10 25 -41 97
-68 160 -27 63 -68 160 -91 215 -23 55 -49 114 -56 130 -46 98 -125 288 -125
300 0 7 -4 16 -9 19 -4 3 -16 27 -26 53 -10 26 -53 130 -96 230 -44 100 -79
186 -79 192 0 5 -9 25 -19 43 -11 18 -43 96 -71 173 -71 191 -122 275 -191
310 -36 19 -63 9 -115 -44 -45 -44 -58 -79 -124 -331 -6 -25 -17 -67 -25 -95
-7 -27 -23 -95 -35 -150 -13 -55 -28 -120 -35 -145 -23 -81 -44 -164 -64 -245
-10 -44 -28 -114 -39 -155 -12 -41 -32 -118 -46 -170 -14 -52 -37 -135 -51
-185 -14 -49 -34 -128 -46 -175 -23 -98 -65 -251 -80 -295 -6 -16 -17 -57 -24
-90 -17 -80 -34 -149 -55 -215 -10 -30 -23 -78 -30 -106 -19 -77 -36 -93 -105
-104 -190 -31 -250 2 -215 120 6 19 15 53 19 75 5 22 16 67 26 100 9 33 21 76
25 95 4 19 25 98 45 175 21 77 48 183 60 235 13 52 37 142 54 199 17 57 31
111 31 121 0 9 6 36 14 61 7 24 19 64 25 89 20 75 76 274 112 400 10 36 28
103 39 150 11 47 27 110 35 140 36 141 69 267 106 410 23 85 43 166 46 180 3
14 13 52 23 85 9 33 30 107 44 165 15 58 36 134 46 170 17 59 61 219 80 295 4
17 18 66 30 110 12 44 26 96 30 115 4 19 19 69 32 110 43 128 69 103 187 -180
40 -96 88 -210 107 -252 19 -43 34 -82 34 -87 0 -6 15 -43 34 -83 49 -104 186
-427 186 -438 0 -6 29 -71 65 -145 36 -74 65 -138 65 -142 0 -4 13 -35 29 -68
16 -33 43 -96 60 -140 17 -44 43 -111 60 -150 16 -38 58 -140 94 -225 35 -85
77 -186 91 -225 89 -230 146 -344 199 -392 50 -46 72 -51 117 -28 34 18 118
140 144 210 37 101 102 256 182 433 13 29 24 55 24 59 0 7 59 158 95 243 21
51 82 199 135 330 13 30 38 87 56 127 19 40 34 76 34 81 0 9 13 41 90 222 15
36 38 92 50 125 13 33 27 65 31 70 4 6 37 84 73 175 116 293 142 353 201 478
32 67 63 122 70 122 6 0 21 -20 33 -44z"/>
<path d="M3324 6875 c-5 -11 -21 -15 -60 -15 -39 0 -56 -4 -60 -15 -4 -9 -19
-15 -35 -15 -22 0 -29 -5 -29 -20 0 -11 7 -23 15 -26 9 -4 15 -19 15 -35 0
-17 6 -32 15 -35 8 -4 15 -17 15 -30 0 -14 7 -27 15 -30 10 -4 15 -20 15 -45
0 -26 5 -42 15 -45 8 -4 15 -17 15 -30 0 -14 7 -27 15 -30 8 -4 15 -16 15 -29
0 -12 7 -28 15 -35 8 -7 15 -28 15 -47 0 -21 6 -36 15 -39 8 -4 15 -17 15 -30
0 -13 9 -28 19 -34 16 -8 19 -17 14 -45 -4 -26 -2 -36 11 -41 9 -3 16 -17 16
-30 0 -13 9 -28 19 -34 13 -6 17 -17 14 -30 -3 -12 1 -22 11 -26 11 -4 16 -18
16 -44 0 -24 5 -40 15 -44 8 -3 15 -17 15 -30 0 -15 8 -30 20 -36 15 -8 19
-17 15 -31 -4 -11 0 -30 9 -44 9 -13 16 -33 16 -44 0 -11 9 -25 19 -31 13 -6
17 -17 14 -30 -3 -12 1 -22 11 -26 10 -4 16 -18 16 -39 0 -18 7 -38 15 -45 8
-7 15 -23 15 -36 0 -13 9 -28 20 -34 15 -8 19 -17 14 -34 -3 -14 1 -27 10 -35
9 -8 16 -27 16 -43 0 -16 6 -31 15 -34 9 -4 15 -19 15 -35 0 -26 4 -29 30 -29
28 0 30 2 30 40 0 23 7 52 16 66 11 16 15 36 11 59 -5 28 -2 37 14 45 10 6 19
21 19 34 0 13 7 26 15 30 10 3 15 19 15 45 0 25 5 41 15 45 8 3 15 17 15 31 0
14 7 28 15 31 8 4 15 16 15 28 1 28 34 124 49 139 7 7 11 50 11 109 0 96 -1
99 -25 108 -14 5 -29 18 -32 27 -4 10 -33 44 -65 75 -32 32 -58 65 -58 74 0 9
-20 37 -45 62 -25 25 -45 50 -45 56 0 7 -14 27 -31 46 -17 18 -40 51 -51 72
-11 21 -24 38 -29 38 -5 0 -9 10 -9 23 0 14 -12 32 -30 45 -17 13 -30 32 -30
45 0 27 -41 67 -68 67 -15 0 -22 8 -24 28 -2 19 -9 28 -25 30 -12 2 -27 10
-33 18 -17 19 -79 18 -86 -1z m84 -124 c44 -23 89 -75 172 -202 34 -52 81
-116 104 -144 23 -27 56 -70 73 -95 17 -25 56 -72 85 -105 30 -33 62 -74 71
-90 26 -51 12 -149 -37 -265 -16 -36 -38 -92 -50 -125 -34 -91 -44 -105 -72
-105 -20 0 -28 8 -40 38 -16 40 -17 41 -65 147 -17 38 -39 92 -49 120 -21 60
-70 184 -112 280 -17 39 -43 104 -58 145 -16 41 -43 109 -60 150 -47 108 -80
202 -80 225 0 47 54 59 118 26z"/>
<path d="M5740 6785 c-7 -8 -18 -15 -24 -15 -13 0 -56 -53 -56 -69 0 -6 -8
-14 -17 -20 -17 -9 -16 -11 6 -32 20 -18 22 -28 18 -63 -5 -34 -3 -44 13 -54
16 -9 20 -23 20 -61 0 -36 4 -51 16 -55 13 -5 16 -16 12 -57 -4 -42 -2 -52 15
-64 16 -11 18 -20 13 -49 -6 -29 -3 -37 15 -46 19 -11 21 -18 16 -61 -5 -42
-3 -50 15 -60 18 -10 20 -17 15 -60 -5 -42 -3 -50 15 -60 18 -10 20 -17 15
-60 -5 -42 -3 -50 15 -60 17 -9 19 -17 14 -49 -4 -29 -1 -42 15 -61 15 -18 19
-32 14 -55 -4 -23 -1 -37 12 -50 12 -12 17 -31 16 -61 -1 -34 3 -45 19 -54 17
-9 19 -17 13 -56 -5 -36 -3 -49 11 -65 13 -13 18 -33 16 -63 -1 -35 3 -47 18
-55 17 -9 19 -17 14 -48 -4 -29 -1 -42 15 -61 16 -19 19 -32 14 -68 -5 -37 -3
-46 15 -59 17 -11 20 -21 15 -49 -4 -26 -2 -36 11 -41 11 -4 16 -18 16 -45 0
-31 5 -42 23 -49 33 -15 61 -33 70 -47 4 -7 19 -13 33 -13 13 0 27 -7 30 -15
4 -8 16 -15 29 -15 13 0 25 -7 29 -15 3 -8 17 -15 31 -15 16 0 25 -6 25 -15 0
-9 9 -15 23 -15 13 0 37 -13 53 -30 16 -16 39 -30 50 -30 12 0 24 -7 28 -15 3
-8 17 -15 31 -15 16 0 25 -6 25 -15 0 -10 10 -15 28 -15 20 1 38 14 72 56 25
30 47 60 50 67 6 14 48 64 73 86 9 8 17 23 17 33 0 23 16 32 24 13 9 -25 36
-18 36 10 0 14 7 28 15 31 10 4 15 20 15 50 0 30 5 46 15 50 8 4 15 17 15 31
0 13 7 31 15 39 12 12 15 42 15 135 0 99 -3 119 -15 119 -12 0 -15 13 -15 55
0 40 -4 57 -15 61 -10 4 -15 20 -15 50 0 30 -8 55 -25 80 -20 29 -23 40 -13
51 9 11 5 20 -20 43 -24 21 -32 38 -32 62 0 25 -8 40 -30 58 -18 16 -29 35
-30 51 0 14 -7 34 -15 45 -8 10 -15 28 -15 39 0 12 -13 32 -30 45 -18 16 -29
35 -30 51 0 15 -7 29 -15 33 -8 3 -15 15 -15 26 0 11 -7 23 -15 26 -8 4 -15
16 -15 28 0 12 -13 33 -30 46 -16 14 -29 34 -30 45 0 11 -9 28 -20 38 -11 9
-20 24 -20 32 0 8 -4 15 -10 15 -5 0 -10 6 -10 13 0 8 -15 26 -34 42 -19 16
-32 34 -29 41 2 7 -30 47 -72 90 -43 42 -78 82 -79 88 -3 22 -18 36 -36 36
-12 0 -22 9 -25 23 -3 12 -23 33 -43 47 -20 14 -48 37 -62 53 -13 15 -34 27
-46 27 -12 0 -24 7 -28 15 -3 9 -18 15 -39 15 -19 0 -40 7 -47 15 -10 11 -35
15 -110 15 -75 0 -100 -4 -110 -15z m250 -88 c94 -35 176 -107 326 -288 71
-86 194 -270 234 -349 15 -30 48 -93 72 -140 91 -173 160 -332 202 -470 52
-168 59 -206 51 -296 -10 -123 -52 -207 -165 -333 -82 -91 -89 -96 -124 -94
-57 4 -317 147 -370 203 -41 44 -56 81 -95 230 -6 25 -20 77 -32 115 -29 102
-64 227 -92 330 -13 50 -31 113 -40 140 -9 28 -28 93 -42 145 -15 52 -35 122
-45 155 -10 33 -21 76 -25 95 -4 19 -16 64 -27 100 -11 36 -24 81 -28 100 -4
19 -20 80 -34 135 -36 134 -37 177 -6 210 46 49 130 53 240 12z"/>
<path d="M2090 6607 c0 -7 -10 -17 -22 -22 -12 -6 -26 -19 -32 -29 -6 -11 -37
-45 -68 -76 -32 -31 -58 -66 -58 -76 -1 -10 -14 -30 -30 -44 -17 -13 -30 -33
-30 -45 0 -12 -12 -27 -30 -37 -21 -12 -30 -25 -30 -43 0 -17 -15 -39 -45 -68
-25 -24 -45 -53 -45 -64 0 -12 -7 -23 -15 -27 -8 -3 -15 -16 -15 -30 0 -13 -7
-26 -15 -30 -8 -3 -15 -16 -15 -28 -1 -13 -14 -34 -30 -48 -23 -19 -30 -32
-30 -61 0 -24 -5 -39 -15 -43 -8 -3 -15 -16 -15 -30 0 -13 -7 -26 -15 -30 -8
-3 -15 -16 -15 -30 0 -13 -7 -26 -15 -30 -10 -3 -15 -19 -15 -45 0 -25 -5 -41
-15 -45 -9 -3 -15 -19 -15 -41 0 -22 -6 -38 -15 -41 -10 -4 -15 -20 -15 -49 0
-29 -5 -45 -15 -49 -10 -3 -15 -19 -15 -45 0 -25 -5 -41 -15 -45 -11 -4 -15
-21 -15 -64 0 -41 -5 -64 -15 -72 -11 -9 -15 -33 -15 -85 0 -56 -4 -74 -15
-79 -12 -4 -15 -26 -15 -105 0 -63 -4 -101 -11 -103 -7 -2 -13 -46 -16 -109
-5 -89 -3 -106 11 -118 9 -7 16 -26 16 -42 0 -29 1 -29 58 -29 55 0 60 2 88
37 16 20 43 51 61 70 18 18 33 40 33 47 0 8 20 35 45 62 25 26 45 53 45 60 0
7 47 60 105 117 58 58 105 111 105 119 0 8 13 28 30 44 16 16 30 34 30 40 0 6
7 17 15 24 8 7 15 23 15 37 0 13 7 26 15 29 10 4 15 20 15 49 0 29 5 45 15 49
11 4 15 21 15 60 0 39 4 55 15 60 10 3 15 19 15 45 0 25 5 41 15 45 11 4 15
21 15 60 0 39 4 55 15 60 10 3 15 19 15 45 0 25 5 41 15 45 8 3 15 16 15 28 0
13 7 32 15 42 8 11 15 28 15 38 0 18 7 29 43 69 9 10 17 34 17 53 0 18 7 39
15 46 8 7 15 20 15 30 0 10 7 20 15 24 8 3 15 12 15 19 0 8 7 20 15 27 8 7 15
23 15 35 0 12 7 28 15 35 8 7 15 20 15 29 0 9 12 29 28 46 28 31 44 54 61 93
6 12 15 22 21 22 6 0 10 24 10 55 0 51 -2 55 -24 55 -13 0 -29 7 -36 15 -7 8
-18 15 -25 15 -7 0 -18 7 -25 15 -7 8 -20 15 -30 15 -10 0 -23 7 -30 15 -7 8
-25 15 -40 15 -16 0 -30 7 -34 15 -7 20 -116 22 -116 2z m155 -132 c35 -16 60
-35 67 -51 12 -27 8 -39 -52 -139 -27 -45 -114 -219 -175 -350 -43 -92 -84
-202 -109 -296 -14 -52 -35 -128 -46 -169 -58 -212 -92 -286 -175 -380 -32
-36 -82 -92 -111 -125 -29 -33 -71 -85 -94 -115 -53 -71 -119 -140 -135 -140
-37 0 -39 47 -10 255 10 76 37 215 50 260 7 28 21 79 30 115 9 36 22 81 29
100 8 19 20 55 27 80 68 239 272 606 481 867 99 123 124 133 223 88z"/>
<path d="M2582 6385 c-17 -17 -21 -29 -16 -49 5 -21 0 -33 -25 -58 -17 -17
-31 -42 -31 -54 0 -12 -7 -27 -15 -34 -8 -7 -15 -19 -15 -27 0 -7 -7 -16 -15
-19 -8 -4 -15 -18 -15 -34 0 -16 -7 -30 -15 -34 -8 -3 -15 -16 -15 -30 0 -13
-7 -26 -15 -30 -8 -3 -15 -16 -15 -30 0 -13 -7 -26 -15 -30 -9 -3 -15 -19 -15
-41 0 -22 -6 -38 -15 -41 -8 -4 -15 -18 -15 -34 0 -16 -7 -30 -15 -34 -8 -3
-15 -16 -15 -30 0 -13 -7 -26 -15 -30 -8 -3 -15 -16 -15 -30 0 -13 -7 -26 -15
-30 -11 -4 -15 -20 -15 -56 0 -36 -4 -52 -15 -56 -10 -4 -15 -20 -15 -49 0
-29 -5 -45 -15 -49 -10 -3 -15 -19 -15 -44 0 -23 -6 -45 -15 -52 -9 -8 -15
-30 -15 -60 0 -33 -5 -50 -15 -54 -11 -4 -15 -23 -15 -78 0 -73 0 -74 45 -125
25 -28 45 -56 45 -62 0 -19 22 -12 27 8 3 11 11 22 19 25 11 4 13 15 8 41 -4
25 -1 42 10 60 9 13 16 44 16 68 0 27 6 49 15 57 9 7 15 29 15 53 0 26 6 44
17 52 13 9 16 25 14 57 -1 31 3 48 13 57 11 9 16 30 16 64 0 36 5 53 17 62 13
10 17 24 14 55 -2 29 3 47 15 62 12 12 17 31 16 52 -2 20 3 37 12 45 10 9 16
30 16 60 0 29 7 57 19 75 13 19 18 39 14 57 -4 21 0 30 16 38 17 10 21 21 21
65 0 39 4 55 15 60 11 4 15 20 15 56 0 36 4 52 15 56 10 4 15 20 15 45 0 26 5
42 15 45 18 7 20 34 3 33 -7 -1 -23 -11 -36 -24z"/>
<path d="M2990 5136 c0 -30 -5 -46 -15 -50 -11 -4 -15 -21 -15 -60 0 -40 -4
-55 -16 -60 -14 -5 -15 -15 -10 -56 6 -43 4 -50 -14 -60 -15 -8 -20 -21 -20
-54 0 -27 -6 -48 -15 -56 -8 -7 -15 -25 -15 -41 0 -22 5 -29 20 -29 11 0 20 5
20 10 0 6 11 15 25 20 14 5 25 14 25 19 0 5 11 12 25 15 14 4 25 11 25 16 0 6
6 10 14 10 7 0 19 7 26 15 7 8 19 15 27 15 46 0 81 82 48 110 -8 7 -15 23 -15
37 0 13 -7 26 -15 29 -8 4 -15 17 -15 30 0 14 -7 27 -15 30 -10 4 -15 20 -15
44 0 21 -7 43 -15 50 -8 7 -15 23 -15 36 0 15 -6 24 -15 24 -11 0 -15 -12 -15
-44z"/>
<path d="M5320 4760 c-14 -16 -35 -29 -48 -30 -12 0 -25 -7 -28 -15 -4 -8 -15
-15 -26 -15 -11 0 -47 -27 -80 -60 -34 -33 -68 -60 -77 -60 -26 0 -61 -45 -61
-78 0 -16 -7 -35 -15 -42 -9 -7 -13 -21 -10 -31 4 -12 -1 -22 -15 -29 -14 -8
-19 -17 -15 -30 4 -13 -1 -22 -15 -30 -14 -8 -20 -18 -17 -30 3 -11 -3 -26
-14 -36 -14 -13 -18 -25 -14 -45 5 -22 2 -30 -15 -39 -15 -8 -20 -18 -17 -31
3 -12 -2 -23 -13 -29 -12 -7 -18 -20 -18 -40 1 -17 -6 -38 -16 -49 -9 -10 -14
-25 -10 -34 3 -10 -2 -20 -16 -27 -15 -8 -20 -18 -17 -31 3 -13 -2 -23 -15
-30 -16 -9 -19 -17 -14 -44 6 -28 3 -36 -15 -45 -14 -8 -19 -18 -16 -31 3 -13
-2 -24 -14 -32 -16 -10 -19 -24 -19 -94 0 -46 -5 -85 -10 -88 -6 -4 -8 -15 -5
-25 3 -10 1 -21 -5 -25 -5 -3 -10 -39 -10 -80 0 -55 -4 -74 -15 -79 -12 -4
-15 -27 -15 -114 0 -65 -4 -112 -11 -119 -22 -22 35 -93 75 -93 13 0 26 -7 30
-15 3 -8 16 -15 30 -15 13 0 26 -7 30 -15 3 -8 16 -15 30 -15 13 0 26 -7 30
-15 3 -8 15 -15 26 -15 11 0 23 -7 26 -15 4 -9 19 -15 35 -15 16 0 29 -4 29
-9 0 -16 77 -62 93 -55 11 4 19 0 23 -10 3 -9 16 -16 29 -16 12 0 28 -7 35
-15 7 -8 21 -15 32 -15 10 0 21 -7 24 -15 4 -9 19 -15 35 -15 19 0 29 -5 29
-15 0 -22 175 -22 184 0 3 9 18 15 34 15 16 0 35 7 42 15 7 8 23 15 36 15 13
0 27 6 31 13 4 6 25 21 47 32 21 11 41 25 43 32 3 7 16 13 29 13 14 0 27 7 30
15 4 8 17 15 30 15 12 0 27 6 31 14 4 8 19 16 33 18 21 2 26 9 28 41 2 26 -1
39 -12 43 -12 4 -16 20 -16 54 0 30 -6 52 -15 60 -10 8 -15 31 -15 67 0 38 -4
55 -15 59 -10 4 -15 20 -15 44 0 21 -7 43 -15 50 -9 8 -15 30 -15 60 0 30 -6
52 -15 60 -9 8 -15 30 -15 60 0 30 -6 52 -15 60 -10 8 -15 30 -15 61 0 35 -5
51 -17 57 -12 8 -16 21 -15 54 2 31 -2 49 -13 58 -10 8 -15 30 -15 66 0 42 -4
55 -19 64 -16 8 -19 17 -14 43 3 23 0 37 -11 46 -11 9 -16 30 -16 61 0 30 -6
52 -15 60 -10 8 -15 30 -15 61 0 29 -6 53 -15 63 -9 8 -15 33 -15 60 0 32 -5
48 -17 54 -13 8 -16 22 -14 60 2 42 -2 53 -18 61 -17 10 -19 18 -14 61 5 40 3
51 -11 56 -12 5 -16 20 -16 65 0 55 -2 59 -23 59 -13 0 -33 -13 -47 -30z m20
-185 c16 -47 59 -220 82 -330 5 -27 14 -63 18 -80 15 -53 68 -259 79 -305 28
-126 53 -228 60 -250 5 -14 14 -52 21 -85 7 -33 20 -87 30 -120 10 -33 20 -71
23 -85 3 -14 14 -61 26 -105 11 -44 21 -104 21 -133 l0 -52 -56 -36 c-80 -51
-178 -102 -232 -121 -79 -26 -192 0 -342 81 -14 8 -89 46 -167 86 -177 91
-195 108 -199 192 -1 35 2 79 7 98 4 19 11 70 14 114 3 43 7 82 9 85 3 4 9 51
15 106 7 54 15 103 20 109 5 6 11 22 14 36 6 30 116 301 127 315 5 6 29 62 53
125 25 63 61 147 80 185 56 111 188 228 251 222 25 -2 31 -9 46 -52z"/>
<path d="M4017 4764 c-13 -13 -8 -54 8 -60 8 -4 15 -17 15 -30 0 -14 7 -27 15
-30 8 -4 15 -17 15 -30 0 -13 9 -28 20 -34 17 -9 20 -17 14 -45 -5 -27 -2 -36
10 -41 9 -3 16 -17 16 -30 0 -12 6 -27 14 -31 8 -4 16 -21 18 -38 4 -37 22
-36 26 2 2 15 8 32 13 38 5 5 9 19 9 32 0 13 7 26 15 29 8 4 15 15 15 26 0 12
8 27 18 34 16 12 14 15 -17 43 -19 17 -43 34 -54 37 -11 4 -38 26 -60 50 -22
24 -48 44 -57 44 -10 0 -24 9 -31 21 -8 11 -17 17 -22 13z"/>
<path d="M6172 4668 c-13 -17 -3 -78 14 -85 9 -3 14 -21 14 -51 0 -28 6 -52
17 -64 12 -13 16 -33 14 -67 -1 -38 2 -52 16 -59 12 -7 17 -20 15 -46 -2 -25
2 -38 13 -42 11 -5 15 -21 15 -59 0 -34 5 -57 15 -65 10 -8 15 -30 15 -61 0
-35 5 -51 17 -58 12 -6 16 -20 15 -46 -2 -21 4 -48 13 -61 8 -13 15 -45 15
-74 0 -36 4 -52 15 -56 10 -4 15 -20 15 -49 0 -26 6 -47 15 -55 9 -8 15 -30
15 -59 0 -34 6 -54 21 -70 27 -28 45 -22 42 15 -8 86 -1 179 13 187 9 5 14 23
13 50 -3 96 3 156 17 161 12 4 12 10 4 26 -7 14 -8 26 0 39 6 12 10 98 10 211
0 187 -1 192 -22 211 -13 10 -29 18 -36 19 -14 0 -33 14 -60 43 -9 9 -26 17
-38 17 -14 0 -24 8 -27 21 -4 16 -11 20 -27 16 -13 -3 -23 0 -27 9 -3 8 -16
14 -29 14 -14 0 -27 7 -30 15 -4 8 -13 15 -20 15 -8 0 -24 16 -35 35 -24 40
-23 39 -37 23z m252 -297 c15 -21 28 -49 29 -62 4 -44 -15 -191 -23 -182 -5 4
-22 44 -38 88 -61 161 -64 195 -19 195 17 0 33 -12 51 -39z"/>
<path d="M6943 4654 c-22 -25 -23 -32 -23 -255 0 -182 -3 -237 -15 -266 -8
-20 -15 -66 -15 -105 0 -52 -4 -70 -15 -74 -11 -5 -15 -22 -15 -64 0 -42 -4
-59 -15 -64 -10 -3 -15 -19 -15 -45 0 -22 -7 -46 -15 -55 -8 -8 -15 -26 -15
-41 0 -14 -7 -28 -15 -31 -10 -4 -15 -20 -15 -45 0 -26 -5 -42 -15 -45 -8 -4
-15 -17 -15 -30 0 -12 -6 -27 -14 -31 -17 -10 -27 -108 -12 -123 5 -5 16 -10
24 -10 22 0 62 48 62 74 0 13 7 29 15 36 8 7 15 26 15 42 0 16 6 31 15 34 10
4 15 21 15 54 0 30 6 52 15 60 8 7 15 29 15 50 0 21 7 43 15 50 10 8 15 30 15
62 0 34 4 50 15 54 12 5 15 25 15 89 0 61 4 86 15 95 12 10 15 37 15 120 0 65
6 133 15 168 11 42 15 98 13 188 -3 120 -4 129 -23 132 -11 1 -30 -9 -42 -24z"/>
<path d="M3152 4639 c-13 -16 -32 -29 -43 -29 -11 0 -22 -7 -25 -15 -4 -8 -14
-15 -24 -15 -11 0 -21 -4 -24 -9 -4 -5 -27 -19 -52 -31 -25 -13 -48 -29 -51
-36 -3 -8 -14 -14 -25 -14 -11 0 -45 -25 -75 -55 -53 -53 -54 -55 -48 -99 6
-39 4 -46 -14 -56 -19 -10 -21 -17 -15 -60 6 -42 4 -49 -15 -59 -18 -10 -20
-18 -15 -55 5 -37 3 -47 -15 -62 -17 -15 -20 -25 -15 -52 5 -24 2 -38 -11 -52
-13 -14 -18 -34 -17 -64 2 -31 -2 -46 -13 -50 -11 -4 -15 -20 -15 -56 0 -37
-5 -55 -20 -70 -17 -17 -20 -33 -20 -100 l0 -81 159 -159 c87 -88 166 -160
175 -160 9 0 42 -27 74 -60 33 -33 68 -60 78 -60 10 -1 30 -14 44 -30 13 -17
31 -30 40 -30 8 0 35 -18 59 -40 25 -22 50 -40 58 -40 7 0 21 -9 30 -20 10
-11 27 -20 39 -20 12 0 24 -6 27 -13 2 -7 22 -21 43 -32 22 -11 43 -26 47 -32
4 -7 19 -13 31 -13 13 0 26 -7 30 -15 3 -10 19 -15 45 -15 25 0 41 5 45 15 3
9 18 15 34 15 16 0 35 7 42 15 7 8 23 15 37 15 13 0 26 7 29 15 4 8 17 15 30
15 14 0 27 7 30 15 4 9 20 15 43 15 54 1 104 49 66 64 -8 3 -15 14 -15 24 0
11 -7 25 -15 32 -8 7 -15 27 -15 46 0 23 -6 37 -19 44 -13 6 -17 17 -14 30 3
12 -1 22 -11 26 -9 3 -16 16 -16 28 0 12 -7 31 -15 42 -8 10 -15 31 -15 46 0
17 -8 31 -20 38 -12 6 -17 16 -13 26 3 9 -3 23 -15 35 -16 14 -20 27 -16 48 5
23 2 32 -14 40 -13 7 -18 17 -15 30 3 13 -2 23 -17 31 -14 7 -19 17 -16 27 4
9 -1 24 -10 34 -10 11 -17 32 -16 49 0 20 -6 33 -19 41 -13 7 -18 16 -14 29 4
13 -1 22 -15 30 -17 9 -20 17 -14 45 5 27 2 35 -16 45 -14 8 -19 17 -15 30 4
13 -1 22 -15 30 -14 8 -19 17 -15 30 4 12 0 22 -12 28 -12 7 -17 21 -16 46 1
26 -4 39 -18 47 -13 7 -18 16 -14 29 4 13 -1 22 -15 30 -17 9 -20 17 -15 42 6
24 3 33 -14 45 -15 10 -20 21 -16 33 4 13 -1 22 -15 30 -14 8 -19 17 -15 30 4
12 0 22 -11 28 -12 7 -17 21 -16 46 1 26 -4 38 -17 46 -12 6 -17 17 -14 29 3
13 -2 23 -17 31 -16 9 -20 18 -16 34 3 13 -1 31 -9 42 -8 10 -15 29 -15 42 0
12 -7 25 -15 28 -9 4 -15 19 -15 35 0 25 -4 29 -27 28 -19 0 -36 -10 -51 -30z
m40 -116 c10 -9 18 -20 18 -25 0 -5 19 -48 41 -96 23 -48 50 -107 61 -132 11
-25 24 -53 29 -64 6 -10 35 -77 64 -150 30 -72 79 -192 110 -266 31 -74 76
-189 101 -255 24 -66 49 -129 54 -140 21 -45 123 -303 133 -337 17 -57 2 -86
-63 -119 -79 -41 -154 -63 -187 -55 -61 15 -300 162 -483 298 -126 93 -332
287 -373 350 -33 53 -26 148 27 333 14 51 30 108 68 245 11 41 24 93 28 116
18 84 55 148 107 187 28 20 54 37 58 37 4 0 19 9 34 20 39 27 123 69 140 70 8
0 23 -7 33 -17z"/>
<path d="M1313 4388 c-14 -22 -3 -241 13 -259 9 -10 14 -38 14 -76 0 -45 4
-62 15 -67 11 -4 15 -20 15 -54 0 -32 5 -54 15 -62 9 -8 15 -29 15 -55 0 -29
5 -45 15 -49 10 -3 15 -19 15 -46 0 -27 5 -43 15 -46 10 -4 15 -20 15 -44 0
-24 5 -40 15 -44 8 -3 15 -16 15 -30 0 -13 7 -26 15 -30 9 -3 15 -19 15 -41 0
-22 6 -38 15 -41 9 -4 15 -19 15 -35 0 -19 5 -29 15 -29 10 0 15 -10 15 -29 0
-16 7 -34 15 -41 8 -7 15 -20 15 -30 0 -10 7 -20 15 -24 8 -3 15 -14 15 -24 0
-11 7 -25 15 -32 8 -7 15 -21 15 -31 0 -20 33 -59 50 -59 6 0 10 31 10 74 0
56 -4 75 -15 80 -8 3 -15 15 -15 26 0 11 -7 23 -15 26 -8 4 -15 16 -15 29 0
12 -7 28 -15 35 -8 7 -15 20 -15 30 0 10 -7 20 -15 24 -8 3 -15 14 -15 24 0
11 -7 25 -15 32 -8 7 -15 23 -15 37 0 13 -7 26 -15 29 -8 4 -15 18 -15 34 0
16 -7 30 -15 34 -9 3 -15 19 -15 41 0 22 -6 38 -15 41 -10 4 -15 20 -15 49 0
26 -6 47 -15 55 -9 7 -15 29 -15 55 0 26 -6 48 -15 55 -11 9 -15 33 -15 92 0
61 -3 80 -15 84 -12 5 -15 28 -15 124 l0 118 -39 31 c-30 24 -42 28 -48 19z"/>
<path d="M2510 3297 c0 -29 -5 -58 -12 -65 -7 -7 -11 -30 -10 -52 2 -29 -2
-42 -13 -46 -11 -4 -15 -20 -15 -56 0 -36 -5 -54 -17 -63 -13 -10 -16 -25 -14
-58 2 -35 -2 -47 -16 -55 -13 -8 -18 -22 -18 -53 l0 -42 -185 2 c-102 1 -207
7 -234 12 -48 9 -66 6 -66 -12 0 -16 407 -419 424 -419 9 0 36 -20 59 -45 24
-25 50 -45 59 -45 8 0 35 -20 60 -45 25 -25 54 -45 64 -45 11 -1 30 -14 44
-30 13 -17 34 -30 46 -30 12 0 24 -7 28 -15 3 -8 16 -15 30 -15 13 0 26 -7 30
-15 3 -8 14 -15 24 -15 10 0 32 -13 48 -30 16 -16 39 -30 50 -30 12 0 24 -7
28 -15 3 -8 16 -15 28 -15 13 0 32 -7 42 -15 11 -8 30 -15 42 -15 12 0 27 -7
34 -15 7 -8 23 -15 35 -15 13 0 25 -7 29 -15 8 -22 198 -22 216 0 8 9 29 15
55 15 29 0 45 5 49 15 4 11 20 15 54 15 32 0 54 5 62 15 7 8 25 15 41 15 l29
0 0 89 c0 66 -4 92 -15 101 -11 9 -15 35 -15 102 0 70 -3 90 -15 94 -10 4 -15
20 -15 49 0 29 -5 45 -15 49 -9 3 -15 18 -15 38 0 27 -12 43 -71 100 -40 37
-80 68 -89 68 -10 0 -23 7 -30 15 -7 8 -17 15 -22 15 -10 0 -31 16 -56 43 -9
9 -26 17 -38 17 -12 0 -27 7 -34 15 -7 8 -18 15 -24 15 -6 0 -33 20 -61 45
-27 25 -57 45 -65 45 -8 1 -26 14 -40 30 -13 17 -32 30 -42 30 -10 0 -44 26
-75 59 -32 32 -76 70 -98 83 -36 23 -215 192 -215 203 0 3 -8 14 -17 25 -30
35 -43 25 -43 -33z m175 -203 c44 -37 96 -81 116 -98 102 -89 285 -220 529
-378 74 -48 83 -60 124 -158 34 -84 56 -200 56 -300 0 -63 -39 -101 -136 -129
-116 -34 -192 -36 -266 -6 -34 14 -65 25 -69 25 -14 0 -202 93 -277 137 -41
24 -75 43 -77 43 -9 0 -178 118 -281 197 -124 95 -276 244 -289 282 -12 40 8
48 133 53 110 4 120 6 154 31 43 33 65 76 79 154 18 99 53 200 77 220 19 16
28 10 127 -73z"/>
<path d="M6529 3234 c-11 -14 -10 -19 7 -33 16 -13 19 -25 16 -62 -4 -46 15
-78 38 -64 16 10 12 101 -5 119 -8 8 -15 19 -15 24 0 5 -6 15 -14 21 -10 9
-17 7 -27 -5z"/>
<path d="M6370 2829 c-19 -5 -129 -8 -245 -8 -202 1 -265 -6 -265 -31 0 -5 -8
-10 -19 -10 -10 0 -24 -7 -31 -15 -7 -8 -21 -15 -32 -15 -10 0 -21 -7 -24 -15
-4 -8 -17 -15 -30 -15 -14 0 -27 -7 -30 -15 -4 -9 -19 -15 -39 -15 -18 0 -38
-7 -45 -15 -7 -8 -21 -15 -31 -15 -10 0 -38 -13 -62 -30 -25 -16 -53 -30 -62
-30 -22 0 -260 -239 -270 -271 -4 -13 -21 -34 -36 -48 -16 -14 -29 -33 -29
-43 0 -9 -13 -32 -30 -50 -16 -18 -30 -40 -30 -50 0 -10 -4 -18 -9 -18 -9 0
-28 -29 -50 -77 -6 -13 -15 -23 -21 -23 -16 0 -12 -46 5 -60 8 -7 15 -21 15
-31 0 -12 7 -19 19 -19 10 0 24 -7 31 -15 17 -20 89 -20 96 0 4 8 18 15 34 15
15 0 33 7 40 15 7 8 25 15 40 15 16 0 30 7 34 15 3 8 17 15 31 15 14 0 28 7
31 15 4 8 17 15 30 15 14 0 27 7 30 15 4 8 17 15 30 15 14 0 27 7 30 15 4 8
17 15 30 15 14 0 27 7 30 15 4 8 16 15 28 15 11 0 34 14 50 30 16 17 37 30 45
30 9 0 24 8 33 18 27 28 46 42 59 42 6 0 32 20 57 45 25 25 53 45 62 45 9 0
27 13 40 30 14 16 33 29 44 30 10 0 47 28 81 63 34 34 73 71 86 83 13 11 48
45 77 75 29 30 61 62 70 71 9 9 29 30 43 45 15 15 50 50 78 77 28 27 51 52 51
57 0 11 -23 10 -70 -2z m-241 -118 c12 -8 12 -14 1 -40 -15 -36 -175 -192
-253 -246 -29 -20 -70 -49 -92 -65 -136 -100 -285 -191 -420 -256 -262 -128
-288 -112 -149 92 147 215 227 287 415 370 55 24 141 65 192 91 50 25 106 49
122 54 43 10 167 10 184 0z"/>
<path d="M3810 1895 c-8 -9 -29 -15 -55 -15 -29 0 -45 -5 -49 -15 -3 -10 -19
-15 -45 -15 -26 0 -41 -5 -45 -15 -4 -11 -17 -15 -48 -13 -37 3 -43 0 -43 -17
0 -16 8 -21 40 -23 22 -2 44 -8 50 -13 5 -5 48 -9 96 -9 54 0 100 -6 122 -15
30 -12 93 -15 342 -15 262 0 306 2 311 15 5 12 26 15 99 15 70 0 97 4 109 15
10 11 36 15 90 15 64 0 77 3 86 19 16 31 12 41 -15 41 -14 0 -28 7 -31 15 -4
8 -12 15 -19 15 -7 0 -18 7 -25 15 -19 23 -951 23 -970 0z"/>
<path d="M0 1610 c0 -34 7 -37 36 -15 10 8 31 15 47 15 17 0 27 5 27 15 0 12
-13 15 -55 15 -54 0 -55 0 -55 -30z"/>
<path d="M678 1623 c17 -2 47 -2 65 0 17 2 3 4 -33 4 -36 0 -50 -2 -32 -4z"/>
<path d="M864 1229 c-21 -17 -51 -33 -66 -36 -47 -9 -34 -33 17 -33 25 0 45
-4 45 -10 0 -6 33 -10 80 -10 91 0 106 15 28 25 -72 10 -83 20 -58 52 40 52
13 59 -46 12z"/>
<path d="M23 1143 c15 -2 37 -2 50 0 12 2 0 4 -28 4 -27 0 -38 -2 -22 -4z"/>
<path d="M1067 1134 c-17 -17 -3 -24 50 -24 34 0 53 4 48 9 -13 12 -89 24 -98
15z"/>
<path d="M3290 1040 c0 -5 12 -10 26 -10 14 0 23 4 19 10 -3 6 -15 10 -26 10
-10 0 -19 -4 -19 -10z"/>
<path d="M3363 1023 c9 -2 25 -2 35 0 9 3 1 5 -18 5 -19 0 -27 -2 -17 -5z"/>
<path d="M1426 491 c-8 -12 -1 -15 49 -26 93 -19 110 -24 113 -34 4 -13 69
-15 77 -2 3 5 -5 13 -17 17 -22 8 -22 8 7 15 17 4 51 7 78 8 26 0 47 6 47 11
0 6 -39 10 -98 10 -55 0 -133 3 -174 6 -52 5 -77 3 -82 -5z"/>
<path d="M0 457 c0 -19 48 -35 140 -45 47 -6 103 -15 125 -21 22 -6 66 -11 98
-11 32 0 67 -5 78 -10 10 -6 63 -15 117 -20 53 -5 120 -13 147 -19 28 -5 88
-10 135 -11 58 0 91 -5 104 -15 15 -11 49 -15 136 -15 87 0 121 -4 136 -15 14
-10 48 -15 124 -15 58 -1 125 -6 150 -12 25 -6 108 -14 185 -18 77 -4 174 -11
215 -14 76 -7 220 -17 515 -36 88 -6 259 -17 380 -24 121 -8 328 -15 460 -16
132 -1 274 -3 315 -5 41 -2 134 -3 205 -2 72 0 199 0 283 -2 112 -2 152 1 152
10 0 8 4 8 13 1 8 -6 85 -7 220 -2 114 4 228 5 252 2 38 -4 50 0 82 24 35 27
46 29 147 34 75 3 111 9 114 17 2 9 -12 13 -50 13 -30 0 -59 5 -65 11 -5 5
-27 12 -48 15 -47 6 -56 11 -48 29 3 8 0 15 -6 15 -6 0 -11 -5 -11 -10 0 -7
-42 -10 -117 -9 -78 1 -119 -3 -121 -10 -5 -15 -922 -16 -922 -1 0 6 -46 10
-119 10 -74 0 -122 4 -126 11 -8 12 -45 -17 -45 -35 0 -8 -28 -11 -82 -11 -46
1 -88 -3 -95 -8 -7 -5 -33 -4 -63 2 -55 12 -70 9 -70 -15 0 -11 21 -14 108
-14 199 -1 427 -11 436 -20 6 -6 4 -12 -5 -15 -43 -16 -1134 14 -1214 34 -22
5 -114 12 -205 15 -91 3 -178 10 -195 15 -16 6 -100 15 -185 21 -85 5 -180 14
-210 19 -30 5 -92 10 -136 10 -48 1 -96 7 -117 16 -25 10 -70 15 -140 15 -57
0 -108 5 -113 10 -6 6 -55 13 -110 16 -54 3 -124 12 -155 20 -31 8 -79 14
-105 14 -27 1 -69 5 -94 11 -25 5 -81 14 -125 19 -174 20 -301 39 -331 48 -47
15 -144 14 -144 -1z"/>
<path d="M1695 400 c3 -5 13 -10 21 -10 8 0 14 5 14 10 0 6 -9 10 -21 10 -11
0 -17 -4 -14 -10z"/>
<path d="M1770 375 c0 -10 10 -15 28 -15 26 1 26 1 8 15 -25 19 -36 19 -36 0z"/>
<path d="M2160 280 c0 -5 18 -10 41 -10 24 0 38 4 34 10 -3 6 -22 10 -41 10
-19 0 -34 -4 -34 -10z"/>
<path d="M2490 250 c0 -6 40 -10 99 -10 56 0 103 4 106 10 4 6 -32 10 -99 10
-64 0 -106 -4 -106 -10z"/>
<path d="M2715 250 c3 -5 26 -10 51 -10 28 0 43 4 39 10 -3 6 -26 10 -51 10
-28 0 -43 -4 -39 -10z"/>
</g>
</svg>
