<?xml version="1.0" standalone="no"?>
<!DOCTYPE svg PUBLIC "-//W3C//DTD SVG 20010904//EN"
 "http://www.w3.org/TR/2001/REC-SVG-20010904/DTD/svg10.dtd">
<svg version="1.0" xmlns="http://www.w3.org/2000/svg"
 width="300.000000pt" height="299.000000pt" viewBox="0 0 300.000000 299.000000"
 preserveAspectRatio="xMidYMid meet">
<metadata>
Created by potrace 1.10, written by Peter Selinger 2001-2011
</metadata>
<g transform="translate(0.000000,299.000000) scale(0.050000,-0.050000)"
fill="#87cefa" stroke="none">
<path d="M1952 5908 c-1159 -209 -1831 -1085 -1885 -2458 -32 -797 90 -1017
673 -1211 595 -198 779 -359 1080 -945 304 -591 451 -779 708 -904 391 -191
875 -217 1276 -68 91 34 224 69 295 79 647 91 1219 670 1513 1532 41 119 92
242 113 272 415 601 274 1482 -383 2395 -187 259 -461 504 -698 622 -74 37
-192 105 -264 150 -727 464 -1673 672 -2428 536z m748 -118 c39 -1 79 -7 90
-13 11 -6 40 -10 65 -8 25 3 45 -4 45 -15 0 -10 22 -13 49 -6 27 7 53 4 59 -5
6 -10 46 -18 89 -18 43 0 90 -7 105 -17 16 -9 50 -20 78 -24 27 -4 61 -16 75
-28 14 -12 32 -16 39 -9 7 7 33 0 59 -17 25 -17 66 -34 91 -39 25 -4 51 -10
56 -12 6 -2 17 -3 25 -1 8 1 15 -8 15 -20 0 -12 13 -17 29 -11 17 6 44 -2 60
-19 17 -17 31 -25 31 -17 0 7 23 -1 51 -20 27 -18 58 -28 67 -22 9 5 33 -8 52
-29 19 -21 42 -35 51 -29 9 5 30 -5 48 -23 17 -17 43 -33 57 -35 43 -7 114
-66 99 -83 -8 -9 -5 -11 7 -4 28 16 170 -60 206 -111 22 -31 31 -34 44 -12 14
21 17 19 18 -7 0 -23 11 -31 30 -23 17 6 35 -3 42 -21 7 -18 23 -31 35 -30 50
6 75 -3 63 -22 -7 -11 6 -20 29 -20 22 0 41 -9 41 -20 0 -11 12 -20 26 -20 15
0 45 -20 68 -45 23 -25 74 -76 114 -113 40 -37 72 -76 72 -86 0 -10 8 -13 18
-7 10 6 23 -3 30 -20 6 -18 22 -25 35 -17 13 8 18 6 10 -6 -7 -12 10 -38 37
-58 28 -21 50 -49 50 -63 0 -14 9 -25 20 -25 11 0 20 -14 20 -31 0 -16 14 -35
30 -42 17 -6 30 -21 30 -33 0 -12 20 -44 45 -71 25 -27 32 -43 15 -35 -27 13
-27 12 0 -12 17 -14 47 -60 68 -101 21 -41 46 -75 56 -75 10 0 13 -9 6 -20 -7
-11 1 -25 17 -32 17 -6 26 -24 20 -39 -6 -16 3 -34 21 -41 17 -7 27 -20 21
-30 -6 -10 -1 -18 11 -18 12 0 17 -9 10 -20 -7 -11 -2 -20 10 -20 12 0 17 -8
11 -19 -7 -10 1 -26 17 -35 15 -9 31 -34 35 -56 4 -22 14 -45 21 -51 8 -6 19
-33 24 -60 5 -27 10 -49 12 -49 2 0 6 -13 11 -30 4 -16 21 -67 37 -113 38
-104 57 -184 56 -242 0 -25 9 -39 20 -32 11 6 5 -12 -14 -41 -19 -28 -25 -52
-14 -52 11 0 25 11 31 25 6 14 11 10 11 -11 1 -20 -8 -55 -20 -78 -16 -30 -16
-37 0 -27 30 18 28 -35 -3 -68 -20 -21 -20 -24 0 -13 32 18 32 -12 0 -47 -20
-21 -20 -24 0 -13 14 8 25 5 25 -7 0 -11 -7 -21 -17 -21 -9 0 -15 -19 -13 -43
2 -23 -13 -92 -34 -153 -20 -61 -32 -115 -27 -120 6 -5 -13 -37 -41 -70 -27
-33 -55 -85 -62 -117 -6 -31 -19 -57 -30 -57 -10 0 -13 -9 -6 -20 7 -11 2 -20
-10 -20 -12 0 -20 -11 -18 -25 6 -37 -52 -158 -68 -142 -8 8 -15 1 -17 -15 -2
-15 -5 -41 -7 -58 -2 -16 -5 -51 -7 -76 -2 -30 -11 -41 -26 -32 -16 10 -20 4
-11 -19 7 -18 5 -33 -4 -33 -9 0 -23 -28 -29 -61 -7 -34 -26 -75 -43 -92 -17
-17 -25 -38 -19 -49 6 -10 2 -18 -10 -18 -11 0 -20 -7 -19 -15 2 -8 1 -22 -2
-30 -7 -22 -15 -53 -17 -72 -2 -9 -23 -28 -48 -41 -25 -13 -29 -19 -10 -13 41
11 -9 -83 -60 -115 -14 -9 -21 -25 -14 -35 6 -10 -2 -13 -19 -7 -23 9 -28 0
-21 -40 7 -35 2 -51 -16 -47 -14 3 -23 -6 -20 -20 3 -14 -2 -24 -10 -23 -40 7
-52 -5 -25 -22 25 -16 24 -19 -6 -20 -20 0 -31 -9 -24 -20 7 -11 -2 -20 -19
-20 -17 0 -31 -11 -31 -25 0 -14 -32 -56 -70 -93 -39 -37 -70 -76 -70 -86 0
-10 -9 -13 -20 -6 -11 7 -20 2 -20 -10 0 -12 -9 -17 -19 -10 -11 6 -31 -7 -45
-29 -14 -23 -37 -41 -51 -41 -14 0 -25 -9 -25 -20 0 -11 -7 -18 -15 -15 -8 3
-17 -4 -19 -14 -3 -20 -85 -60 -111 -54 -8 2 -15 -7 -15 -18 0 -12 -9 -16 -20
-9 -11 7 -20 2 -20 -10 0 -12 -9 -17 -20 -10 -11 7 -20 3 -20 -8 0 -11 -15
-15 -33 -8 -23 9 -29 5 -19 -11 9 -14 0 -23 -23 -23 -20 0 -48 -11 -61 -24
-19 -19 -24 -18 -24 2 0 20 -7 21 -27 5 -14 -12 -62 -27 -105 -31 -106 -13
-148 -23 -232 -58 -40 -17 -78 -25 -85 -18 -7 7 -20 2 -28 -11 -15 -24 -160
-61 -303 -78 -119 -14 -280 -18 -280 -6 0 6 -43 12 -95 13 -84 3 -215 18 -215
26 0 2 -16 7 -35 12 -19 4 -51 12 -70 16 -19 5 -41 10 -49 10 -7 1 -27 16 -45
33 -23 24 -31 25 -31 5 -1 -19 -6 -18 -20 4 -10 17 -28 30 -38 30 -11 0 -40
14 -64 30 -108 75 -137 105 -125 125 8 12 4 15 -10 7 -14 -9 -37 9 -58 47 -19
33 -42 61 -51 61 -9 0 -11 9 -4 20 7 11 3 20 -9 20 -11 0 -21 14 -21 31 0 17
-8 26 -18 20 -9 -6 -23 5 -30 24 -6 19 -33 73 -59 118 -36 62 -42 90 -26 107
17 17 14 19 -11 10 -35 -14 -108 91 -82 117 7 7 2 13 -12 13 -13 0 -19 9 -12
20 7 11 2 20 -10 20 -12 0 -17 9 -10 20 7 11 4 20 -6 20 -17 0 -43 57 -51 110
-2 11 -24 41 -50 67 -25 25 -41 59 -35 74 6 16 1 26 -11 24 -12 -3 -24 12 -28
32 -3 20 -25 50 -48 66 -23 17 -37 38 -31 47 6 10 -7 28 -30 40 -23 12 -35 32
-27 44 8 13 4 17 -9 8 -13 -8 -36 12 -54 48 -17 34 -40 56 -51 50 -10 -7 -13
3 -5 22 9 26 5 32 -17 23 -16 -6 -39 4 -51 22 -11 19 -62 55 -113 82 -51 26
-93 55 -93 64 0 9 -20 17 -43 17 -24 0 -61 16 -82 34 -21 19 -67 45 -102 56
-36 13 -60 34 -57 49 5 21 0 22 -21 6 -16 -14 -37 -16 -55 -5 -15 9 -35 13
-44 7 -9 -5 -16 0 -16 12 0 11 -7 20 -15 19 -47 -8 -106 5 -129 29 -14 14 -38
22 -51 18 -14 -5 -25 1 -25 13 0 12 -17 22 -39 22 -21 0 -52 14 -69 31 -17 17
-35 30 -41 30 -33 0 -71 27 -71 50 0 15 -19 38 -42 50 -24 13 -37 34 -30 52 6
16 3 24 -7 18 -15 -10 -43 38 -39 69 0 6 -10 37 -23 70 -33 84 -45 409 -16
444 18 22 15 24 -15 13 -33 -13 -34 -10 -12 17 18 22 19 37 5 46 -12 7 -15 23
-7 36 22 34 24 133 3 146 -10 6 -12 20 -5 30 6 11 16 58 21 104 6 46 18 88 27
94 10 6 10 23 1 39 -22 35 -4 85 24 68 13 -8 15 -4 6 11 -25 41 9 182 46 184
28 2 27 4 -3 12 -34 9 -34 13 -4 59 18 28 28 62 23 77 -6 15 2 32 18 38 16 6
23 23 17 39 -6 16 -1 35 11 42 11 7 21 38 21 68 0 30 9 64 20 75 12 12 25 42
30 68 5 26 27 86 50 134 22 47 40 95 40 107 0 12 8 16 19 10 17 -11 46 45 36
71 -3 6 7 27 22 45 16 18 20 33 10 33 -9 0 4 12 31 25 26 14 46 32 45 40 -1 8
18 36 42 64 25 27 68 75 95 107 28 32 57 55 65 50 8 -5 15 6 15 23 0 17 13 31
28 31 15 0 33 14 39 30 7 17 26 30 42 30 17 0 31 10 31 21 0 12 9 16 20 9 11
-7 25 1 32 17 7 18 24 25 43 18 20 -7 27 -4 18 10 -7 12 11 31 42 43 30 12 86
41 125 64 38 24 91 45 117 48 26 3 55 16 63 30 9 14 26 19 38 11 12 -7 22 -2
22 13 1 21 4 21 18 -1 14 -22 18 -22 27 1 6 15 40 29 77 32 36 3 71 12 77 20
17 24 125 66 111 44 -7 -11 -3 -20 8 -20 11 0 24 8 30 17 6 10 34 15 62 12 27
-3 50 2 50 10 0 9 18 21 40 27 22 6 35 2 29 -8 -6 -10 -2 -18 9 -18 11 0 24 8
30 17 6 9 97 16 203 15 106 -2 197 4 202 13 5 9 20 9 33 1 13 -8 56 -15 94
-16z"/>
</g>
</svg>
