<?xml version="1.0" standalone="no"?>
<!DOCTYPE svg PUBLIC "-//W3C//DTD SVG 20010904//EN"
 "http://www.w3.org/TR/2001/REC-SVG-20010904/DTD/svg10.dtd">
<svg version="1.0" xmlns="http://www.w3.org/2000/svg"
 width="300.000000pt" height="200.000000pt" viewBox="0 0 300.000000 200.000000"
 preserveAspectRatio="xMidYMid meet">
<metadata>
Created by potrace 1.10, written by Peter Selinger 2001-2011
</metadata>
<g transform="translate(0.000000,200.000000) scale(0.100000,-0.100000)"
fill="#191970" stroke="none">
<path d="M2382 1978 c1 -13 1 -44 0 -70 -2 -41 -5 -48 -22 -48 -17 0 -20 7
-20 41 0 24 -4 38 -10 34 -5 -3 -10 -22 -10 -41 0 -24 -5 -34 -15 -34 -8 0
-15 -4 -15 -10 0 -5 20 -10 44 -10 l44 0 10 -72 9 -73 2 128 1 127 51 0 c35 0
48 3 43 12 -5 8 30 9 142 3 82 -4 187 -8 234 -9 83 -1 85 -2 82 -24 -2 -13 4
-32 14 -43 19 -21 34 -25 34 -9 0 6 -7 10 -15 10 -11 0 -15 12 -15 48 l0 47
-278 3 c-152 2 -285 6 -294 8 -13 4 -17 -1 -16 -18z m61 -5 c-7 -2 -19 -2 -25
0 -7 3 -2 5 12 5 14 0 19 -2 13 -5z"/>
<path d="M2495 1920 c-3 -11 -2 -28 4 -37 8 -15 10 -11 11 20 0 41 -5 47 -15
17z"/>
<path d="M2425 1910 c-4 -6 5 -10 20 -10 15 0 24 4 20 10 -3 6 -12 10 -20 10
-8 0 -17 -4 -20 -10z"/>
<path d="M2770 1880 c0 -5 7 -10 16 -10 8 0 12 5 9 10 -3 6 -10 10 -16 10 -5
0 -9 -4 -9 -10z"/>
<path d="M2862 1878 c6 -18 48 -21 48 -3 0 9 -10 15 -26 15 -15 0 -24 -5 -22
-12z"/>
<path d="M1461 1844 c-17 -14 -31 -30 -31 -34 0 -5 -11 -20 -24 -33 -26 -26
-44 -103 -29 -118 11 -11 43 -1 43 13 0 6 -9 8 -20 5 -23 -6 -24 -3 -10 24 6
10 20 19 31 19 19 0 21 -4 15 -37 -12 -68 -16 -75 -32 -62 -11 9 -14 8 -14 -4
0 -8 6 -20 14 -26 15 -12 24 5 43 84 6 22 14 49 18 60 8 18 7 19 -9 6 -15 -13
-19 -13 -27 0 -12 20 -12 23 11 37 20 12 27 5 13 -14 -5 -5 3 1 16 13 21 18
22 24 11 37 -13 17 -3 21 18 7 9 -5 14 -36 15 -99 1 -51 6 -92 10 -92 5 0 6
28 3 63 -8 78 9 46 24 -47 9 -57 8 -69 -11 -107 l-20 -44 5 45 c2 24 10 46 15
48 18 6 12 21 -8 19 -10 0 -17 -6 -15 -12 2 -5 0 -32 -5 -60 l-9 -50 -1 53
c-1 49 -3 53 -21 47 -17 -6 -20 -2 -20 30 0 20 3 34 8 32 4 -3 8 11 10 31 2
37 2 37 -14 14 -12 -18 -15 -40 -12 -92 2 -38 1 -68 -2 -67 -3 1 -16 -5 -28
-12 -23 -12 -24 -12 -17 19 5 21 4 30 -3 26 -12 -7 -22 16 -22 54 0 15 -7 30
-15 34 -11 4 -14 -1 -11 -22 1 -15 8 -37 14 -49 7 -12 12 -37 12 -56 l0 -34
60 -6 c34 -3 67 -10 74 -16 11 -9 15 -6 21 11 7 20 9 18 12 -14 5 -44 26 -54
99 -45 24 2 47 1 50 -4 3 -5 13 -8 21 -7 9 2 18 -3 20 -9 3 -7 -1 -13 -8 -13
-22 0 64 -40 96 -45 17 -2 53 -11 80 -19 28 -9 87 -17 130 -19 57 -2 94 -10
128 -26 27 -12 51 -20 54 -17 3 3 -4 9 -16 14 -12 4 -32 26 -44 47 -18 31 -35
45 -77 62 -30 12 -49 23 -42 23 16 0 15 18 -3 36 -8 9 -15 24 -15 35 0 28 -26
75 -45 83 -37 14 -94 6 -115 -16 l-20 -22 6 62 c5 47 4 62 -6 62 -9 0 -11 -10
-7 -35 5 -32 4 -35 -19 -35 -13 0 -24 -4 -24 -10 0 -5 9 -10 20 -10 25 0 26
-15 3 -30 -17 -10 -16 -10 2 -8 43 6 17 -109 -30 -130 -35 -16 -35 -16 -29 17
4 21 2 29 -7 28 -69 -3 -179 5 -179 13 0 6 45 10 116 10 113 0 115 0 112 22
-4 29 -28 35 -35 9 -6 -24 -23 -28 -23 -5 0 14 -2 14 -16 -1 -13 -13 -32 -15
-88 -12 -47 3 -70 8 -69 15 2 7 -2 12 -7 12 -16 0 -11 21 15 75 14 28 21 51
16 53 -4 1 -6 25 -3 52 3 35 0 57 -12 74 -9 14 -16 34 -16 44 0 24 -37 72 -55
72 -7 0 -27 -12 -44 -26z m-4 -36 c-3 -8 -6 -5 -6 6 -1 11 2 17 5 13 3 -3 4
-12 1 -19z m83 -18 c0 -11 9 -43 20 -71 15 -36 18 -55 10 -63 -7 -7 -10 -3
-10 15 0 13 -9 44 -20 68 -21 46 -26 86 -10 76 6 -3 10 -15 10 -25z m-54 -237
c-10 -10 -19 5 -10 18 6 11 8 11 12 0 2 -7 1 -15 -2 -18z m4 -34 c0 -11 -4
-17 -10 -14 -5 3 -10 13 -10 21 0 8 5 14 10 14 6 0 10 -9 10 -21z m491 -10
c16 -13 20 -22 12 -25 -9 -4 -7 -12 7 -27 14 -14 17 -24 10 -31 -5 -5 -10 -14
-10 -20 0 -5 2 -7 5 -4 3 3 16 -4 29 -15 25 -22 24 -62 0 -53 -8 3 -14 0 -14
-6 0 -6 -3 -8 -7 -5 -3 4 2 15 11 26 11 12 14 21 7 26 -6 3 -19 -8 -29 -24
-20 -33 -38 -32 -21 0 7 13 6 19 -1 19 -6 0 -14 -9 -18 -20 -9 -24 -32 -12
-35 18 -1 22 -17 32 -17 11 0 -6 -7 -9 -15 -5 -13 4 -14 2 -5 -14 7 -13 7 -20
1 -20 -6 0 -16 10 -22 22 -8 14 -14 18 -17 10 -2 -6 -8 -12 -14 -12 -6 0 -3 9
7 20 10 12 25 18 33 15 9 -3 12 0 9 9 -3 7 0 20 6 27 7 8 0 4 -14 -9 -14 -12
-29 -19 -32 -15 -11 11 -8 23 7 23 18 0 41 28 31 38 -4 4 -10 1 -12 -6 -4 -10
-9 -8 -19 5 -20 26 -18 31 19 47 46 21 81 19 108 -5z m-153 -133 c-16 -31 -18
-32 -18 -4 0 15 6 25 14 25 12 0 13 -5 4 -21z"/>
<path d="M1936 1498 c5 -8 2 -9 -9 -5 -22 8 -21 1 3 -23 21 -21 40 -19 40 3 0
8 -3 8 -9 -2 -7 -10 -10 -10 -16 -1 -4 7 -2 16 5 20 8 5 7 9 -5 13 -11 5 -14
3 -9 -5z"/>
<path d="M1855 1490 c-3 -5 -2 -10 4 -10 5 0 13 5 16 10 3 6 2 10 -4 10 -5 0
-13 -4 -16 -10z"/>
<path d="M1920 1437 c0 -14 53 -57 69 -57 13 0 13 2 2 9 -7 5 -10 14 -7 20 5
7 -2 11 -16 11 -13 0 -29 5 -36 12 -7 7 -12 9 -12 5z"/>
<path d="M2414 1849 c-3 -5 2 -9 11 -9 13 0 15 -11 12 -65 -2 -36 0 -65 5 -65
4 0 8 15 8 33 0 43 10 78 21 71 5 -2 6 -18 2 -34 -3 -18 -1 -30 5 -30 6 0 12
25 14 55 2 43 0 52 -8 40 -12 -16 -29 -21 -20 -6 3 5 -6 11 -19 14 -14 2 -28
0 -31 -4z"/>
<path d="M2986 1833 c-3 -10 -7 -83 -10 -163 -3 -80 -8 -208 -11 -286 -6 -132
-5 -141 15 -159 18 -16 20 -16 20 -2 0 10 -4 17 -8 17 -4 0 -8 16 -9 35 -1 19
2 35 5 35 4 0 8 122 9 270 2 149 1 270 -1 270 -3 0 -7 -8 -10 -17z"/>
<path d="M2656 1808 c-8 -49 -6 -147 4 -153 5 -3 10 38 12 90 3 94 -4 125 -16
63z"/>
<path d="M784 1734 c-47 -48 -82 -76 -105 -82 -24 -6 20 -9 149 -9 181 0 182
0 152 18 -16 10 -30 23 -30 28 0 5 -18 31 -40 56 -22 25 -40 50 -40 56 0 18
-16 6 -86 -67z m87 19 c12 -15 12 -16 -4 -10 -10 4 -23 7 -28 7 -6 0 -7 5 -4
10 9 15 21 12 36 -7z m31 -50 c22 -14 35 -29 29 -32 -5 -3 -46 -5 -91 -3 l-82
4 29 29 c35 36 66 36 115 2z"/>
<path d="M2275 1734 c-6 -67 -3 -96 9 -83 10 10 18 159 8 159 -5 0 -13 -34
-17 -76z"/>
<path d="M2320 1736 c0 -31 5 -56 10 -56 6 0 10 12 10 28 0 21 2 24 10 12 7
-11 10 -7 10 18 0 17 1 35 3 40 1 4 -8 8 -20 10 -22 3 -23 0 -23 -52z"/>
<path d="M1481 1754 c0 -11 3 -14 6 -6 3 7 2 16 -1 19 -3 4 -6 -2 -5 -13z"/>
<path d="M2726 1763 c-2 -2 -2 -22 0 -45 2 -26 -2 -51 -11 -65 -16 -24 -22
-179 -7 -198 11 -16 90 -75 99 -75 4 0 -1 7 -12 16 -16 12 -20 25 -18 69 2 54
2 54 -30 57 -28 3 -32 7 -32 33 0 27 3 30 33 30 l32 0 0 82 c0 46 -1 86 -2 90
-3 7 -46 11 -52 6z m34 -90 c0 -36 -3 -63 -7 -59 -10 10 -11 126 -1 126 5 0 8
-30 8 -67z m-8 -215 c-6 -6 -16 -7 -22 -3 -9 6 -9 9 1 16 17 10 34 0 21 -13z"/>
<path d="M978 1726 c-16 -22 -16 -24 12 -44 38 -29 138 -82 152 -82 7 0 -6 13
-28 29 -21 17 -55 50 -74 75 -19 25 -37 45 -40 45 -3 0 -13 -10 -22 -23z"/>
<path d="M2493 1728 c7 -19 -27 -44 -52 -39 -13 2 -13 1 0 -15 13 -16 12 -16
-10 -5 -19 11 -25 11 -32 0 -5 -8 -9 -17 -9 -21 0 -4 -14 -2 -30 4 -25 8 -36
6 -66 -11 -19 -12 -44 -21 -56 -21 -11 0 -41 -20 -65 -45 -43 -43 -45 -46 -37
-87 4 -24 7 -51 6 -60 0 -10 2 -18 6 -18 4 0 14 -21 21 -46 8 -25 25 -59 38
-74 13 -16 24 -32 24 -35 -2 -16 1 -15 19 8 11 14 20 34 20 44 0 23 31 54 77
77 21 11 30 21 27 31 -5 13 -8 13 -21 0 -18 -19 -39 -9 -22 11 6 8 17 14 25
14 17 0 28 38 15 53 -6 8 -6 18 -1 27 6 8 10 27 10 42 0 23 7 29 53 43 28 10
56 21 62 26 14 13 27 11 19 -3 -6 -10 -4 -10 7 0 19 18 65 15 85 -5 16 -17 16
-18 1 -21 -9 -2 -17 -8 -17 -13 0 -6 -8 -9 -17 -8 -35 3 -47 -1 -37 -11 7 -7
19 -8 36 -1 35 13 39 6 23 -45 -7 -24 -11 -44 -9 -44 1 0 15 5 29 12 25 11 32
28 18 42 -4 4 -6 22 -4 41 3 36 -35 119 -51 109 -12 -8 -10 10 4 24 9 9 8 12
-8 12 -11 0 -26 -6 -33 -12 -10 -11 -17 -8 -33 12 -13 15 -19 18 -15 8z m54
-55 c2 -6 -4 -13 -13 -17 -14 -5 -15 -4 -4 9 11 13 9 15 -14 15 -15 0 -25 4
-21 10 7 11 47 -2 52 -17z m-42 -13 c-7 -12 -45 -14 -45 -2 0 4 11 9 26 10 14
1 23 -2 19 -8z m-80 -9 c3 -5 1 -12 -5 -16 -5 -3 -10 1 -10 9 0 18 6 21 15 7z
m-55 -21 c0 -5 3 -15 6 -24 4 -11 1 -16 -10 -16 -13 0 -14 -4 -4 -25 9 -19 8
-29 -5 -49 -9 -14 -14 -32 -11 -40 6 -15 -7 -21 -31 -16 -37 8 -55 10 -55 6 0
-3 14 -19 32 -35 l32 -30 -23 -25 c-13 -13 -29 -22 -37 -19 -10 4 -14 -3 -14
-25 0 -37 -13 -48 -31 -25 -10 12 -10 14 -1 9 7 -4 12 -1 12 8 0 9 -6 16 -14
16 -14 0 -26 21 -26 46 0 10 5 12 13 8 8 -6 8 -3 -1 9 -8 9 -19 15 -24 14 -6
-1 -13 4 -15 11 -7 20 46 15 55 -5 10 -26 32 -27 32 -2 0 14 -5 19 -14 16 -8
-3 -21 4 -30 18 -16 24 -16 24 17 20 19 -2 46 4 67 15 26 15 29 19 13 17 -12
-2 -26 -6 -29 -10 -4 -4 -22 -7 -41 -7 -23 0 -33 5 -33 16 0 9 5 13 13 9 6 -4
3 1 -7 9 -13 11 -23 13 -30 6 -5 -5 -14 -10 -20 -10 -12 0 33 49 58 62 30 16
86 21 86 8 0 -6 4 -9 9 -6 5 4 12 0 14 -6 4 -9 6 -8 6 2 1 8 -9 22 -21 29
l-23 15 25 6 c39 9 60 10 60 0z m-180 -131 c0 -5 -9 -9 -20 -9 -11 0 -20 4
-20 8 0 4 9 8 20 9 11 1 20 -2 20 -8z"/>
<path d="M2225 1570 c-4 -6 -3 -9 2 -8 8 3 13 -5 13 -23 0 -5 -4 -7 -10 -4
-16 10 -12 -1 6 -15 8 -8 14 -9 13 -4 -4 23 2 36 15 31 8 -3 17 1 20 10 8 21
-3 31 -14 13 -7 -11 -11 -11 -23 -1 -11 8 -17 9 -22 1z"/>
<path d="M2345 1540 c3 -5 8 -10 11 -10 2 0 4 5 4 10 0 6 -5 10 -11 10 -5 0
-7 -4 -4 -10z"/>
<path d="M2515 1731 c-3 -5 -1 -12 5 -16 5 -3 10 1 10 9 0 18 -6 21 -15 7z"/>
<path d="M496 1721 c-3 -5 -15 -7 -26 -4 -14 4 -20 0 -20 -11 0 -9 -5 -15 -11
-13 -13 2 -37 -57 -38 -93 0 -22 1 -23 12 -8 9 11 18 13 29 7 14 -8 16 -5 13
12 -2 11 -9 27 -15 33 -5 7 -7 16 -3 19 11 12 21 8 26 -10 2 -10 3 -6 1 10 -4
30 7 35 26 12 10 -12 16 -13 26 -4 11 9 14 8 14 0 0 -7 7 -19 15 -28 14 -14
15 -13 10 10 -4 14 -3 27 2 30 5 3 9 -3 9 -15 -1 -12 5 -23 13 -26 9 -3 11 0
6 9 -7 12 -6 12 6 0 11 -10 11 -15 2 -18 -7 -3 -13 -9 -13 -14 0 -6 4 -8 9 -4
18 11 22 -34 5 -60 -10 -15 -12 -25 -5 -25 8 0 8 -6 2 -17 -5 -10 -12 -26 -15
-35 -3 -10 -10 -18 -15 -18 -13 0 -4 42 11 51 21 13 3 19 -30 9 -18 -5 -30 -5
-27 0 9 14 -6 40 -24 40 -14 1 -14 2 2 11 9 5 23 7 30 3 9 -6 9 -5 0 8 -7 8
-12 17 -10 19 1 2 -3 -1 -9 -8 -6 -7 -18 -13 -27 -13 -10 0 -14 -5 -11 -15 4
-8 12 -15 19 -15 29 0 26 -23 -5 -50 -47 -40 -34 -59 14 -21 57 45 76 39 36
-12 -11 -14 -20 -34 -20 -44 0 -33 -11 -33 -37 -2 -15 17 -34 29 -49 29 -29 0
-31 11 -4 35 24 22 26 35 4 35 -8 0 -12 -4 -9 -10 3 -5 -6 -22 -20 -36 -30
-30 -26 -36 38 -56 25 -7 42 -20 48 -35 11 -30 49 -71 79 -86 36 -19 49 -46
28 -61 -22 -16 -22 -23 -2 -44 12 -11 13 -17 5 -20 -9 -3 -9 -8 1 -19 10 -12
9 -17 -5 -28 -9 -6 -14 -15 -10 -19 4 -4 0 -4 -10 0 -10 3 -17 1 -17 -5 0 -6
6 -11 13 -11 8 0 19 -11 25 -25 8 -17 8 -25 1 -25 -6 0 -7 -4 -4 -10 3 -5 1
-10 -6 -10 -8 0 -9 -3 0 -13 15 -19 4 -27 -36 -27 -22 0 -33 -5 -33 -14 0 -8
-14 -17 -32 -21 -18 -3 -42 -11 -54 -16 -23 -12 -94 11 -94 30 0 14 17 14 25
1 7 -12 91 -12 120 -1 15 6 7 9 -30 13 -40 5 -55 13 -82 42 -32 34 -42 56 -25
56 4 0 18 -16 30 -35 26 -38 74 -59 119 -51 15 2 41 5 57 5 28 1 28 2 11 15
-10 7 -26 11 -36 9 -25 -7 -44 60 -35 121 8 49 20 59 31 25 4 -11 9 -19 11
-16 2 2 -1 18 -7 36 -8 24 -8 35 1 46 7 9 10 18 7 22 -8 7 -48 -60 -64 -106
-9 -25 -9 -39 -1 -48 7 -9 7 -13 -1 -13 -8 0 -7 -7 3 -22 23 -32 20 -47 -9
-54 -26 -6 -65 17 -65 39 0 6 10 1 23 -11 20 -19 26 -20 42 -9 14 11 15 16 5
22 -9 5 -11 4 -6 -3 4 -7 1 -12 -8 -12 -8 0 -18 5 -21 10 -3 6 -1 10 4 10 6 0
11 5 11 11 0 7 -5 8 -12 3 -22 -15 -53 -10 -56 9 -3 16 -1 17 20 7 17 -10 20
-10 12 -1 -6 7 -19 14 -29 15 -10 1 -22 12 -26 24 -11 28 -9 28 44 -8 48 -32
66 -38 48 -17 -8 10 -7 17 1 25 8 8 1 17 -26 33 -20 12 -41 29 -46 39 -13 24
-13 33 1 24 7 -4 7 1 -1 16 -7 12 -21 25 -31 27 -10 3 -19 10 -19 15 0 5 -4 6
-10 3 -5 -3 -10 -3 -10 2 0 4 -4 14 -9 22 -8 12 -12 12 -26 -2 -17 -18 -45
-23 -45 -8 0 5 7 14 15 21 8 7 15 18 15 24 0 6 -5 3 -11 -6 -12 -22 -29 -23
-29 -3 0 9 -7 18 -15 21 -13 5 -13 9 -3 22 11 13 10 14 -2 10 -15 -5 -34 -99
-25 -125 3 -10 -17 -23 -75 -47 -17 -7 21 -1 60 9 l25 7 -27 -25 c-21 -20 -24
-26 -13 -31 8 -3 15 -13 15 -22 0 -10 -5 -14 -16 -10 -8 3 -12 2 -9 -4 3 -6 0
-10 -8 -10 -10 0 -13 8 -9 25 2 14 0 25 -6 25 -6 0 -8 -9 -5 -19 4 -17 1 -19
-36 -14 -27 4 -41 2 -41 -6 0 -6 13 -11 29 -11 15 0 41 -10 57 -22 23 -18 27
-19 21 -5 -4 11 -2 17 8 17 8 0 19 8 24 18 8 12 10 13 11 3 0 -8 -6 -22 -14
-30 -13 -14 -11 -20 10 -44 20 -23 24 -25 24 -10 0 11 -5 24 -12 31 -7 7 -8
12 -2 12 6 0 9 50 8 127 -2 113 -1 126 12 109 17 -24 19 -80 2 -70 -8 5 -9 0
-4 -17 15 -52 17 -86 8 -125 -15 -66 38 -205 116 -304 l36 -45 -44 40 c-41 38
-42 39 -21 8 12 -18 26 -35 32 -38 5 -4 6 -11 3 -17 -4 -6 -2 -8 3 -5 6 4 28
-11 49 -33 26 -26 48 -40 64 -40 23 1 22 2 -9 15 -34 15 -78 63 -73 79 2 5 -8
21 -21 35 -34 37 -70 91 -64 97 2 2 28 -11 58 -31 29 -19 59 -35 66 -35 6 0
28 -16 49 -35 47 -45 58 -45 15 -1 -19 19 -61 49 -95 67 -76 41 -113 67 -121
88 -4 10 5 6 22 -10 38 -34 82 -61 91 -55 5 3 26 1 48 -4 21 -4 56 -11 77 -14
20 -4 37 -11 37 -16 0 -5 -14 -5 -32 0 -59 15 -114 20 -98 10 8 -5 26 -10 40
-10 14 -1 42 -7 63 -14 34 -13 37 -12 37 5 0 24 -25 35 -114 49 -38 6 -81 17
-95 25 -31 16 -67 53 -58 61 3 3 10 -4 17 -15 6 -12 16 -21 22 -21 6 0 3 9 -7
20 -13 14 -16 29 -11 57 8 57 10 132 3 140 -21 20 14 73 48 73 18 0 19 -5 3
-33 -6 -12 -13 -71 -15 -132 -1 -60 -5 -115 -7 -122 -9 -24 126 -59 136 -35 2
5 16 12 31 16 25 6 29 3 42 -28 8 -20 15 -45 15 -56 0 -12 3 -19 8 -17 4 3 8
-41 8 -96 1 -56 -1 -82 -3 -58 -2 26 -11 50 -21 58 -23 17 -85 17 -79 1 2 -8
15 -12 31 -10 26 3 56 -12 56 -28 0 -4 -10 -11 -22 -14 -22 -7 -22 -7 -3 -16
13 -6 -14 -9 -80 -9 -55 -1 -111 -4 -125 -7 -18 -4 -21 -3 -11 4 10 7 5 11
-20 14 -19 3 -40 7 -48 9 -25 7 -22 -17 3 -29 30 -14 269 -27 318 -18 l34 6
-7 53 c-4 28 -8 75 -8 104 -1 48 1 52 30 62 23 8 30 15 25 27 -3 8 -6 31 -6
50 0 34 -1 35 -22 20 -25 -18 -78 -22 -78 -6 0 6 12 10 26 10 33 0 64 17 64
35 0 8 -4 15 -10 15 -5 0 -7 7 -3 16 3 8 9 12 14 7 15 -15 47 -128 38 -131
-15 -6 -10 -22 6 -22 9 0 20 10 25 23 6 16 9 17 9 5 1 -23 -28 -50 -46 -44 -9
4 -13 1 -11 -6 3 -7 16 -14 30 -16 22 -3 27 2 32 25 4 16 5 46 2 66 -5 41 -2
44 21 21 13 -13 15 -32 9 -116 -4 -56 -12 -110 -17 -121 -14 -25 -7 -30 24
-18 20 8 24 15 20 32 -5 17 -3 21 9 16 9 -3 21 0 27 6 17 17 14 -32 -4 -63
-21 -36 -18 -41 13 -27 107 47 134 97 52 97 -60 0 -60 1 -25 115 27 85 32 145
14 145 -7 0 -9 -11 -5 -30 5 -25 2 -30 -14 -30 -16 0 -20 7 -20 38 0 50 19 77
48 68 47 -15 57 -98 24 -198 l-19 -58 21 0 c28 0 48 -60 34 -101 -5 -16 -14
-29 -20 -29 -5 0 -6 -4 -3 -10 5 -8 27 -7 91 5 20 4 40 -10 77 -54 17 -21 17
-22 -17 -36 -20 -8 -40 -15 -46 -15 -5 0 -10 -5 -10 -11 0 -10 20 -8 73 7 15
5 18 1 15 -18 -3 -20 -9 -23 -48 -24 -63 -1 -107 -13 -114 -30 -5 -12 -1 -12
24 1 74 38 171 -9 114 -55 -17 -15 -41 -56 -27 -47 5 3 15 1 23 -4 10 -6 -1
-9 -35 -8 -27 1 -95 -1 -150 -4 -67 -4 -89 -3 -65 3 30 8 28 9 -20 5 -48 -3
-52 -2 -29 8 l26 12 -30 25 -30 24 18 -27 c17 -27 17 -27 -6 -27 -20 0 -21 2
-9 10 11 8 9 9 -11 5 -17 -4 -32 -1 -42 9 -8 9 -22 16 -29 16 -8 0 -9 3 -2 8
6 4 14 15 17 26 6 14 3 17 -8 12 -8 -3 -15 -1 -15 4 0 5 10 12 23 16 21 7 21
7 2 15 -11 4 -23 8 -27 8 -5 1 -8 -84 -8 -189 0 -120 4 -190 10 -190 6 0 10
-4 10 -9 0 -4 -10 -6 -22 -4 -13 2 -68 -6 -123 -19 -61 -15 -111 -21 -127 -17
-45 12 -104 -9 -83 -29 3 -3 11 0 16 8 8 11 9 8 4 -14 -4 -21 -1 -33 14 -48
21 -19 21 -19 21 4 0 34 11 68 21 68 5 0 9 -7 9 -15 0 -12 4 -13 19 -5 32 17
71 13 71 -7 0 -15 2 -16 10 -3 8 12 10 10 11 -10 1 -14 2 -31 2 -37 -1 -7 5
-13 13 -13 10 0 14 15 14 55 0 30 5 55 10 55 6 0 10 -3 10 -7 0 -5 11 -13 25
-20 28 -13 33 -6 8 12 -11 8 -13 14 -5 19 7 4 12 2 12 -5 0 -8 5 -7 16 2 9 8
27 12 40 11 15 -2 24 3 28 15 3 10 4 -9 2 -42 -2 -33 -7 -68 -11 -78 -4 -10
-3 -17 4 -17 6 0 13 12 16 28 12 56 22 77 36 73 8 -2 28 -4 44 -6 24 -2 31 -7
33 -29 2 -15 -2 -34 -9 -42 -6 -8 -9 -17 -5 -21 9 -9 32 26 45 69 8 27 16 36
27 31 9 -3 11 -10 6 -17 -18 -22 -22 -45 -7 -40 8 3 11 12 8 20 -3 9 2 14 15
14 11 0 23 7 26 16 8 22 9 22 -19 16 -14 -2 -25 0 -25 4 0 5 -24 7 -54 6 -55
-4 -91 8 -133 45 -19 16 -20 24 -12 63 4 25 8 75 9 111 l0 66 38 -18 c20 -10
62 -22 92 -27 l55 -8 -3 -69 c-3 -81 -16 -113 -52 -127 -16 -7 -20 -12 -12
-15 8 -3 29 3 47 13 29 15 33 23 39 71 3 29 4 70 0 91 l-6 37 110 -3 109 -4 6
34 c3 18 11 59 16 91 6 32 18 76 27 97 15 34 23 40 66 50 27 7 65 9 86 5 20
-4 93 -11 161 -15 119 -7 186 1 208 24 4 5 -2 5 -14 2 -30 -10 -87 -9 -149 2
-28 5 -59 5 -70 1 -28 -11 -115 -10 -89 1 17 7 16 9 -10 11 -16 1 -56 1 -87 0
-44 -1 -58 2 -58 13 0 8 6 17 13 19 7 3 5 6 -5 6 -14 1 -18 -7 -18 -34 0 -28
-4 -35 -20 -35 -21 0 -28 24 -10 35 6 3 7 -1 4 -9 -3 -9 -1 -16 5 -16 6 0 11
17 11 38 0 20 9 57 20 81 11 24 20 49 20 56 0 20 115 31 138 14 15 -13 16 -12
3 4 -7 9 -28 18 -45 18 -29 1 -28 2 9 9 22 5 49 6 60 4 14 -4 16 -3 7 4 -9 6
25 10 95 12 150 3 152 4 144 15 -4 6 3 28 15 50 13 22 24 34 24 27 0 -7 6 -12
13 -11 46 6 50 -6 65 -188 5 -57 11 -105 14 -108 3 -3 12 -3 20 0 18 7 32 100
19 123 -5 8 -5 31 0 51 5 20 7 65 4 101 -5 82 1 61 18 -56 8 -54 10 -101 5
-114 -17 -46 0 -29 41 39 42 71 48 87 31 76 -5 -3 -10 0 -11 7 0 7 -8 -6 -17
-29 -9 -23 -20 -44 -23 -47 -9 -9 -3 94 6 119 8 20 8 20 -9 0 -17 -20 -17 -19
-12 10 3 17 8 41 12 55 5 17 3 22 -4 15 -5 -5 -12 -19 -15 -30 -3 -15 -5 -13
-6 8 0 15 4 36 9 47 6 11 15 29 20 40 6 11 10 30 9 42 -1 21 -2 20 -14 -7 -8
-16 -14 -23 -15 -16 0 17 -49 71 -63 71 -6 0 2 -11 17 -25 15 -14 25 -29 22
-34 -3 -5 1 -14 9 -21 14 -12 11 -34 -9 -59 -6 -7 -18 -34 -27 -59 -8 -25 -22
-48 -30 -51 -12 -4 -12 -2 -1 12 12 14 9 19 -20 37 -49 30 -74 26 -93 -15 -21
-42 -60 -57 -151 -56 -76 0 -85 5 -171 89 -35 33 -63 56 -63 51 0 -4 5 -11 11
-15 6 -3 8 -17 5 -29 -6 -24 9 -45 16 -23 3 7 14 3 31 -12 32 -28 36 -45 7
-30 -11 6 -25 8 -31 4 -17 -10 11 -24 51 -24 19 0 42 -5 50 -10 12 -8 9 -10
-12 -10 -27 0 -134 -35 -153 -50 -7 -6 -10 37 -11 123 0 100 -4 141 -17 170
-9 21 -14 45 -11 55 5 13 4 14 -4 3 -7 -9 -11 -10 -17 -2 -3 7 -24 23 -46 37
-23 14 -37 29 -33 36 4 7 13 2 25 -13 19 -25 36 -21 25 6 -5 14 -43 34 -76 39
-8 2 -14 6 -12 9 1 4 2 12 2 19 0 6 11 1 25 -12 35 -33 39 -21 4 13 -16 16
-29 23 -29 17 0 -6 -14 2 -31 19 -34 35 -49 33 -48 -7 0 -25 1 -25 10 -7 7 16
9 14 6 -12 -2 -18 0 -30 4 -28 4 3 9 -5 13 -17 7 -28 -10 -47 -18 -22 -5 16
-16 19 -63 19 -32 0 -63 -3 -70 -8 -6 -4 -24 -9 -40 -11 -45 -5 -112 -26 -118
-36 -3 -5 -13 -6 -23 -3 -14 5 -15 3 -5 -7 10 -11 18 -11 35 -2 35 17 156 36
221 34 101 -3 145 -7 141 -13 -2 -3 19 -16 46 -28 l50 -23 -20 -26 c-16 -20
-18 -27 -8 -33 9 -6 14 -2 16 11 2 11 7 20 13 20 14 0 21 -44 17 -109 -3 -60
-3 -60 14 -38 13 17 18 18 18 6 0 -9 -9 -24 -20 -34 -20 -19 -28 -41 -10 -30
17 11 11 -29 -10 -60 -14 -21 -16 -31 -7 -37 6 -4 17 -2 24 4 10 8 13 6 13 -6
0 -10 -9 -16 -25 -16 -41 0 -59 55 -57 180 1 80 -2 99 -9 80 -6 -14 -8 -47 -5
-75 4 -36 3 -46 -4 -35 -8 11 -9 2 -4 -30 3 -25 6 -54 7 -65 1 -11 6 -23 10
-26 9 -6 20 -94 30 -234 4 -54 3 -64 -5 -45 -5 14 -14 32 -19 40 -4 8 -19 33
-31 55 -30 51 -88 190 -88 209 0 8 -4 16 -9 18 -5 2 -15 40 -22 85 l-13 81
-43 20 c-36 16 -43 17 -43 5 0 -12 -7 -14 -27 -10 -43 8 -83 -3 -83 -23 0 -10
-7 -23 -15 -30 -9 -8 -15 -30 -15 -59 -1 -53 -13 -41 -29 29 -7 33 -6 50 5 71
19 38 18 45 -5 25 -11 -10 -22 -28 -24 -40 -3 -19 -4 -19 -17 7 -9 19 -10 31
-3 35 5 4 13 27 16 51 3 25 2 39 -2 32 -6 -8 -10 -2 -15 20 -4 24 -2 35 11 44
15 11 15 15 4 29 -11 14 -11 16 3 16 10 0 14 -4 11 -10 -3 -5 -1 -10 4 -10 6
0 11 7 11 15 0 8 3 14 8 13 4 -2 21 10 37 26 17 16 26 26 20 23 -11 -6 -13
132 -2 150 4 7 3 14 -3 18 -5 3 -10 -1 -10 -11 0 -12 -4 -14 -12 -7 -7 6 -25
13 -40 17 -23 5 -28 3 -28 -12 0 -10 -6 -24 -12 -30 -10 -10 -10 -15 2 -22 10
-6 11 -10 3 -10 -7 0 -10 -7 -7 -15 10 -25 24 -17 24 13 0 49 15 57 38 21 15
-24 18 -37 11 -46 -6 -6 -9 -22 -7 -35 5 -39 -31 -25 -48 20 -3 7 -34 -11 -34
-20 0 -6 6 -5 15 2 18 15 20 0 3 -20 -11 -12 -10 -12 4 -1 14 10 18 9 27 -8
15 -27 14 -31 -9 -31 -11 0 -20 -4 -20 -10 0 -17 -20 -11 -45 15 -14 13 -25
19 -25 13 0 -9 -3 -9 -11 -1 -18 18 -3 46 21 38 12 -4 20 -2 20 5 0 6 -4 8
-10 5 -15 -9 -12 6 4 24 30 34 50 106 51 184 0 72 -2 80 -25 97 -14 10 -27 17
-29 14 -2 -2 -10 1 -18 7 -7 6 -13 7 -13 2 0 -5 -6 -10 -14 -10 -8 0 -12 6 -9
14 6 15 -3 18 -11 4z m74 -285 c0 -16 -38 -38 -45 -26 -10 16 14 50 30 44 8
-4 15 -11 15 -18z m418 -135 c-2 -8 8 -21 22 -28 14 -7 20 -13 13 -13 -6 0
-20 -3 -30 -7 -10 -3 -15 -3 -11 2 4 4 0 14 -8 23 -11 10 -12 17 -4 22 8 5 6
11 -5 20 -8 7 -15 17 -15 23 0 5 9 2 20 -8 11 -10 19 -25 18 -34z m-698 -42
c0 -6 -5 -20 -11 -32 -7 -12 -13 -48 -15 -82 -2 -33 -7 -84 -11 -114 -7 -49
-9 -53 -22 -37 -12 14 -13 33 -4 109 5 51 6 96 1 102 -13 15 -9 37 10 51 21
16 52 18 52 3z m-124 -96 c-10 -10 -19 5 -10 18 6 11 8 11 12 0 2 -7 1 -15 -2
-18z m212 -3 c7 -12 16 -18 21 -15 9 5 37 -23 29 -30 -8 -9 -73 32 -76 49 -5
22 11 20 26 -4z m407 -212 c4 -68 5 -138 3 -157 -3 -33 -4 -34 -20 -17 -12 11
-18 33 -18 59 0 80 -12 147 -26 147 -21 0 -17 28 9 60 39 50 44 39 52 -92z
m-429 51 c19 -22 19 -22 -3 -10 -13 6 -23 16 -23 21 0 15 5 12 26 -11z m41
-35 c-3 -3 -12 -4 -19 -1 -8 3 -5 6 6 6 11 1 17 -2 13 -5z m743 -87 c-23 -34
-23 -33 0 27 9 24 16 33 18 22 2 -9 -6 -31 -18 -49z m-550 41 c0 -9 4 -8 10 2
8 12 10 10 10 -8 0 -13 -4 -21 -9 -18 -5 4 -12 0 -15 -6 -3 -9 -9 -7 -20 6
-13 16 -13 22 -3 28 18 11 27 10 27 -4z m1143 -60 c-2 -24 -5 -48 -7 -55 -3
-6 -2 -14 2 -17 11 -11 13 -56 3 -56 -6 0 -7 -7 -4 -17 4 -10 2 -14 -4 -10 -5
3 -11 38 -11 77 -1 39 -3 74 -6 78 -6 11 13 54 22 48 5 -3 7 -24 5 -48z m-802
5 c6 -16 12 -41 14 -57 1 -15 8 -32 16 -37 8 -5 10 -9 5 -9 -5 0 -2 -8 5 -17
12 -15 12 -16 -5 -9 -19 6 -19 6 -3 -12 23 -25 22 -29 -11 -28 -25 1 -27 4
-23 38 2 24 -5 54 -19 83 -21 44 -21 75 0 75 6 0 15 -12 21 -27z m229 -56 c0
-4 -10 -12 -22 -17 -13 -5 -17 -9 -10 -9 15 -1 15 -21 2 -57 -14 -37 -27 -21
-34 42 l-6 51 35 -1 c19 -1 35 -5 35 -9z m-310 -87 c-6 -11 -15 -20 -20 -20
-6 0 -10 9 -10 20 0 13 7 20 20 20 18 0 19 -3 10 -20z m603 -97 c-7 -2 -21 -2
-30 0 -10 3 -4 5 12 5 17 0 24 -2 18 -5z m-510 -260 c-13 -2 -33 -2 -45 0 -13
2 -3 4 22 4 25 0 35 -2 23 -4z"/>
<path d="M1492 1700 c0 -19 2 -27 5 -17 2 9 2 25 0 35 -3 9 -5 1 -5 -18z"/>
<path d="M194 1684 c-30 -10 -40 -10 -47 -1 -6 8 -7 6 -3 -6 3 -11 -3 -39 -13
-63 -19 -42 -19 -44 -2 -56 14 -10 16 -19 10 -36 -8 -20 -12 -21 -30 -11 -19
10 -21 9 -15 -6 4 -12 2 -16 -7 -12 -10 4 -13 -2 -9 -19 l4 -23 18 21 c17 21
19 22 116 9 55 -7 104 -17 110 -22 8 -6 17 -1 29 17 19 29 11 49 -9 21 -13
-17 -32 -25 -22 -9 3 5 -7 7 -22 4 -22 -3 -28 1 -29 17 -1 15 5 21 30 23 29 3
30 4 14 20 -19 19 -23 33 -6 22 8 -5 10 1 7 19 -3 14 -2 31 3 38 10 16 23 -51
17 -90 -3 -21 -1 -28 9 -24 7 3 13 10 13 17 0 6 5 4 10 -4 8 -12 10 -10 10 9
0 17 -4 22 -16 17 -9 -3 -12 -2 -9 5 4 6 13 8 21 5 23 -9 17 40 -9 66 -51 52
-115 72 -173 52z m29 -23 c-3 -10 0 -22 6 -25 7 -4 11 1 11 13 0 12 4 21 9 21
15 0 23 -18 11 -25 -5 -3 -10 -14 -10 -23 0 -23 -17 -48 -26 -39 -4 3 -2 13 5
20 9 11 8 17 -4 27 -13 11 -15 8 -15 -19 0 -17 -4 -31 -9 -31 -16 0 -18 34 -3
58 8 12 10 22 6 22 -22 0 -33 -40 -25 -85 5 -25 5 -45 0 -45 -5 0 -9 17 -10
38 -1 33 -2 34 -9 12 -4 -14 -8 -20 -9 -13 -1 6 -4 19 -8 29 -4 12 -3 15 5 10
8 -5 12 0 12 12 0 19 23 45 50 55 8 3 16 6 17 6 0 1 -1 -7 -4 -18z m73 -26
c-4 -14 -2 -25 4 -25 5 0 10 -5 10 -11 0 -5 -4 -8 -9 -5 -10 6 -43 -73 -35
-85 3 -5 0 -9 -5 -9 -6 0 -11 6 -11 13 -1 8 -5 7 -13 -4 -8 -10 -20 -13 -37
-9 -17 4 -21 8 -12 14 6 4 12 19 12 34 0 21 2 24 10 12 8 -12 10 -12 10 -1 0
8 3 12 6 9 3 -4 -2 -18 -11 -32 -10 -14 -13 -26 -7 -26 5 0 13 7 16 16 3 8 10
12 16 9 6 -3 10 5 10 19 0 35 10 55 24 50 9 -3 11 4 8 26 -3 19 0 30 8 30 8 0
10 -9 6 -25z m62 -30 c-3 -3 -9 2 -12 12 -6 14 -5 15 5 6 7 -7 10 -15 7 -18z"/>
<path d="M78 1673 c7 -3 16 -2 19 1 4 3 -2 6 -13 5 -11 0 -14 -3 -6 -6z"/>
<path d="M368 1673 c6 -2 18 -2 25 0 6 3 1 5 -13 5 -14 0 -19 -2 -12 -5z"/>
<path d="M4 1618 c1 -38 5 -48 21 -52 34 -10 75 -7 75 5 0 6 -7 9 -15 6 -8 -4
-17 -2 -20 2 -3 5 -14 7 -25 4 -16 -4 -20 0 -21 18 0 13 -4 33 -8 44 -6 14 -8
5 -7 -27z"/>
<path d="M1269 1655 c-3 -2 -4 -33 -2 -67 1 -35 2 -68 3 -74 0 -14 47 -6 73
11 24 17 4 30 -22 15 -37 -19 -43 -13 -40 50 2 56 -1 76 -12 65z"/>
<path d="M1163 1643 c15 -2 39 -2 55 0 15 2 2 4 -28 4 -30 0 -43 -2 -27 -4z"/>
<path d="M1308 1643 c7 -3 16 -2 19 1 4 3 -2 6 -13 5 -11 0 -14 -3 -6 -6z"/>
<path d="M1620 1640 c0 -5 5 -10 10 -10 6 0 10 5 10 10 0 6 -4 10 -10 10 -5 0
-10 -4 -10 -10z"/>
<path d="M1695 1640 c-4 -6 7 -10 27 -10 25 0 29 3 18 10 -19 13 -37 13 -45 0z"/>
<path d="M2836 1642 c-3 -4 -5 -75 -6 -158 -1 -115 3 -159 15 -194 9 -25 14
-57 11 -73 -4 -20 -2 -27 7 -24 6 2 11 15 10 28 -1 13 1 31 4 39 4 12 7 11 13
-5 4 -12 3 -26 -4 -34 -11 -14 2 -12 53 7 9 3 12 1 7 -6 -4 -7 -2 -12 3 -12
17 0 13 -24 -6 -36 -10 -6 -27 -8 -38 -4 -16 5 -13 8 15 13 23 5 30 11 24 17
-7 7 -20 6 -40 -5 -16 -8 -35 -15 -41 -15 -8 0 -13 -14 -13 -35 0 -20 -7 -52
-15 -72 -21 -50 -13 -51 14 -3 12 22 27 40 32 40 5 0 -2 -21 -17 -46 -44 -74
-68 -224 -36 -224 10 0 12 6 7 18 -21 49 -18 59 36 103 97 80 129 116 128 140
0 22 -1 23 -9 4 -7 -18 -121 -125 -142 -133 -12 -5 8 43 29 68 26 31 37 41 82
74 25 18 41 38 41 50 0 17 -7 13 -44 -23 -24 -24 -46 -39 -50 -33 -3 5 12 23
34 41 22 18 40 37 40 42 0 16 -32 44 -49 44 -9 0 -22 13 -29 28 -9 19 -19 26
-29 23 -10 -4 -13 -2 -10 8 3 8 0 19 -6 24 -9 8 -11 53 -7 167 5 142 1 181
-14 157z m74 -491 c0 -5 -7 -14 -15 -21 -8 -7 -15 -10 -15 -7 0 3 -3 12 -6 21
-4 12 0 16 15 16 12 0 21 -4 21 -9z"/>
<path d="M1788 1633 c7 -3 16 -2 19 1 4 3 -2 6 -13 5 -11 0 -14 -3 -6 -6z"/>
<path d="M1871 1635 c9 -8 127 -11 122 -2 -2 4 -32 7 -65 7 -34 0 -59 -2 -57
-5z"/>
<path d="M2121 1593 c0 -36 3 -43 9 -28 12 28 12 75 0 75 -5 0 -10 -21 -9 -47z"/>
<path d="M2170 1630 c-23 -7 -23 -8 -3 -9 12 -1 25 4 28 9 3 6 5 10 3 9 -2 -1
-14 -5 -28 -9z"/>
<path d="M2650 1587 c0 -31 3 -57 8 -57 9 0 9 96 0 106 -5 4 -8 -18 -8 -49z"/>
<path d="M475 1611 c-6 -11 9 -23 19 -14 9 9 7 23 -3 23 -6 0 -12 -4 -16 -9z"/>
<path d="M634 1611 c-11 -12 -2 -30 19 -34 l22 -4 -23 -2 c-43 -2 -17 -26 31
-29 40 -3 48 -7 53 -27 3 -13 14 -31 23 -39 16 -15 17 -14 13 15 -3 23 -1 30
7 24 7 -4 18 1 25 11 11 14 12 7 4 -46 -4 -35 -7 -64 -5 -66 11 -12 25 20 30
70 3 32 11 62 17 66 7 4 10 12 6 18 -3 5 1 12 9 16 8 3 17 1 20 -4 4 -6 2 -10
-4 -10 -6 0 -7 -8 -4 -17 5 -14 8 -12 16 10 8 26 27 38 27 17 0 -5 5 -10 11
-10 5 0 7 6 3 13 -5 7 2 5 16 -4 28 -18 34 -45 9 -41 -9 1 -16 -5 -16 -13 0
-8 9 -15 19 -15 10 0 18 5 18 10 0 6 7 10 15 10 20 0 19 6 -7 43 l-22 32 25
-22 c26 -24 45 -31 34 -13 -3 6 1 10 10 10 9 0 13 -5 9 -11 -4 -8 0 -8 15 0
18 10 21 9 21 -10 0 -18 -5 -21 -30 -17 -20 3 -30 0 -30 -8 0 -7 -6 -19 -13
-26 -8 -7 -17 -31 -21 -53 -4 -22 -13 -43 -19 -47 -20 -12 0 -19 27 -9 23 9
26 16 26 61 0 49 1 50 30 50 23 0 30 -4 30 -20 0 -11 -4 -20 -8 -20 -5 0 -15
-12 -23 -27 -7 -16 -15 -31 -17 -35 -2 -3 6 -4 17 -1 12 3 21 14 21 24 0 11 5
19 10 19 6 0 10 18 10 40 0 22 5 40 10 40 6 0 10 -7 10 -15 0 -8 5 -15 10 -15
6 0 10 9 10 20 0 11 -4 20 -10 20 -5 0 -10 11 -10 25 0 14 -8 29 -19 35 -19
10 -447 20 -457 11z m200 -33 c-14 -19 -25 -22 -63 -20 -25 2 -54 3 -63 3 -10
0 -18 7 -18 14 0 11 19 15 73 18 39 1 76 4 80 5 4 1 0 -8 -9 -20z"/>
<path d="M430 1581 c0 -6 -7 -11 -15 -11 -8 0 -19 -16 -24 -37 -15 -52 -13
-63 5 -30 16 29 25 32 55 17 14 -8 19 -7 19 2 0 22 -17 42 -24 29 -4 -6 -12
-8 -18 -5 -7 5 -5 11 6 20 11 8 13 14 7 19 -6 3 -11 1 -11 -4z"/>
<path d="M586 1573 c-6 -14 -5 -15 5 -6 7 7 10 15 7 18 -3 3 -9 -2 -12 -12z"/>
<path d="M1130 1575 c6 -8 13 -37 14 -65 1 -27 4 -51 7 -54 2 -2 24 -1 49 3
37 5 46 10 48 29 2 14 -2 22 -11 22 -8 0 -18 -10 -22 -22 -7 -22 -7 -22 -12
-3 -3 10 0 21 6 23 6 2 11 13 11 24 0 17 3 18 15 8 9 -7 15 -8 15 -2 0 5 -19
19 -42 31 -32 16 -44 18 -51 8 -7 -9 -10 -9 -14 1 -2 6 -9 12 -15 12 -6 0 -6
-6 2 -15z m60 -34 c0 -5 -3 -17 -6 -26 -5 -12 -9 -14 -14 -4 -5 7 -6 18 -3 26
6 15 23 18 23 4z"/>
<path d="M544 1565 c-4 -8 -10 -12 -15 -9 -5 3 -6 -2 -3 -11 7 -18 7 -18 23
13 6 12 9 22 6 22 -3 0 -8 -7 -11 -15z"/>
<path d="M2412 1568 c-20 -20 -14 -25 38 -32 41 -5 48 -9 43 -24 -5 -14 -4
-15 8 -4 15 14 17 12 -38 50 -10 7 -12 10 -5 7 6 -3 12 -1 12 4 0 15 -43 14
-58 -1z"/>
<path d="M1680 1560 c0 -5 5 -10 11 -10 5 0 7 5 4 10 -3 6 -8 10 -11 10 -2 0
-4 -4 -4 -10z"/>
<path d="M2480 1559 c0 -5 5 -7 10 -4 6 3 10 8 10 11 0 2 -4 4 -10 4 -5 0 -10
-5 -10 -11z"/>
<path d="M2025 1550 c3 -5 10 -10 16 -10 5 0 9 5 9 10 0 6 -7 10 -16 10 -8 0
-12 -4 -9 -10z"/>
<path d="M2518 1534 c2 -13 -1 -30 -7 -37 -8 -10 -7 -14 4 -14 8 0 15 6 15 13
0 8 7 11 18 8 16 -5 16 -5 0 6 -9 6 -15 17 -12 24 3 7 -1 16 -9 19 -10 4 -13
-1 -9 -19z"/>
<path d="M1626 1531 c-3 -5 1 -11 9 -15 15 -6 29 7 18 18 -9 9 -21 8 -27 -3z"/>
<path d="M2403 1519 c-14 -5 -21 -14 -17 -23 6 -15 34 -11 34 5 0 5 5 9 10 9
6 0 10 -7 10 -15 0 -8 -4 -15 -10 -15 -5 0 -10 -7 -10 -16 0 -11 -6 -15 -20
-11 -15 4 -20 0 -20 -16 0 -12 6 -29 13 -38 16 -20 55 -30 61 -15 2 6 5 3 5
-6 1 -10 14 -24 31 -33 16 -8 41 -28 55 -43 21 -21 24 -23 19 -7 -4 11 -11 25
-16 32 -6 7 -7 17 -3 23 3 5 2 10 -4 10 -5 0 -13 -5 -16 -10 -4 -6 -11 -8 -16
-4 -17 10 12 35 34 28 12 -4 17 -2 13 4 -9 14 49 72 71 72 10 0 24 4 31 9 10
6 10 10 -3 21 -13 11 -21 8 -55 -19 -21 -17 -43 -31 -48 -31 -5 0 -16 -9 -23
-19 -18 -26 -54 -32 -53 -9 1 10 -1 17 -5 16 -20 -2 -31 4 -31 17 0 8 6 15 13
15 8 0 7 3 -3 10 -12 7 -12 12 -3 21 10 10 15 6 23 -16 13 -33 25 -26 16 9 -8
33 -53 57 -83 45z m27 -89 c0 -5 -4 -10 -9 -10 -6 0 -13 5 -16 10 -3 6 1 10 9
10 9 0 16 -4 16 -10z"/>
<path d="M30 1510 c0 -6 7 -10 15 -10 19 0 19 6 0 14 -8 3 -15 1 -15 -4z"/>
<path d="M873 1513 c-12 -2 -24 -11 -27 -19 -7 -19 34 -36 52 -22 20 17 14 30
-8 18 -25 -13 -26 -2 -2 16 9 7 15 13 12 12 -3 0 -15 -3 -27 -5z"/>
<path d="M2066 1504 c-3 -8 -11 -12 -17 -8 -7 4 -9 3 -6 -3 9 -15 57 -3 57 13
0 19 -26 18 -34 -2z"/>
<path d="M1638 1498 c-8 -5 2 -8 26 -8 22 0 36 3 32 7 -10 10 -43 11 -58 1z"/>
<path d="M4 1473 c2 -15 12 -32 22 -38 10 -5 21 -11 24 -13 2 -2 -2 -7 -10
-12 -8 -5 -11 -12 -7 -16 3 -4 13 -1 22 6 9 8 15 8 15 2 0 -6 -9 -14 -21 -17
-11 -4 -27 -22 -35 -41 -21 -50 -17 -51 15 -6 16 22 34 43 40 47 16 9 13 55
-3 55 -8 0 -26 13 -39 30 l-26 30 3 -27z"/>
<path d="M1324 1485 c-4 -8 -12 -15 -20 -15 -8 0 -14 -5 -14 -11 0 -6 9 -8 23
-3 30 9 48 24 41 35 -8 14 -24 11 -30 -6z"/>
<path d="M118 1463 c-18 -21 -29 -81 -16 -89 5 -3 18 -7 31 -9 21 -4 22 -1 22
55 0 63 -10 74 -37 43z m14 -43 c3 -20 0 -30 -9 -30 -13 0 -18 41 -6 53 10 10
10 9 15 -23z"/>
<path d="M1120 1454 c0 -14 4 -23 9 -20 5 3 7 15 4 26 -7 28 -13 25 -13 -6z"/>
<path d="M1810 1470 c0 -5 5 -10 11 -10 5 0 7 5 4 10 -3 6 -8 10 -11 10 -2 0
-4 -4 -4 -10z"/>
<path d="M1365 1460 c-18 -7 -17 -8 10 -15 17 -4 35 -11 40 -14 6 -3 17 -6 25
-5 8 1 34 2 58 3 28 1 41 5 36 12 -4 7 -28 9 -66 5 -46 -4 -60 -2 -65 9 -6 17
-9 17 -38 5z"/>
<path d="M1418 1458 c9 -9 15 -9 24 0 9 9 7 12 -12 12 -19 0 -21 -3 -12 -12z"/>
<path d="M264 1445 c-12 -8 -24 -12 -28 -10 -3 3 -4 2 -1 -1 7 -10 -15 -45
-25 -39 -4 3 -6 -4 -3 -15 6 -21 23 -18 23 4 0 7 10 23 22 36 18 20 22 21 27
7 5 -13 8 -11 18 8 13 30 0 34 -33 10z"/>
<path d="M950 1453 c-8 -4 -21 -15 -28 -25 -8 -11 -19 -17 -25 -15 -7 2 -20 0
-29 -5 -13 -6 -18 -5 -18 4 0 10 -2 10 -8 1 -12 -19 -46 -9 -59 18 -13 24 -13
24 -13 2 0 -14 -6 -23 -16 -23 -11 0 -14 -5 -10 -16 4 -9 1 -23 -5 -30 -9 -12
-6 -12 22 -2 19 6 37 16 41 22 5 8 8 8 8 0 0 -7 20 -8 59 -3 66 7 81 14 81 35
0 8 4 14 8 14 5 0 9 7 9 15 0 8 -1 15 -1 14 -1 0 -8 -3 -16 -6z"/>
<path d="M205 1439 c-4 -6 -5 -12 -2 -15 2 -3 7 2 10 11 7 17 1 20 -8 4z"/>
<path d="M1227 1443 c-15 -15 -5 -22 18 -13 21 8 25 7 25 -8 0 -14 2 -15 10
-2 14 22 -34 43 -53 23z"/>
<path d="M2115 1440 c-3 -5 -1 -10 4 -10 6 0 11 5 11 10 0 6 -2 10 -4 10 -3 0
-8 -4 -11 -10z"/>
<path d="M332 1432 c-7 -2 -12 -17 -12 -33 0 -18 4 -28 10 -24 6 4 8 16 5 28
-6 21 -5 20 15 -3 12 -14 19 -19 15 -12 -9 17 -1 15 44 -7 24 -13 42 -16 51
-11 12 7 11 10 -5 15 -11 3 -41 16 -66 28 -25 13 -51 21 -57 19z"/>
<path d="M1186 1396 c-4 -24 -13 -47 -21 -50 -8 -3 -11 -13 -8 -28 5 -23 5
-23 -10 -3 -13 16 -16 17 -17 5 0 -9 5 -21 10 -26 6 -6 8 -18 4 -28 -5 -13
-10 -9 -25 19 -21 38 -25 60 -9 50 6 -4 3 10 -7 29 -9 20 -20 36 -24 36 -10 0
6 -72 25 -107 9 -18 14 -33 11 -33 -3 0 -14 15 -25 33 -11 17 -20 27 -20 21 0
-16 24 -64 33 -64 4 0 7 -11 7 -25 0 -14 5 -25 10 -25 6 0 10 7 10 15 0 8 3
15 8 15 4 0 15 -53 25 -117 25 -161 27 -172 38 -179 6 -3 7 4 3 20 -3 14 -7
43 -7 65 -1 23 -5 41 -9 41 -5 0 -8 15 -8 33 0 31 1 31 30 -22 33 -60 51 -84
57 -77 3 2 -9 22 -25 44 -16 23 -43 79 -61 127 l-33 86 20 52 c33 85 46 137
33 137 -5 0 -12 -20 -15 -44z"/>
<path d="M2633 1433 c-13 -2 -30 -14 -38 -26 -24 -34 -18 -43 10 -13 18 20 34
26 65 26 25 0 39 4 35 10 -6 10 -31 11 -72 3z"/>
<path d="M1127 1413 c-36 -19 -29 -27 9 -12 16 7 32 12 37 11 4 -1 7 3 7 8 0
13 -19 11 -53 -7z"/>
<path d="M1250 1411 c0 -7 -4 -9 -10 -6 -6 4 -7 -1 -3 -11 5 -13 3 -15 -8 -9
-8 4 -11 5 -7 1 3 -4 0 -19 -8 -34 -12 -23 -11 -28 1 -35 8 -4 15 -14 15 -21
0 -8 7 -16 15 -20 21 -8 19 8 -5 29 -26 23 -25 39 2 75 12 16 19 33 15 37 -4
3 -7 1 -7 -6z"/>
<path d="M2116 1412 c-2 -4 -1 -14 5 -22 7 -12 9 -10 9 8 0 23 -5 28 -14 14z"/>
<path d="M2727 1409 c7 -7 15 -10 18 -7 3 3 -2 9 -12 12 -14 6 -15 5 -6 -5z"/>
<path d="M1410 1406 c0 -2 7 -6 15 -10 8 -3 15 -1 15 4 0 6 -7 10 -15 10 -8 0
-15 -2 -15 -4z"/>
<path d="M303 1348 c0 -32 4 -58 9 -58 10 0 9 23 -2 75 -8 39 -8 38 -7 -17z"/>
<path d="M1616 1383 c8 -9 13 -22 10 -30 -3 -8 -2 -12 3 -8 5 3 12 -1 14 -7 4
-9 6 -8 6 3 1 8 -3 19 -8 25 -6 5 -1 10 14 10 16 1 25 -5 29 -19 3 -12 8 -19
11 -15 3 3 1 16 -5 29 -9 19 -19 25 -51 26 -35 1 -38 0 -23 -14z"/>
<path d="M2728 1374 c6 -11 19 -27 28 -35 16 -13 16 -12 6 7 -6 11 -19 27 -28
35 -16 13 -16 12 -6 -7z"/>
<path d="M1030 1372 c0 -5 6 -15 14 -21 11 -9 15 -8 20 5 4 9 4 19 1 22 -3 3
-5 0 -5 -8 0 -10 -3 -10 -15 0 -8 7 -15 8 -15 2z"/>
<path d="M1278 1368 c8 -9 11 -22 7 -28 -3 -5 -1 -10 4 -10 17 0 13 26 -6 41
-16 13 -17 12 -5 -3z"/>
<path d="M1518 1346 c-21 -19 -40 -30 -43 -25 -4 5 -14 9 -23 9 -15 -1 -14 -3
3 -17 19 -15 18 -15 -19 -10 -45 7 -81 -12 -90 -48 -4 -14 -10 -24 -14 -24
-28 5 -32 -2 -19 -28 8 -16 17 -41 21 -58 6 -27 -2 -21 -68 48 -42 42 -77 77
-80 77 -14 0 6 -32 44 -71 82 -81 115 -122 103 -126 -7 -3 -10 -12 -7 -21 5
-18 1 -13 -41 51 -11 16 -36 41 -55 55 -34 24 -35 24 -10 1 33 -31 73 -87 88
-121 17 -41 -4 -35 -29 7 -12 19 -25 35 -30 35 -5 0 3 -18 18 -41 32 -48 87
-79 143 -79 46 0 84 16 75 31 -4 5 2 9 12 9 10 0 26 9 36 20 13 16 14 20 2 20
-7 0 -17 -4 -20 -10 -3 -5 -15 -10 -27 -10 -18 0 -19 2 -7 16 7 9 30 23 51 31
21 8 36 19 33 24 -3 4 7 15 22 23 30 15 69 53 62 61 -3 2 -27 -14 -54 -36 -57
-46 -104 -73 -112 -65 -3 3 0 12 7 21 10 12 10 15 -1 15 -8 0 18 16 57 36 39
19 83 46 97 60 14 13 31 24 36 24 6 0 15 9 21 20 6 11 14 19 18 16 4 -2 17 12
29 30 30 46 16 43 -26 -6 -41 -47 -62 -53 -31 -9 12 16 20 32 17 35 -8 8 -49
-55 -43 -65 10 -16 -156 -112 -170 -98 -10 10 16 37 36 37 23 0 82 49 75 61
-3 4 1 22 10 38 8 16 11 32 7 35 -5 3 -16 -17 -26 -45 -18 -49 -46 -79 -75
-79 -10 0 -2 13 19 35 19 19 28 35 22 35 -9 0 -8 8 3 30 17 33 20 54 6 45 -5
-3 -12 -18 -16 -35 -7 -32 -41 -80 -56 -80 -6 0 -9 8 -7 18 2 9 -3 22 -12 29
-13 11 -13 12 2 13 9 0 19 9 23 19 3 11 12 22 20 25 11 4 41 46 33 46 -2 0
-20 -16 -40 -34z m-51 -92 c13 -21 14 -38 4 -136 -7 -62 -17 -118 -23 -125
-13 -16 -80 -17 -96 -1 -7 7 -12 27 -12 46 0 27 3 33 16 28 9 -3 20 -6 25 -6
5 0 9 -9 9 -20 0 -11 5 -20 10 -20 6 0 10 9 10 19 0 11 3 27 7 36 5 14 2 16
-16 10 -13 -4 -28 -2 -36 5 -18 15 -20 88 -4 143 16 59 73 70 106 21z"/>
<path d="M1406 1209 c-9 -46 -7 -79 4 -79 6 0 10 11 10 24 0 13 3 38 6 55 4
18 2 31 -3 31 -6 0 -13 -14 -17 -31z"/>
<path d="M361 1349 c11 -22 119 -134 119 -124 0 4 -25 34 -55 67 -30 34 -53
64 -50 68 2 4 -2 7 -10 7 -10 0 -11 -5 -4 -18z"/>
<path d="M2351 1357 c-21 -7 -41 -25 -53 -44 -22 -41 -15 -41 29 -3 25 23 44
30 73 30 22 0 40 5 40 10 0 6 -6 10 -14 10 -8 0 -20 2 -28 4 -7 3 -28 0 -47
-7z"/>
<path d="M1710 1344 c0 -8 5 -12 10 -9 6 3 10 10 10 16 0 5 -4 9 -10 9 -5 0
-10 -7 -10 -16z"/>
<path d="M2560 1350 c0 -5 16 -10 35 -10 20 0 49 -7 65 -15 33 -17 41 -31 13
-21 -10 4 -3 -5 15 -20 29 -23 92 -116 92 -136 0 -5 -10 -8 -22 -8 -13 0 -37
-9 -54 -19 -36 -22 -50 -16 -50 18 0 14 -5 26 -12 29 -15 5 -8 -54 9 -74 5 -7
9 -16 7 -20 -1 -5 4 -25 11 -44 8 -19 15 -37 16 -40 17 -47 15 -82 -4 -114
-21 -33 -74 -86 -118 -117 l-21 -15 17 -85 c10 -46 23 -93 29 -104 11 -19 11
-19 12 3 0 23 1 23 119 20 66 -2 122 0 126 4 11 11 18 86 10 105 -5 10 -8 21
-7 24 0 3 -6 6 -14 6 -18 0 -18 -6 2 -28 17 -19 10 -44 -8 -33 -8 5 -9 1 -4
-12 22 -53 25 -52 -76 -47 -92 6 -128 15 -128 33 0 6 8 10 18 11 14 0 14 2 -3
9 -18 8 -17 9 8 9 23 1 26 3 15 15 -7 8 -15 14 -18 14 -21 -1 -30 4 -25 12 3
6 2 10 -3 10 -5 0 -9 15 -8 33 2 28 5 32 26 29 20 -2 22 -1 10 7 -10 7 -11 11
-2 11 7 0 21 15 32 33 l20 32 0 -30 c0 -17 -6 -53 -13 -81 -15 -58 -9 -69 45
-85 32 -9 54 -4 24 6 -9 3 -23 7 -32 10 -28 9 -3 26 29 21 l32 -6 -29 14 c-17
8 -24 16 -18 20 7 4 22 2 34 -4 l23 -11 -22 19 c-20 18 -21 24 -12 51 13 37
13 37 54 11 l32 -20 -2 23 c-4 37 -5 38 -15 32 -6 -3 -14 4 -19 17 -6 13 -10
17 -10 9 -1 -8 7 -23 16 -34 17 -18 17 -18 -10 -6 -30 14 -31 17 -17 53 14 38
31 185 24 212 -9 35 -54 32 -98 -6 -32 -28 -42 -24 -22 9 15 24 88 51 109 40
17 -10 18 -6 12 73 -4 46 -12 88 -18 95 -9 9 -12 3 -11 -27 2 -42 -4 -48 -24
-28 -18 18 -14 32 5 17 9 -8 4 3 -11 24 -24 32 -31 35 -44 25 -13 -11 -14 -11
-8 0 9 15 -21 55 -35 47 -4 -3 -10 -1 -14 5 -8 13 -85 13 -85 0z m170 -75 c11
-13 10 -14 -4 -9 -9 3 -16 10 -16 15 0 13 6 11 20 -6z m41 -205 c10 -6 19 -15
19 -21 0 -6 -5 -7 -11 -3 -8 4 -9 -4 -4 -27 4 -25 3 -30 -4 -19 -9 13 -11 13
-11 -1 0 -9 6 -22 14 -28 15 -13 7 -68 -20 -128 -8 -17 -14 -35 -14 -41 0 -21
-42 -102 -50 -97 -6 3 -6 15 0 29 21 55 32 188 19 239 -9 40 -9 51 2 58 8 5
11 9 7 9 -7 0 23 40 30 40 2 0 12 -5 23 -10z m-172 -391 c6 -38 8 -75 5 -81
-10 -16 -22 19 -30 91 -9 86 10 78 25 -10z"/>
<path d="M2756 955 c-3 -8 -1 -15 4 -15 6 0 10 7 10 15 0 8 -2 15 -4 15 -2 0
-6 -7 -10 -15z"/>
<path d="M2780 1358 c0 -4 12 -33 26 -64 22 -48 25 -68 22 -125 -2 -37 0 -65
4 -63 4 3 8 42 8 87 0 74 -3 86 -30 127 -16 25 -30 42 -30 38z"/>
<path d="M86 1339 c2 -4 -3 -10 -12 -13 -8 -3 -14 -11 -13 -18 4 -21 -23 -68
-34 -61 -6 3 -7 1 -4 -4 4 -6 0 -24 -8 -39 -8 -16 -14 -45 -14 -64 1 -35 1
-35 11 9 10 47 51 120 74 134 20 12 17 27 -3 21 -12 -4 -9 3 9 19 24 22 25 26
9 24 -11 -1 -18 -4 -15 -8z"/>
<path d="M134 1299 c1 -31 -4 -36 -54 -57 -23 -10 -23 -11 12 -9 20 1 34 5 32
8 -2 4 3 10 12 13 11 4 15 15 12 36 -3 16 0 32 6 34 6 2 4 5 -5 5 -13 1 -17
-7 -15 -30z"/>
<path d="M1363 1323 c9 -2 23 -2 30 0 6 3 -1 5 -18 5 -16 0 -22 -2 -12 -5z"/>
<path d="M1825 1320 c-4 -6 -10 -8 -15 -5 -5 3 -33 -19 -62 -48 -29 -30 -59
-52 -65 -50 -7 3 -13 1 -14 -4 0 -4 -2 -18 -3 -30 -1 -12 -21 -46 -44 -77 -43
-57 -51 -73 -29 -60 8 5 8 3 -2 -9 -7 -9 -17 -15 -21 -12 -5 3 -18 -7 -30 -22
-33 -43 -88 -73 -124 -67 l-31 5 34 -15 c36 -17 77 -23 53 -7 -9 5 0 10 28 14
27 3 53 15 72 34 38 37 89 130 81 150 -4 11 -2 14 5 9 7 -4 18 6 29 28 9 20
23 36 30 36 8 0 11 5 8 10 -4 6 6 10 22 10 25 1 26 2 11 14 -16 12 -15 16 17
52 39 45 48 31 9 -15 -26 -31 -18 -44 10 -16 16 17 30 20 21 6 -11 -19 17 -23
33 -5 10 10 10 13 3 6 -21 -17 -36 -15 -21 4 8 8 9 14 4 13 -22 -4 -24 3 -9
31 14 28 14 43 0 20z m-154 -173 c-10 -9 -11 -8 -5 6 3 10 9 15 12 12 3 -3 0
-11 -7 -18z m-33 -62 c-6 -14 -13 -23 -15 -21 -5 5 15 46 22 46 3 0 -1 -11 -7
-25z m-78 -105 c-6 -11 -16 -20 -22 -20 -6 0 -3 9 7 20 10 11 20 20 22 20 2 0
-1 -9 -7 -20z"/>
<path d="M2570 1320 c0 -5 5 -21 12 -35 8 -18 19 -25 40 -25 17 0 27 4 23 10
-3 6 -15 10 -26 10 -12 0 -23 10 -29 25 -10 25 -20 33 -20 15z"/>
<path d="M1650 1311 c0 -6 5 -13 10 -16 6 -3 10 1 10 9 0 9 -4 16 -10 16 -5 0
-10 -4 -10 -9z"/>
<path d="M2453 1313 c9 -2 23 -2 30 0 6 3 -1 5 -18 5 -16 0 -22 -2 -12 -5z"/>
<path d="M2898 1313 c7 -3 16 -2 19 1 4 3 -2 6 -13 5 -11 0 -14 -3 -6 -6z"/>
<path d="M1892 1298 c-6 -6 -12 -19 -12 -27 -1 -31 -29 -55 -64 -55 -19 0 -33
-3 -30 -7 2 -4 -8 -9 -23 -11 -16 -2 27 -7 93 -12 67 -4 132 -13 145 -20 19
-9 38 -8 94 7 38 9 82 15 97 12 29 -7 98 -76 98 -99 0 -8 3 -16 8 -18 12 -5
92 -97 92 -105 0 -5 -16 -13 -35 -19 -43 -14 -153 2 -136 19 7 7 21 7 46 0 37
-12 75 -7 75 9 0 5 -4 7 -9 3 -5 -3 -36 -2 -67 1 -42 5 -53 9 -39 15 18 7 18
8 2 8 -15 1 -16 4 -5 24 7 12 11 26 10 31 -2 5 3 13 10 17 10 6 9 15 -4 41
-14 28 -17 30 -17 11 -1 -13 4 -23 9 -23 6 0 4 -10 -4 -22 -8 -13 -18 -40 -22
-61 -3 -21 -15 -46 -25 -56 -11 -10 -26 -38 -34 -62 -8 -25 -12 -31 -9 -14 3
17 8 54 11 82 3 29 9 50 14 47 5 -3 6 1 3 9 -3 8 2 17 10 20 8 3 20 16 27 29
l12 23 -26 -24 c-40 -36 -65 -8 -29 32 16 19 16 20 -2 10 -15 -8 -27 -6 -49 8
-22 13 -35 15 -49 8 -12 -6 -25 -6 -38 1 -17 9 -28 6 -60 -17 -22 -15 -40 -35
-41 -43 -2 -26 2 -45 15 -58 18 -18 -14 -136 -61 -228 -28 -54 -46 -76 -70
-88 -18 -9 -33 -14 -33 -12 0 3 15 21 34 41 36 38 73 101 87 148 12 42 4 33
-31 -35 -40 -79 -78 -130 -91 -123 -5 4 -9 -8 -9 -26 0 -18 -7 -38 -17 -46
-17 -13 -16 -13 2 -3 90 48 144 116 180 229 l15 46 -6 -60 c-4 -33 -6 -71 -6
-84 1 -13 -7 -31 -18 -41 -11 -10 -20 -21 -20 -25 0 -5 8 0 19 9 10 9 22 16
27 15 25 -4 54 2 49 11 -4 7 -13 7 -24 0 -15 -8 -18 -5 -19 20 -1 35 11 45 37
31 11 -6 21 -8 24 -3 2 4 3 2 1 -4 -1 -7 7 -21 19 -31 25 -22 62 -38 52 -23
-9 14 8 12 25 -2 8 -8 7 -3 -3 12 -38 57 -40 62 -18 51 16 -9 21 -7 26 10 6
17 9 19 16 8 13 -21 11 -75 -3 -86 -7 -6 -53 -13 -103 -17 -49 -3 -106 -8
-126 -10 -45 -5 -102 -33 -94 -46 4 -6 2 -10 -2 -10 -5 0 -28 -19 -52 -41 -33
-33 -45 -39 -52 -28 -6 10 -2 16 11 21 28 10 25 20 -3 13 -20 -5 -25 0 -42 47
-10 29 -24 62 -31 73 -7 11 -18 45 -25 75 l-12 55 -86 2 c-67 1 -80 -1 -61 -8
14 -6 51 -11 82 -12 31 -1 51 -5 45 -9 -8 -5 -6 -9 6 -14 9 -3 14 -10 11 -16
-3 -5 -14 -2 -25 8 -16 15 -19 15 -19 2 0 -15 -37 -29 -90 -33 -14 -1 -58 4
-98 11 -125 23 -128 15 -7 -15 52 -13 84 -17 95 -11 10 5 20 7 23 3 4 -3 23 1
44 9 31 13 62 15 92 9 2 -1 -2 -8 -9 -16 -7 -8 -29 -15 -49 -16 -20 0 -45 -4
-56 -9 -12 -5 2 -6 36 -3 48 5 60 2 77 -15 11 -11 17 -24 14 -28 -4 -4 -2 -4
5 0 8 4 14 -6 19 -31 4 -21 15 -55 25 -75 21 -41 25 -78 9 -78 -5 0 -9 -21 -9
-47 1 -27 4 -38 6 -25 5 24 23 31 23 8 0 -24 -12 -46 -21 -41 -5 3 -2 -12 6
-35 8 -22 10 -40 5 -40 -6 0 -10 -4 -10 -10 0 -5 7 -7 15 -4 10 4 13 13 10 25
-5 13 4 25 34 45 22 14 53 43 68 63 l28 36 -40 -32 c-22 -17 -51 -43 -64 -57
-31 -33 -40 -33 -33 -1 2 14 7 25 11 25 3 0 7 13 7 29 1 21 -2 28 -12 24 -18
-7 -17 5 1 37 11 19 14 21 15 8 0 -33 32 -38 141 -22 57 8 136 22 174 31 39 8
83 17 98 20 19 4 26 10 23 19 -3 8 6 20 22 28 15 8 44 31 65 52 42 41 56 40
33 -3 -8 -15 -16 -21 -16 -13 0 12 -4 11 -15 -4 -10 -14 -15 -45 -15 -102 l0
-83 30 4 c27 3 30 1 30 -26 0 -17 4 -28 9 -25 12 8 44 -31 36 -43 -3 -6 -2
-11 4 -11 5 0 23 -35 39 -77 17 -43 35 -79 41 -81 6 -2 0 20 -13 50 -13 29
-31 81 -41 115 -10 35 -24 68 -31 74 -17 14 -18 5 -3 -24 12 -21 11 -22 -8 -4
-22 19 -29 83 -24 227 2 65 5 78 25 95 13 11 32 32 41 48 22 35 35 35 31 -2
-4 -34 -68 -150 -74 -133 -2 6 4 22 12 34 21 29 20 37 -1 34 -15 -3 -18 -15
-20 -89 0 -48 2 -87 6 -87 9 0 74 100 68 106 -2 2 -16 -14 -31 -37 -15 -22
-30 -38 -33 -35 -9 9 56 138 66 131 6 -3 8 -12 5 -19 -3 -8 0 -17 7 -22 7 -4
10 -3 5 4 -3 6 -2 13 2 16 10 6 82 -70 82 -86 0 -5 7 -25 16 -44 9 -19 14 -38
10 -41 -3 -4 -31 -2 -61 4 -31 5 -58 6 -61 1 -3 -4 -17 -8 -32 -7 l-27 1 25 9
c14 6 36 24 50 42 l25 32 -34 -25 c-41 -31 -52 -37 -72 -43 -11 -4 -15 -13
-12 -30 4 -21 9 -24 36 -20 18 2 56 6 85 9 l52 6 0 -133 c0 -73 2 -130 4 -128
4 5 16 160 16 222 0 28 4 46 10 42 5 -3 7 -11 4 -18 -7 -20 23 -85 45 -97 29
-15 68 -12 75 6 9 22 8 24 -9 24 -8 0 -20 9 -27 20 -7 11 -18 20 -25 20 -6 0
-14 6 -16 13 -4 8 -6 6 -6 -4 -1 -9 8 -24 19 -34 11 -10 20 -23 20 -29 -1 -18
-59 57 -60 76 0 26 15 30 35 8 23 -26 35 -17 35 26 0 32 -2 35 -22 29 -13 -4
-25 -7 -28 -7 -22 0 -30 4 -30 17 0 9 -7 30 -16 46 -12 24 -13 33 -3 45 11 13
8 14 -17 10 -16 -4 -22 -3 -14 0 28 13 50 41 45 56 -6 16 -59 17 -100 3 -19
-6 -19 -6 -1 9 10 8 24 18 30 21 8 3 7 7 -2 11 -7 3 -21 23 -31 43 -15 33 -16
41 -4 56 15 21 17 63 4 83 -7 11 -21 7 -68 -17 -66 -35 -87 -54 -98 -90 -5
-16 -10 -20 -17 -13 -6 6 -7 19 -3 29 4 10 7 35 6 56 -2 20 2 37 8 37 6 0 7
-7 4 -17 -5 -11 -3 -14 6 -9 7 5 11 17 8 27 -4 15 0 19 20 19 23 0 23 -1 8
-16 -23 -23 -49 -64 -43 -69 8 -9 58 46 52 57 -4 6 -2 8 4 4 6 -3 29 3 52 15
31 16 44 19 53 10 6 -6 18 -11 26 -11 14 0 14 1 1 10 -12 8 -11 10 7 10 12 0
27 2 35 5 13 5 31 -26 44 -77 8 -38 18 -35 38 10 26 56 61 92 91 92 17 0 25 5
22 13 -2 6 -18 11 -36 10 -20 0 -31 3 -28 10 2 7 15 11 28 9 l24 -2 -25 15
-25 16 25 -7 c21 -6 23 -5 12 8 -7 9 -14 35 -17 58 -2 23 -7 45 -11 49 -3 3
-4 -18 -2 -47 3 -30 2 -48 -2 -41 -6 8 -9 4 -12 -12 -2 -13 -3 14 -4 61 0 64
-4 92 -18 112 -21 32 -33 37 -66 27 l-25 -9 27 4 c44 5 56 -12 13 -20 l-38 -7
7 -87 c8 -100 2 -128 -20 -105 -12 12 -13 22 -5 52 14 48 14 56 1 48 -6 -4 -8
-10 -6 -14 3 -4 1 -13 -5 -21 -6 -11 -9 -8 -9 12 0 15 -9 42 -20 60 -11 18
-20 27 -20 20 0 -7 -4 -11 -9 -7 -5 3 -12 1 -16 -5 -3 -5 0 -10 7 -10 10 0 9
-3 -2 -10 -10 -6 -20 -4 -32 7 -10 9 -18 12 -18 6 0 -5 18 -24 41 -43 33 -26
40 -29 37 -14 -2 11 -8 19 -15 19 -6 0 -15 3 -19 7 -3 4 3 6 14 3 16 -3 19 0
15 12 -4 11 -2 14 5 9 7 -4 12 -23 12 -42 0 -38 22 -99 46 -125 13 -15 11 -17
-25 -27 -32 -8 -43 -7 -52 4 -10 12 -8 13 6 8 13 -5 16 -4 11 4 -9 15 -1 15
25 2 37 -20 19 -2 -46 45 -36 27 -76 62 -89 79 -13 17 -33 42 -45 55 -11 13
-21 35 -21 49 0 24 -1 24 -18 9 -23 -21 -39 -22 -22 -2 7 9 10 18 6 22 -3 3
-6 1 -6 -5 0 -6 -25 -19 -56 -28 -49 -14 -70 -15 -147 -5 -69 9 -92 9 -98 0
-13 -22 -28 0 -16 25 7 13 15 22 19 20 4 -3 5 3 1 12 -4 12 -3 15 5 10 13 -8
14 0 4 27 -6 14 -10 15 -20 5z m678 -113 c0 -16 -6 -25 -15 -25 -23 0 -18 -27
6 -33 20 -5 21 -10 14 -69 -9 -75 -26 -130 -42 -135 -11 -4 -15 4 -27 60 -5
19 -3 26 4 22 5 -3 10 1 10 9 0 9 5 16 11 16 7 0 9 -11 6 -30 -4 -17 -2 -30 3
-30 6 0 10 20 10 45 0 33 -4 45 -15 45 -9 0 -15 9 -15 23 0 12 -3 46 -6 75
l-7 52 32 0 c26 0 31 -4 31 -25z m-560 -170 c-1 -55 -5 -122 -9 -150 -5 -43
-9 -50 -29 -53 -21 -3 -23 -1 -18 25 3 15 8 65 12 111 5 71 4 82 -10 82 -9 0
-16 7 -16 16 0 18 51 74 64 71 5 -2 8 -48 6 -102z m87 90 c29 -20 34 -55 21
-165 -11 -105 -26 -133 -67 -128 l-26 3 3 130 c2 94 6 135 17 152 18 27 24 28
52 8z m308 -113 c-5 -6 -65 40 -65 50 0 5 16 -4 35 -19 19 -15 32 -29 30 -31z
m175 -19 c-11 -17 -11 -17 -6 0 3 10 6 24 7 30 0 9 2 9 5 0 3 -7 0 -20 -6 -30z
m-372 -34 c17 -10 17 -16 4 -79 -13 -65 -12 -70 7 -89 20 -20 21 -20 31 -1 5
10 10 25 10 33 0 7 11 24 25 37 30 28 33 15 5 -20 -11 -14 -20 -31 -20 -38 0
-16 -81 -92 -97 -92 -16 0 -17 12 -2 27 8 8 4 22 -12 51 l-24 41 25 70 c13 39
26 71 27 71 2 0 11 -5 21 -11z m197 -69 c3 -5 1 -10 -4 -10 -6 0 -11 5 -11 10
0 6 2 10 4 10 3 0 8 -4 11 -10z m-45 -15 c0 -9 -7 -18 -15 -21 -8 -4 -15 -11
-15 -17 0 -6 11 0 25 13 14 13 27 21 30 18 8 -7 -25 -68 -36 -68 -6 0 -8 -4
-4 -10 5 -9 -88 -90 -104 -90 -18 0 -19 14 -3 29 9 9 26 34 37 56 32 66 59
105 73 105 6 0 12 -7 12 -15z m-291 -110 c0 -5 -9 1 -19 14 -11 13 -20 28 -20
35 0 6 9 0 20 -14 11 -14 20 -29 19 -35z m351 -24 c0 -12 -20 -25 -27 -18 -7
7 6 27 18 27 5 0 9 -4 9 -9z m-407 -28 c-7 -2 -19 -2 -25 0 -7 3 -2 5 12 5 14
0 19 -2 13 -5z m106 -31 c25 -68 25 -71 -13 -87 -19 -8 -46 -15 -58 -15 -19 0
-20 -2 -8 -10 10 -7 3 -8 -25 -5 -31 4 -36 3 -20 -5 16 -7 13 -8 -15 -4 -19 3
-57 0 -85 -6 -27 -6 -75 -11 -107 -11 -39 -1 -56 -4 -52 -11 4 -7 2 -8 -4 -4
-7 4 -12 16 -12 27 0 15 7 19 38 20 20 0 46 5 57 10 15 6 6 8 -32 6 l-52 -2
37 37 c20 21 43 37 50 38 6 0 12 7 12 15 0 8 5 15 11 15 5 0 8 -4 4 -9 -3 -5
9 -3 26 6 19 9 62 16 110 18 43 1 81 4 85 7 12 13 43 -5 53 -30z m28 22 c11
-11 26 -14 50 -9 45 8 43 -11 -4 -24 -40 -11 -57 -4 -66 29 -6 24 -1 25 20 4z
m318 -14 c-3 -5 -10 -10 -16 -10 -5 0 -9 5 -9 10 0 6 7 10 16 10 8 0 12 -4 9
-10z m15 -15 c-7 -8 -18 -15 -24 -15 -6 0 -2 7 8 15 25 19 32 19 16 0z m-300
-35 c-24 -15 -36 -11 -14 4 10 8 21 12 24 10 2 -3 -2 -9 -10 -14z m71 -137
c-8 -14 -10 -8 -7 27 7 71 9 78 13 33 2 -24 -1 -51 -6 -60z m329 1 c0 -8 -5
-12 -10 -9 -6 4 -8 11 -5 16 9 14 15 11 15 -7z m-147 -1 c-7 -2 -19 -2 -25 0
-7 3 -2 5 12 5 14 0 19 -2 13 -5z"/>
<path d="M2540 1080 c0 -5 5 -10 10 -10 6 0 10 5 10 10 0 6 -4 10 -10 10 -5 0
-10 -4 -10 -10z"/>
<path d="M2070 1037 c0 -19 -3 -70 -6 -113 -4 -53 -2 -74 4 -65 5 7 10 45 11
83 0 38 4 80 7 93 3 12 1 26 -5 29 -7 5 -11 -5 -11 -27z"/>
<path d="M2181 764 c0 -11 3 -14 6 -6 3 7 2 16 -1 19 -3 4 -6 -2 -5 -13z"/>
<path d="M2004 652 c-23 -15 -50 -32 -60 -38 -15 -9 -9 -9 23 -1 23 6 41 14
40 18 -1 3 9 16 23 27 35 30 23 27 -26 -6z"/>
<path d="M2006 600 c-35 -24 -51 -40 -40 -40 16 0 119 79 104 79 -3 0 -31 -17
-64 -39z"/>
<path d="M1796 592 c-3 -5 8 -6 25 -4 16 2 29 6 29 8 0 8 -49 4 -54 -4z"/>
<path d="M1803 533 c9 -2 23 -2 30 0 6 3 -1 5 -18 5 -16 0 -22 -2 -12 -5z"/>
<path d="M755 1290 c4 -6 11 -8 16 -5 14 9 11 15 -7 15 -8 0 -12 -5 -9 -10z"/>
<path d="M2478 1273 c7 -3 16 -2 19 1 4 3 -2 6 -13 5 -11 0 -14 -3 -6 -6z"/>
<path d="M1610 1260 c0 -5 5 -10 10 -10 6 0 10 5 10 10 0 6 -4 10 -10 10 -5 0
-10 -4 -10 -10z"/>
<path d="M1256 1248 c3 -4 9 -8 15 -8 5 0 9 4 9 8 0 5 -7 9 -15 9 -8 0 -12 -4
-9 -9z"/>
<path d="M2630 1250 c-29 -5 -32 -8 -17 -15 15 -6 16 -10 5 -16 -23 -15 13
-10 47 6 l30 14 -30 -5 -30 -5 30 15 c32 15 21 18 -35 6z"/>
<path d="M2257 1243 c-11 -10 -8 -43 3 -43 6 0 10 11 10 25 0 26 -2 29 -13 18z"/>
<path d="M2327 1225 c17 -8 36 -23 42 -32 6 -10 11 -13 11 -7 0 16 -31 41 -60
48 -18 4 -17 2 7 -9z"/>
<path d="M400 1225 c0 -11 59 -34 65 -25 3 5 -3 14 -14 19 -20 11 -51 15 -51
6z"/>
<path d="M390 1193 c0 -4 16 -18 36 -31 20 -13 35 -19 32 -12 -4 14 -68 55
-68 43z"/>
<path d="M540 1190 c0 -5 5 -10 10 -10 6 0 10 5 10 10 0 6 -4 10 -10 10 -5 0
-10 -4 -10 -10z"/>
<path d="M2625 1190 c3 -5 10 -10 16 -10 5 0 9 5 9 10 0 6 -7 10 -16 10 -8 0
-12 -4 -9 -10z"/>
<path d="M2280 1182 c0 -13 58 -72 71 -72 14 0 12 3 -31 44 -22 21 -40 33 -40
28z"/>
<path d="M795 1166 c17 -8 32 -12 34 -10 7 7 -3 12 -34 18 l-30 6 30 -14z"/>
<path d="M191 1154 c0 -11 3 -14 6 -6 3 7 2 16 -1 19 -3 4 -6 -2 -5 -13z"/>
<path d="M1785 1149 c-4 -6 -5 -12 -2 -15 2 -3 7 2 10 11 7 17 1 20 -8 4z"/>
<path d="M501 1134 c0 -11 3 -14 6 -6 3 7 2 16 -1 19 -3 4 -6 -2 -5 -13z"/>
<path d="M2670 1139 c0 -5 5 -7 10 -4 6 3 10 8 10 11 0 2 -4 4 -10 4 -5 0 -10
-5 -10 -11z"/>
<path d="M808 1123 c6 -2 18 -2 25 0 6 3 1 5 -13 5 -14 0 -19 -2 -12 -5z"/>
<path d="M1020 1109 c0 -5 5 -7 10 -4 6 3 10 8 10 11 0 2 -4 4 -10 4 -5 0 -10
-5 -10 -11z"/>
<path d="M988 1046 c28 -48 39 -60 44 -47 12 29 8 46 -17 76 l-25 30 10 -29
c15 -41 7 -41 -15 -1 -10 19 -22 35 -26 35 -4 0 9 -29 29 -64z m39 -21 c0 -8
-4 -12 -9 -9 -5 3 -6 10 -3 15 9 13 12 11 12 -6z"/>
<path d="M23 1076 c9 -20 14 -22 20 -10 13 23 27 16 28 -13 0 -16 3 -22 6 -16
4 10 7 10 18 0 7 -6 22 -20 34 -30 13 -10 19 -23 15 -30 -4 -6 -3 -9 1 -4 12
10 56 -73 53 -100 -3 -22 -4 -22 -30 -9 -15 8 -30 11 -33 6 -3 -5 14 -18 39
-28 36 -16 45 -27 55 -58 11 -39 11 -39 5 -4 -3 19 -7 58 -9 85 l-4 50 15 -63
c11 -42 22 -66 36 -73 16 -9 19 -8 15 3 -2 7 -9 12 -14 11 -5 -1 -9 10 -8 25
2 28 -38 117 -52 117 -4 0 -7 4 -5 9 6 17 -10 89 -17 78 -4 -7 -14 1 -26 18
-22 33 -35 38 -35 15 0 -8 4 -15 9 -15 10 0 64 -91 58 -97 -5 -5 -87 105 -87
117 0 16 -43 40 -71 40 -25 0 -26 -2 -16 -24z"/>
<path d="M2343 1094 c4 -4 24 -13 44 -20 32 -11 34 -11 21 2 -8 8 -27 17 -43
20 -16 3 -26 2 -22 -2z"/>
<path d="M1082 1060 c0 -19 2 -27 5 -17 2 9 2 25 0 35 -3 9 -5 1 -5 -18z"/>
<path d="M522 1050 c-7 -11 -8 -20 -3 -20 9 0 24 30 18 36 -1 2 -8 -6 -15 -16z"/>
<path d="M2243 1053 c4 -3 1 -13 -6 -21 -11 -13 -9 -14 10 -2 22 14 22 30 1
30 -6 0 -8 -3 -5 -7z"/>
<path d="M2481 1044 c0 -11 3 -14 6 -6 3 7 2 16 -1 19 -3 4 -6 -2 -5 -13z"/>
<path d="M31 1028 c-1 -9 -8 -21 -17 -26 -14 -8 -14 -13 -4 -32 9 -18 9 -24 0
-30 -9 -6 -6 -12 11 -21 22 -11 23 -11 10 4 -18 23 2 22 22 -1 10 -10 14 -22
10 -27 -5 -4 -3 -6 2 -2 6 3 21 -1 35 -9 24 -14 23 -14 -16 -9 -26 4 -45 2
-49 -4 -4 -7 5 -11 22 -11 16 0 37 -6 48 -14 11 -7 29 -16 40 -19 14 -3 12 -5
-9 -6 -40 -1 -22 -19 24 -23 48 -4 44 -22 -6 -25 -45 -3 -145 -42 -107 -43 12
0 24 4 27 9 7 10 84 24 95 16 11 -6 -11 -74 -26 -79 -7 -3 -38 4 -70 14 -69
23 -73 24 -73 7 0 -7 32 -23 72 -36 40 -13 79 -26 86 -28 6 -3 12 2 12 12 0 9
7 39 16 66 12 37 19 47 26 37 7 -9 8 -8 4 5 -3 10 -6 27 -6 37 0 12 -16 26
-45 40 -36 18 -44 26 -40 41 4 10 2 19 -4 19 -19 0 -82 63 -77 76 3 7 0 16 -6
20 -6 4 -7 9 0 13 5 3 6 15 1 26 -6 16 -8 17 -8 3z"/>
<path d="M1095 1018 c-8 -27 -11 -128 -3 -120 4 4 9 36 11 70 3 60 0 75 -8 50z"/>
<path d="M60 1010 c0 -5 5 -10 10 -10 6 0 10 5 10 10 0 6 -4 10 -10 10 -5 0
-10 -4 -10 -10z"/>
<path d="M1629 1009 c-11 -7 -10 -9 6 -9 11 0 35 -9 53 -20 17 -11 32 -16 32
-11 0 23 -69 54 -91 40z"/>
<path d="M959 927 c35 -101 55 -143 76 -151 9 -3 13 -2 10 4 -3 5 -1 19 6 31
9 17 8 20 -3 16 -7 -2 -12 -10 -10 -16 1 -7 -2 -10 -8 -6 -6 3 -8 11 -5 16 4
5 2 9 -2 9 -5 0 -24 41 -42 90 -18 50 -37 90 -41 90 -5 0 4 -37 19 -83z"/>
<path d="M981 1005 c0 -18 28 -61 29 -44 0 8 -7 24 -15 35 -8 10 -14 15 -14 9z"/>
<path d="M2298 993 c7 -3 16 -2 19 1 4 3 -2 6 -13 5 -11 0 -14 -3 -6 -6z"/>
<path d="M1830 939 c-7 -11 -10 -23 -7 -25 2 -2 9 7 15 21 14 30 7 33 -8 4z"/>
<path d="M1852 935 c-17 -37 -14 -45 4 -12 9 16 14 31 11 33 -2 2 -9 -7 -15
-21z"/>
<path d="M2980 939 c0 -5 5 -7 10 -4 6 3 10 8 10 11 0 2 -4 4 -10 4 -5 0 -10
-5 -10 -11z"/>
<path d="M1011 913 c11 -32 23 -41 32 -25 2 4 -6 18 -20 32 l-24 25 12 -32z"/>
<path d="M455 910 c-4 -6 7 -10 24 -10 17 0 31 5 31 10 0 6 -11 10 -24 10 -14
0 -28 -4 -31 -10z"/>
<path d="M1623 908 c-13 -6 -23 -20 -23 -30 0 -13 4 -17 13 -11 6 4 18 8 26
10 17 2 32 24 25 35 -6 10 -13 9 -41 -4z"/>
<path d="M1185 900 c-3 -5 2 -10 12 -10 10 0 29 -3 43 -6 24 -5 24 -5 6 10
-22 18 -52 21 -61 6z"/>
<path d="M1806 885 c-3 -9 -6 -22 -5 -28 0 -7 5 -1 10 12 5 13 8 26 5 28 -2 2
-6 -3 -10 -12z"/>
<path d="M699 845 c-7 -18 -75 -55 -99 -55 -20 0 -22 -4 -16 -32 3 -17 9 -69
13 -115 5 -76 13 -97 27 -74 3 4 16 6 29 4 22 -4 25 -1 32 49 5 29 7 57 6 62
-1 5 3 40 10 76 10 60 9 113 -2 85z m1 -50 c0 -17 -2 -18 -24 -9 -23 9 -20 24
4 24 11 0 20 -7 20 -15z m-32 -41 c4 2 4 -30 0 -72 -3 -42 -7 -81 -7 -85 -1
-4 -10 -3 -22 3 -11 7 -18 14 -16 17 3 2 1 18 -5 34 -9 25 -7 32 7 43 17 12
17 13 -4 19 -11 3 -21 11 -21 17 0 9 5 9 18 -1 16 -13 16 -13 0 7 -22 25 -23
38 -4 31 8 -3 17 2 21 11 6 15 8 14 16 -6 5 -13 12 -21 17 -18z"/>
<path d="M1351 831 c-9 -6 2 -9 30 -9 24 -1 67 -3 94 -6 l50 -5 -50 14 c-59
16 -105 18 -124 6z"/>
<path d="M1763 805 c0 -22 2 -30 4 -17 2 12 2 30 0 40 -3 9 -5 -1 -4 -23z"/>
<path d="M2896 831 c-3 -4 6 -6 19 -3 14 2 25 6 25 8 0 8 -39 4 -44 -5z"/>
<path d="M2966 826 c10 -8 21 -12 24 -10 5 6 -21 24 -34 24 -6 0 -1 -6 10 -14z"/>
<path d="M460 825 c0 -2 13 -11 30 -20 16 -8 37 -28 45 -43 16 -26 16 -26 10
-2 -4 14 -7 30 -7 37 -1 7 -4 10 -8 8 -4 -2 -16 2 -26 10 -18 14 -44 20 -44
10z"/>
<path d="M1640 810 c-6 -11 -8 -20 -6 -20 3 0 10 9 16 20 6 11 8 20 6 20 -3 0
-10 -9 -16 -20z"/>
<path d="M54 799 c-4 -8 -3 -10 4 -5 7 4 12 3 12 -2 0 -5 -10 -14 -22 -21 -17
-9 -18 -10 -3 -5 11 4 38 10 60 13 38 6 38 7 13 14 -14 4 -33 9 -41 13 -8 3
-18 0 -23 -7z"/>
<path d="M1235 780 c3 -5 8 -10 11 -10 2 0 4 5 4 10 0 6 -5 10 -11 10 -5 0 -7
-4 -4 -10z"/>
<path d="M260 760 c0 -8 5 -22 10 -30 9 -13 10 -13 10 0 0 8 -5 22 -10 30 -9
13 -10 13 -10 0z"/>
<path d="M1061 746 c-1 -29 -1 -29 -23 -10 -23 20 -17 3 9 -27 8 -9 18 -30 23
-45 8 -28 8 -28 8 -4 0 14 -3 45 -7 70 -7 34 -9 38 -10 16z"/>
<path d="M2107 749 c4 -13 8 -18 11 -10 2 7 -1 18 -6 23 -8 8 -9 4 -5 -13z"/>
<path d="M2814 752 c10 -12 23 -19 28 -16 11 7 11 7 -22 24 -25 13 -25 13 -6
-8z"/>
<path d="M2878 743 c7 -3 16 -2 19 1 4 3 -2 6 -13 5 -11 0 -14 -3 -6 -6z"/>
<path d="M1340 720 c-94 -5 -94 -5 -35 -11 62 -7 185 3 150 11 -11 3 -63 3
-115 0z"/>
<path d="M75 709 c-5 -7 29 -19 58 -19 9 0 17 4 17 9 0 11 -69 20 -75 10z"/>
<path d="M260 699 c0 -15 18 -19 23 -6 3 8 -1 14 -9 14 -8 0 -14 -4 -14 -8z"/>
<path d="M1530 703 c0 -8 100 -55 100 -48 0 5 -85 55 -93 55 -4 0 -7 -3 -7 -7z"/>
<path d="M2910 699 c0 -5 5 -7 10 -4 6 3 10 8 10 11 0 2 -4 4 -10 4 -5 0 -10
-5 -10 -11z"/>
<path d="M2960 700 c18 -12 40 -13 40 -2 0 4 -12 9 -27 10 -22 1 -24 0 -13 -8z"/>
<path d="M187 671 c-4 -19 -5 -36 -2 -39 10 -11 16 7 13 40 l-3 33 -8 -34z"/>
<path d="M1305 670 c-3 -5 3 -10 14 -10 11 0 23 5 26 10 3 6 -3 10 -14 10 -11
0 -23 -4 -26 -10z"/>
<path d="M1380 670 c0 -5 7 -10 15 -10 8 0 15 5 15 10 0 6 -7 10 -15 10 -8 0
-15 -4 -15 -10z"/>
<path d="M710 663 c0 -8 62 -49 68 -45 5 4 2 12 -5 13 -5 1 -20 10 -35 21 -16
11 -28 16 -28 11z"/>
<path d="M850 662 c0 -5 17 -16 38 -25 l37 -17 -30 25 c-31 26 -45 31 -45 17z"/>
<path d="M1661 663 c-1 -17 16 -25 25 -12 4 7 3 9 -4 5 -5 -3 -13 0 -15 6 -4
9 -6 10 -6 1z"/>
<path d="M1000 624 c0 -8 5 -12 10 -9 6 4 8 11 5 16 -9 14 -15 11 -15 -7z"/>
<path d="M2664 622 c9 -9 156 -18 153 -9 -1 4 -37 9 -80 11 -43 2 -76 2 -73
-2z"/>
<path d="M130 605 c-8 -9 -8 -15 -2 -15 12 0 26 19 19 26 -2 2 -10 -2 -17 -11z"/>
<path d="M187 498 c-25 -184 -27 -212 -16 -201 6 6 12 39 14 74 2 35 7 78 10
94 9 44 18 155 13 155 -3 0 -12 -55 -21 -122z"/>
<path d="M263 502 c1 -74 -2 -123 -8 -126 -5 -2 -7 -7 -3 -11 4 -4 11 -4 17 0
13 7 13 184 0 230 -5 19 -7 -14 -6 -93z"/>
<path d="M162 593 c-12 -22 -13 -81 -1 -62 4 7 6 17 3 21 -3 4 0 17 6 29 7 11
9 23 7 26 -3 2 -10 -4 -15 -14z"/>
<path d="M308 589 c0 -13 -1 -31 0 -39 1 -8 3 -87 6 -175 3 -88 10 -176 15
-195 9 -28 10 -20 6 45 -4 66 -7 236 -4 295 1 23 -10 82 -16 88 -3 3 -6 -6 -7
-19z"/>
<path d="M541 594 c0 -11 3 -14 6 -6 3 7 2 16 -1 19 -3 4 -6 -2 -5 -13z"/>
<path d="M567 591 c-3 -13 -1 -18 9 -14 7 2 10 11 7 19 -7 19 -10 18 -16 -5z"/>
<path d="M356 539 c-7 -72 -8 -134 -1 -128 6 7 19 189 13 189 -3 0 -8 -28 -12
-61z"/>
<path d="M518 570 c-3 -16 -1 -30 4 -30 4 0 8 14 8 30 0 17 -2 30 -4 30 -2 0
-6 -13 -8 -30z"/>
<path d="M750 596 c0 -2 28 -14 63 -26 34 -12 65 -28 69 -34 5 -8 10 -8 18 0
8 8 -6 18 -50 37 -54 24 -100 34 -100 23z"/>
<path d="M1170 586 c0 -9 5 -16 10 -16 6 0 10 4 10 9 0 6 -4 13 -10 16 -5 3
-10 -1 -10 -9z"/>
<path d="M392 530 c-1 -36 -5 -76 -7 -90 l-6 -25 11 24 c6 14 9 54 7 90 l-3
66 -2 -65z"/>
<path d="M1640 568 c0 -15 5 -30 10 -33 13 -8 13 25 0 45 -8 12 -10 9 -10 -12z"/>
<path d="M242 560 c0 -14 2 -19 5 -12 2 6 2 18 0 25 -3 6 -5 1 -5 -13z"/>
<path d="M1444 547 c2 -18 8 -42 15 -53 12 -19 10 -8 -5 30 -6 15 -4 17 6 11
10 -6 12 -4 7 9 -4 10 -7 22 -7 27 0 5 -4 9 -9 9 -5 0 -8 -15 -7 -33z"/>
<path d="M2425 550 c-16 -16 -25 -33 -21 -37 4 -4 12 0 17 10 6 9 14 15 18 12
8 -4 24 35 17 42 -1 2 -15 -11 -31 -27z"/>
<path d="M2550 570 c0 -5 5 -10 11 -10 5 0 7 5 4 10 -3 6 -8 10 -11 10 -2 0
-4 -4 -4 -10z"/>
<path d="M1267 550 c-3 -11 -1 -20 4 -20 5 0 9 9 9 20 0 11 -2 20 -4 20 -2 0
-6 -9 -9 -20z"/>
<path d="M2845 556 c-2 -6 -9 -51 -15 -101 -6 -49 -13 -102 -15 -117 -3 -22 1
-28 16 -28 11 0 17 5 14 10 -3 6 -1 10 6 10 7 0 8 5 3 13 -14 18 -11 47 6 57
8 5 10 10 5 10 -6 0 -11 18 -12 40 l-2 41 49 -2 c28 -2 53 0 57 4 6 7 -10 9
-67 12 -18 0 -25 6 -25 20 0 11 5 20 12 20 24 0 23 13 -2 18 -15 2 -28 0 -30
-7z"/>
<path d="M542 539 c-19 -50 -24 -89 -11 -89 7 0 10 3 7 6 -4 3 1 26 9 50 16
46 11 76 -5 33z"/>
<path d="M790 550 c8 -5 24 -10 34 -10 26 0 18 6 -19 14 -22 5 -26 4 -15 -4z"/>
<path d="M1176 544 c-4 -9 -4 -19 -1 -22 2 -3 7 3 11 12 4 9 4 19 1 22 -2 3
-7 -3 -11 -12z"/>
<path d="M2170 556 c0 -2 8 -10 18 -17 15 -13 16 -12 3 4 -13 16 -21 21 -21
13z"/>
<path d="M2665 538 c-27 -11 -52 -22 -55 -25 -10 -10 56 10 90 28 45 24 28 22
-35 -3z"/>
<path d="M2730 539 c-14 -11 -36 -24 -49 -30 -13 -5 -21 -12 -18 -15 8 -8 59
20 81 45 24 26 18 27 -14 0z"/>
<path d="M2915 550 c3 -5 13 -10 21 -10 8 0 12 5 9 10 -3 6 -13 10 -21 10 -8
0 -12 -4 -9 -10z"/>
<path d="M572 463 c-1 -50 -5 -100 -8 -110 -5 -17 -5 -17 6 -1 6 11 9 54 7
110 l-3 93 -2 -92z"/>
<path d="M1403 515 c0 -22 2 -30 4 -17 2 12 2 30 0 40 -3 9 -5 -1 -4 -23z"/>
<path d="M2960 546 c0 -2 7 -6 15 -10 8 -3 15 -1 15 4 0 6 -7 10 -15 10 -8 0
-15 -2 -15 -4z"/>
<path d="M1300 530 c0 -10 19 -24 38 -26 6 -1 12 2 12 6 0 10 -19 24 -37 26
-7 1 -13 -2 -13 -6z"/>
<path d="M1366 525 c-8 -22 -8 -22 9 -22 17 0 18 6 6 25 -7 11 -10 10 -15 -3z"/>
<path d="M2720 493 c-25 -25 -36 -41 -25 -35 24 13 80 70 74 76 -2 3 -24 -16
-49 -41z"/>
<path d="M232 510 c0 -14 2 -19 5 -12 2 6 2 18 0 25 -3 6 -5 1 -5 -13z"/>
<path d="M735 520 c-4 -7 -1 -19 7 -27 14 -13 16 -13 21 0 7 20 -18 43 -28 27z"/>
<path d="M776 515 c5 -11 22 -15 68 -14 67 0 54 12 -26 22 -39 5 -46 4 -42 -8z"/>
<path d="M1211 523 c-1 -17 16 -25 25 -12 4 7 3 9 -4 5 -5 -3 -13 0 -15 6 -4
9 -6 10 -6 1z"/>
<path d="M1547 523 c-4 -3 -7 -13 -7 -22 1 -13 3 -13 11 2 11 19 8 33 -4 20z"/>
<path d="M2777 468 c-9 -35 -27 -107 -41 -161 -20 -80 -22 -97 -10 -97 11 0
13 7 8 27 -6 22 -4 25 10 20 9 -4 16 -2 16 2 0 5 -4 11 -8 13 -5 2 -1 30 9 63
9 33 21 83 27 110 5 28 12 58 17 68 4 9 3 17 -2 17 -6 0 -17 -28 -26 -62z"/>
<path d="M2170 516 c0 -2 8 -10 18 -17 15 -13 16 -12 3 4 -13 16 -21 21 -21
13z"/>
<path d="M2022 476 c-7 -15 -12 -36 -12 -47 0 -19 1 -19 30 3 17 12 30 26 30
32 0 5 -11 -1 -25 -14 -27 -25 -32 -21 -14 11 6 11 9 25 7 31 -2 6 -9 -2 -16
-16z"/>
<path d="M2975 490 c3 -5 10 -10 16 -10 5 0 9 5 9 10 0 6 -7 10 -16 10 -8 0
-12 -4 -9 -10z"/>
<path d="M140 480 c0 -5 5 -10 11 -10 5 0 7 5 4 10 -3 6 -8 10 -11 10 -2 0 -4
-4 -4 -10z"/>
<path d="M1222 470 c0 -14 2 -19 5 -12 2 6 2 18 0 25 -3 6 -5 1 -5 -13z"/>
<path d="M1341 464 c-20 -26 -27 -44 -16 -44 3 0 11 12 18 28 10 23 12 3 15
-132 1 -87 1 -160 -1 -162 -1 -2 -21 -5 -44 -6 -32 -2 -39 -6 -31 -16 14 -17
-3 -15 -26 3 -11 8 -28 15 -39 15 -16 0 -195 57 -205 66 -2 1 1 11 7 21 8 14
11 15 11 3 2 -29 19 24 19 60 0 35 0 35 -25 -19 -28 -62 -26 -78 11 -87 14 -3
26 -10 26 -15 7 -54 7 -54 -71 -62 -41 -4 -81 -5 -87 -2 -14 5 -16 -38 -4 -90
8 -30 8 -30 20 15 18 66 19 68 20 28 1 -45 10 -68 25 -68 16 0 17 32 2 42 -29
19 8 60 46 50 18 -4 19 -20 4 -72 0 -3 3 -7 8 -10 6 -3 16 20 24 50 16 65 31
88 43 68 5 -7 9 -8 9 -2 0 5 -5 15 -12 22 -9 9 -7 12 9 12 12 0 25 -5 29 -12
5 -7 3 -8 -6 -3 -8 5 -11 4 -6 -3 4 -6 13 -9 21 -5 9 3 21 0 29 -6 7 -6 15 -9
17 -6 9 9 1 -70 -10 -95 -9 -22 -10 -20 -6 15 l5 40 -18 -40 c-16 -33 -17 -41
-5 -43 26 -7 39 6 52 48 7 23 15 40 19 38 50 -27 91 -39 120 -36 32 4 34 3 28
-24 -3 -15 -1 -28 4 -28 10 0 16 17 26 72 5 32 10 37 28 34 11 -3 24 -5 28 -5
4 -1 1 -19 -8 -41 -9 -21 -14 -45 -11 -52 5 -15 46 68 47 95 0 16 8 19 67 20
12 1 20 5 17 9 -3 4 9 8 26 8 26 0 30 -3 25 -19 -3 -12 0 -21 10 -25 8 -3 15
-18 16 -33 0 -15 4 -37 9 -48 8 -18 9 -18 9 5 2 33 14 51 29 41 10 -6 10 -15
3 -34 -14 -37 4 -34 21 3 15 35 23 37 38 10 12 -23 32 -27 24 -5 -5 11 0 12
25 5 17 -5 45 -16 63 -24 39 -20 38 -20 38 4 0 11 -7 20 -15 20 -8 0 -23 4
-33 10 -9 5 -61 19 -114 30 -54 12 -100 25 -102 28 -2 4 0 16 5 27 8 20 8 20
9 0 1 -19 1 -19 14 -3 12 17 14 17 31 -2 10 -11 20 -18 23 -15 3 3 -3 14 -13
26 -17 17 -17 22 -5 30 12 8 11 9 -5 5 -25 -7 -70 -13 -158 -21 -44 -4 -65
-10 -61 -17 7 -11 -81 -6 -92 5 -3 2 -7 80 -9 172 -3 93 -7 170 -9 172 -2 2
-13 -8 -25 -23z m37 -366 c-1 -27 -18 -30 -18 -2 0 8 -9 14 -20 14 -11 0 -20
5 -20 10 0 6 13 9 29 8 25 -2 29 -6 29 -30z m-158 12 c0 -5 -4 -10 -10 -10 -5
0 -10 5 -10 10 0 6 5 10 10 10 6 0 10 -4 10 -10z m77 -26 c4 4 1 11 -7 16 -24
15 -2 11 30 -5 17 -9 30 -17 30 -18 0 -1 -15 -3 -34 -4 -24 -1 -39 5 -53 20
l-18 22 23 -19 c12 -11 25 -16 29 -12z"/>
<path d="M1440 481 c0 -10 19 -25 25 -20 1 2 -3 10 -11 17 -8 7 -14 8 -14 3z"/>
<path d="M680 465 c0 -9 -6 -12 -17 -8 -11 4 -14 3 -9 -5 11 -18 24 -15 36 8
7 14 7 20 0 20 -5 0 -10 -7 -10 -15z"/>
<path d="M770 472 c0 -14 62 -24 74 -12 7 7 4 10 -9 10 -11 0 -30 3 -42 6 -13
4 -23 2 -23 -4z"/>
<path d="M1146 464 c-3 -9 -6 -27 -6 -40 0 -13 -8 -32 -19 -43 -10 -10 -15
-24 -11 -31 15 -24 50 39 48 86 -1 48 -3 52 -12 28z"/>
<path d="M1976 446 c-9 -19 -16 -40 -16 -48 0 -7 9 7 20 31 11 24 19 46 16 48
-2 2 -11 -12 -20 -31z"/>
<path d="M2110 474 c-3 -6 -27 -28 -55 -49 -45 -33 -52 -44 -66 -101 -14 -55
-15 -64 -2 -68 20 -8 20 -8 27 10 5 14 4 15 -9 4 -11 -9 -15 -10 -15 0 0 6 20
32 45 57 50 50 88 115 83 141 -2 9 -6 12 -8 6z m-41 -82 c-18 -26 -42 -56 -53
-67 -18 -20 -19 -20 -12 10 6 26 84 115 95 108 2 -2 -11 -24 -30 -51z"/>
<path d="M730 461 c0 -9 71 -61 84 -61 4 0 4 5 1 10 -3 6 2 10 12 10 10 0 25
5 33 11 11 8 5 9 -27 6 -29 -3 -50 1 -72 14 -17 10 -31 15 -31 10z"/>
<path d="M1946 457 c3 -10 9 -15 12 -12 3 3 0 11 -7 18 -10 9 -11 8 -5 -6z"/>
<path d="M231 444 c0 -11 3 -14 6 -6 3 7 2 16 -1 19 -3 4 -6 -2 -5 -13z"/>
<path d="M888 453 c7 -3 16 -2 19 1 4 3 -2 6 -13 5 -11 0 -14 -3 -6 -6z"/>
<path d="M1720 449 c0 -5 5 -7 10 -4 6 3 10 8 10 11 0 2 -4 4 -10 4 -5 0 -10
-5 -10 -11z"/>
<path d="M2878 444 c8 -14 20 -18 51 -15 23 1 41 -2 41 -7 0 -5 8 -9 17 -9 25
0 -22 30 -53 33 -13 1 -33 6 -45 9 -18 6 -20 4 -11 -11z"/>
<path d="M1815 410 c-16 -20 -51 -54 -77 -75 -27 -21 -48 -45 -49 -54 0 -12
-3 -11 -9 4 -8 19 -9 19 -9 -2 -1 -13 3 -23 7 -23 5 0 7 -15 6 -32 l-3 -33 8
30 7 30 8 -33 c4 -17 12 -32 17 -32 12 0 12 17 -1 25 -17 10 -11 33 9 40 11 3
22 13 25 22 6 14 3 14 -19 -1 -27 -18 -50 -18 -37 -1 4 6 29 27 55 49 42 33
104 113 95 121 -2 1 -16 -14 -33 -35z"/>
<path d="M1865 405 c-22 -19 -37 -36 -34 -39 3 -3 17 6 31 19 14 13 28 21 32
18 3 -3 8 2 12 11 11 28 1 26 -41 -9z"/>
<path d="M2200 431 c0 -5 7 -15 17 -22 15 -13 15 -12 4 9 -12 23 -21 28 -21
13z"/>
<path d="M2385 420 c43 -203 79 -315 97 -304 6 4 6 9 2 13 -5 3 -11 15 -12 26
-2 11 -7 25 -12 30 -4 6 -17 53 -29 105 -12 52 -29 109 -37 125 -12 26 -14 27
-9 5z"/>
<path d="M1223 390 c0 -25 2 -35 4 -22 2 12 2 32 0 45 -2 12 -4 2 -4 -23z"/>
<path d="M241 404 c0 -11 3 -14 6 -6 3 7 2 16 -1 19 -3 4 -6 -2 -5 -13z"/>
<path d="M870 405 l-25 -14 28 -1 c17 0 27 5 27 15 0 18 1 18 -30 0z"/>
<path d="M2122 400 c0 -14 2 -19 5 -12 2 6 2 18 0 25 -3 6 -5 1 -5 -13z"/>
<path d="M1460 392 c6 -12 8 -28 4 -34 -4 -7 -3 -8 4 -4 16 10 15 18 -4 42
-14 18 -15 18 -4 -4z"/>
<path d="M2900 400 l-25 -8 28 -1 c15 -1 27 4 27 9 0 6 -1 10 -2 9 -2 -1 -14
-5 -28 -9z"/>
<path d="M521 384 c0 -11 3 -14 6 -6 3 7 2 16 -1 19 -3 4 -6 -2 -5 -13z"/>
<path d="M928 393 c7 -3 16 -2 19 1 4 3 -2 6 -13 5 -11 0 -14 -3 -6 -6z"/>
<path d="M2161 357 c1 -23 3 -34 6 -25 4 14 8 16 24 8 27 -15 24 4 -6 34 l-25
25 1 -42z"/>
<path d="M2193 383 c9 -9 19 -14 23 -11 10 10 -6 28 -24 28 -15 0 -15 -1 1
-17z"/>
<path d="M191 364 c0 -11 3 -14 6 -6 3 7 2 16 -1 19 -3 4 -6 -2 -5 -13z"/>
<path d="M351 364 c0 -11 3 -14 6 -6 3 7 2 16 -1 19 -3 4 -6 -2 -5 -13z"/>
<path d="M2267 368 c6 -7 11 -53 12 -103 1 -71 5 -93 18 -102 29 -22 48 -15
19 8 -14 11 -26 29 -26 40 0 18 3 17 26 -8 l26 -28 -27 38 c-19 27 -26 49 -25
75 3 65 0 80 -16 86 -13 5 -14 3 -7 -6z"/>
<path d="M2870 370 c0 -6 7 -10 15 -10 8 0 15 2 15 4 0 2 -7 6 -15 10 -8 3
-15 1 -15 -4z"/>
<path d="M2980 370 c-9 -6 -10 -10 -3 -10 6 0 15 5 18 10 8 12 4 12 -15 0z"/>
<path d="M2106 322 c-13 -90 -47 -175 -86 -214 -31 -31 -34 -38 -18 -38 31 0
66 44 84 106 24 84 42 184 34 189 -4 3 -11 -17 -14 -43z"/>
<path d="M267 297 c7 -68 0 -77 -60 -77 -27 0 -37 4 -34 13 4 13 21 14 50 2 9
-4 17 -3 17 2 0 18 -64 28 -151 25 l-86 -3 6 -30 c6 -31 22 -40 30 -18 2 7 -1
9 -8 5 -6 -4 -11 -3 -11 3 0 12 41 17 93 12 34 -3 38 -6 32 -25 -3 -11 -7 -31
-9 -44 -2 -12 -5 -25 -8 -27 -7 -7 -48 7 -48 16 0 5 -7 9 -15 9 -28 0 -14 -15
34 -37 46 -22 50 -22 99 -8 49 15 52 18 52 48 0 18 5 39 11 47 8 11 9 0 4 -40
-4 -32 -12 -58 -21 -63 -8 -4 -14 -15 -14 -23 0 -8 5 -12 10 -9 14 9 12 -9 -2
-24 -11 -10 -10 -11 5 -6 10 5 17 18 17 34 0 15 3 31 7 35 11 11 14 34 19 129
3 54 1 86 -5 83 -5 -4 -12 2 -14 11 -3 10 -3 -8 0 -40z m-49 -110 c6 -5 12
-17 12 -26 0 -14 -2 -14 -10 -1 -8 13 -10 13 -10 -2 0 -9 -13 -21 -32 -27 -38
-13 -43 -10 -28 19 6 12 9 28 6 35 -2 7 -2 15 0 18 7 6 46 -3 62 -16z"/>
<path d="M380 331 c0 -25 6 -27 13 -6 4 8 2 17 -3 20 -6 4 -10 -3 -10 -14z"/>
<path d="M2531 334 c0 -11 3 -14 6 -6 3 7 2 16 -1 19 -3 4 -6 -2 -5 -13z"/>
<path d="M72 321 c-24 -20 -29 -33 -9 -25 11 4 42 44 34 44 -2 0 -14 -8 -25
-19z"/>
<path d="M120 309 c-19 -16 -30 -29 -25 -29 14 0 71 47 65 53 -3 3 -21 -8 -40
-24z"/>
<path d="M520 307 c0 -19 -3 -37 -7 -41 -4 -3 -8 -14 -9 -24 -2 -15 -1 -14 12
2 13 18 20 96 9 96 -3 0 -5 -15 -5 -33z"/>
<path d="M711 324 c0 -11 3 -14 6 -6 3 7 2 16 -1 19 -3 4 -6 -2 -5 -13z"/>
<path d="M1090 329 c0 -8 7 -24 15 -35 19 -25 19 -14 0 22 -8 16 -15 22 -15
13z"/>
<path d="M2560 322 c0 -11 7 -25 15 -32 9 -7 13 -21 10 -31 -3 -9 -1 -20 4
-24 7 -4 9 1 5 12 -3 11 3 7 16 -9 12 -16 26 -28 32 -28 6 0 4 8 -4 18 -9 9
-25 36 -37 59 -24 48 -41 63 -41 35z"/>
<path d="M563 310 c3 -13 -1 -36 -9 -52 -8 -16 -10 -28 -4 -28 5 0 11 6 12 13
0 6 4 -8 8 -33 6 -40 7 -36 8 32 1 49 -2 79 -10 84 -8 5 -9 0 -5 -16z"/>
<path d="M2610 324 c0 -15 53 -96 74 -113 11 -9 5 6 -14 40 -34 58 -60 90 -60
73z"/>
<path d="M2173 313 c-22 -8 -14 -20 12 -20 15 0 25 5 25 13 0 14 -14 17 -37 7z"/>
<path d="M2880 311 c0 -10 60 -24 68 -16 3 3 -1 5 -9 6 -8 0 -6 4 6 9 15 7 10
9 -22 9 -24 1 -43 -3 -43 -8z"/>
<path d="M1231 278 c-1 -21 4 -38 9 -38 12 0 12 27 0 55 -7 16 -9 13 -9 -17z"/>
<path d="M1457 278 c-3 -18 -1 -37 4 -43 5 -5 9 8 9 33 0 50 -6 54 -13 10z"/>
<path d="M2970 295 c-10 -13 -9 -15 9 -15 11 0 21 4 21 9 0 18 -18 21 -30 6z"/>
<path d="M215 290 c3 -5 8 -10 11 -10 2 0 4 5 4 10 0 6 -5 10 -11 10 -5 0 -7
-4 -4 -10z"/>
<path d="M735 268 c-4 -18 -9 -42 -12 -53 -4 -15 -2 -17 6 -9 7 6 13 22 13 35
1 13 5 29 10 36 5 6 5 14 -1 17 -5 3 -12 -8 -16 -26z"/>
<path d="M1070 289 c0 -8 7 -24 15 -35 19 -25 19 -35 -2 -27 -11 4 -14 3 -9
-6 5 -7 14 -10 22 -7 8 3 14 0 14 -6 0 -6 3 -9 6 -6 3 3 -6 28 -20 55 -14 26
-25 41 -26 32z"/>
<path d="M2308 293 c7 -3 16 -2 19 1 4 3 -2 6 -13 5 -11 0 -14 -3 -6 -6z"/>
<path d="M2808 248 l-3 -53 -60 -7 c-37 -3 -91 -1 -140 8 -44 8 -81 14 -82 14
-2 0 -3 -8 -3 -17 0 -30 -24 -123 -32 -123 -4 0 -11 7 -16 17 -16 27 -242 57
-257 33 -3 -5 -2 -10 4 -10 6 0 8 -7 5 -15 -9 -22 9 -18 24 5 13 21 47 27 57
10 3 -5 -3 -10 -15 -10 -17 0 -19 -4 -13 -28 4 -15 7 -37 8 -49 0 -13 5 -23
12 -23 7 0 10 12 7 32 l-5 33 17 -33 c21 -40 28 -36 13 7 -17 49 -8 61 42 50
23 -6 49 -9 58 -8 36 3 41 -2 42 -43 l2 -43 7 35 c4 19 8 29 9 22 1 -9 5 -10
20 -1 11 7 16 19 13 31 -6 24 10 23 26 -2 7 -11 18 -17 27 -14 12 5 13 10 4
20 -6 7 -16 12 -22 11 -14 -3 -18 42 -5 66 7 15 16 17 41 11 18 -4 48 -8 67
-9 29 -2 35 -6 38 -26 6 -59 36 -139 51 -139 10 0 12 3 5 8 -6 4 -13 19 -16
35 -4 20 -1 27 11 27 14 1 14 2 -1 11 -23 13 -25 79 -3 79 9 0 12 -6 8 -16 -4
-12 0 -14 18 -9 20 5 26 1 36 -24 10 -28 9 -31 -16 -41 l-26 -10 26 5 c20 4
28 0 32 -14 2 -11 0 -24 -6 -30 -14 -14 -4 -23 17 -15 22 8 16 50 -14 109 -25
48 -26 80 -4 71 8 -3 12 -2 9 4 -3 6 -1 10 5 10 7 0 8 6 2 16 -10 18 6 64 23
64 14 0 -17 20 -32 20 -7 0 -13 -20 -15 -52z"/>
<path d="M1300 277 c0 -18 -28 -75 -41 -82 -5 -4 -7 -11 -3 -16 7 -13 63 21
76 46 8 14 1 11 -21 -9 -36 -34 -40 -26 -11 22 22 36 25 52 10 52 -5 0 -10 -6
-10 -13z"/>
<path d="M1931 274 c0 -11 3 -14 6 -6 3 7 2 16 -1 19 -3 4 -6 -2 -5 -13z"/>
<path d="M2676 277 c3 -10 9 -15 12 -12 3 3 0 11 -7 18 -10 9 -11 8 -5 -6z"/>
<path d="M1534 251 c3 -18 6 -37 6 -42 0 -5 4 -9 10 -9 12 0 2 61 -13 75 -6 7
-8 -1 -3 -24z"/>
<path d="M2537 273 c-4 -3 -7 -16 -6 -27 0 -12 3 -15 6 -8 4 10 8 10 21 0 14
-12 14 -10 2 12 -16 32 -16 31 -23 23z"/>
<path d="M2160 175 c0 -95 0 -96 -27 -107 -39 -16 -166 -22 -191 -9 -16 9 -21
7 -25 -8 -3 -14 -1 -18 9 -14 9 3 14 -2 14 -16 0 -15 6 -21 23 -20 12 0 16 3
10 6 -30 11 -9 23 42 23 42 0 55 -3 55 -15 0 -20 5 -19 37 11 l28 26 6 -24 7
-23 1 24 1 25 28 -27 c35 -34 68 -38 52 -6 -7 11 -14 18 -17 15 -8 -7 -33 13
-33 26 0 6 7 5 16 -3 13 -11 14 -9 8 17 -4 16 -12 32 -17 36 -10 6 -6 51 9
126 6 28 4 32 -15 32 -20 0 -21 -5 -21 -95z"/>
<path d="M2860 260 c0 -5 4 -10 9 -10 6 0 13 5 16 10 3 6 -1 10 -9 10 -9 0
-16 -4 -16 -10z"/>
<path d="M2900 255 c0 -11 12 -15 52 -15 28 0 48 3 44 7 -4 4 -25 6 -48 4 -27
-2 -38 1 -34 8 4 6 2 11 -3 11 -6 0 -11 -7 -11 -15z"/>
<path d="M934 238 c-10 -12 -14 -18 -7 -15 6 4 14 0 17 -10 4 -15 4 -14 3 2
-1 11 2 26 6 33 13 19 2 14 -19 -10z"/>
<path d="M880 240 c0 -5 5 -10 11 -10 5 0 7 5 4 10 -3 6 -8 10 -11 10 -2 0 -4
-4 -4 -10z"/>
<path d="M1201 234 c0 -11 3 -14 6 -6 3 7 2 16 -1 19 -3 4 -6 -2 -5 -13z"/>
<path d="M1960 208 c-6 -24 -13 -49 -16 -57 -2 -7 1 -20 7 -27 22 -27 45 -15
73 39 28 53 15 44 -16 -12 -9 -17 -25 -31 -35 -31 -17 1 -16 2 2 17 16 13 17
15 3 10 -10 -4 -18 -2 -18 3 0 6 4 10 8 10 5 0 17 7 28 16 18 15 18 15 -3 5
-29 -14 -38 -14 -26 2 15 18 25 67 14 67 -6 0 -15 -19 -21 -42z"/>
<path d="M2750 230 c0 -5 5 -10 10 -10 6 0 10 5 10 10 0 6 -4 10 -10 10 -5 0
-10 -4 -10 -10z"/>
<path d="M2875 230 c3 -5 11 -10 16 -10 6 0 7 5 4 10 -3 6 -11 10 -16 10 -6 0
-7 -4 -4 -10z"/>
<path d="M475 210 c3 -5 8 -10 11 -10 2 0 4 5 4 10 0 6 -5 10 -11 10 -5 0 -7
-4 -4 -10z"/>
<path d="M531 202 c-13 -25 -14 -32 -2 -32 9 0 23 41 16 48 -2 2 -8 -5 -14
-16z"/>
<path d="M1617 214 c-8 -9 1 -24 14 -24 6 0 8 4 5 9 -4 5 0 12 6 14 9 4 8 6
-3 6 -9 1 -19 -2 -22 -5z"/>
<path d="M374 191 c0 -11 4 -17 8 -15 4 3 8 12 8 20 0 8 -4 14 -8 14 -4 0 -8
-9 -8 -19z"/>
<path d="M1190 195 c0 -9 9 -15 21 -15 18 0 19 2 5 15 -8 8 -17 15 -20 15 -3
0 -6 -7 -6 -15z"/>
<path d="M1420 202 c0 -4 5 -14 10 -22 9 -13 11 -13 20 0 14 21 12 26 -10 27
-11 1 -20 -1 -20 -5z"/>
<path d="M1510 194 c0 -8 5 -12 10 -9 6 4 8 11 5 16 -9 14 -15 11 -15 -7z"/>
<path d="M2245 201 c3 -5 -1 -12 -7 -14 -7 -3 -3 -6 10 -6 25 -1 30 14 6 23
-8 3 -13 2 -9 -3z"/>
<path d="M2855 200 c3 -5 8 -10 11 -10 2 0 4 5 4 10 0 6 -5 10 -11 10 -5 0 -7
-4 -4 -10z"/>
<path d="M2945 200 c3 -5 8 -10 11 -10 2 0 4 5 4 10 0 6 -5 10 -11 10 -5 0 -7
-4 -4 -10z"/>
<path d="M915 189 c-4 -6 -5 -12 -2 -15 2 -3 7 2 10 11 7 17 1 20 -8 4z"/>
<path d="M1752 175 c-24 -16 -29 -24 -18 -28 13 -5 64 38 55 47 -2 2 -19 -6
-37 -19z"/>
<path d="M2890 190 c0 -13 18 -22 24 -11 3 5 -1 11 -9 15 -8 3 -15 1 -15 -4z"/>
<path d="M721 174 c0 -11 3 -14 6 -6 3 7 2 16 -1 19 -3 4 -6 -2 -5 -13z"/>
<path d="M936 175 c-3 -8 -1 -15 4 -15 6 0 10 7 10 15 0 8 -2 15 -4 15 -2 0
-6 -7 -10 -15z"/>
<path d="M998 167 c-4 -20 -1 -23 24 -19 l28 4 -21 19 c-27 23 -26 24 -31 -4z"/>
<path d="M385 159 c-4 -6 -5 -12 -2 -15 2 -3 7 2 10 11 7 17 1 20 -8 4z"/>
<path d="M460 161 c0 -5 7 -12 16 -15 14 -5 15 -4 4 9 -14 17 -20 19 -20 6z"/>
<path d="M866 154 c-5 -14 -4 -15 9 -4 17 14 19 20 6 20 -5 0 -12 -7 -15 -16z"/>
<path d="M2410 155 c-8 -9 -8 -15 -2 -15 12 0 26 19 19 26 -2 2 -10 -2 -17
-11z"/>
<path d="M2820 159 c0 -5 5 -7 10 -4 6 3 10 8 10 11 0 2 -4 4 -10 4 -5 0 -10
-5 -10 -11z"/>
<path d="M2856 159 c3 -6 12 -8 20 -5 8 3 14 1 14 -3 0 -5 15 -9 34 -8 53 1
32 22 -24 24 -33 1 -48 -1 -44 -8z"/>
<path d="M2970 160 c19 -13 30 -13 30 0 0 6 -10 10 -22 10 -19 0 -20 -2 -8
-10z"/>
<path d="M430 151 c0 -6 -6 -11 -14 -11 -8 0 -17 -4 -20 -8 -3 -5 8 -6 25 -4
29 4 37 16 19 27 -5 3 -10 1 -10 -4z"/>
<path d="M1820 140 c-6 -11 -8 -20 -6 -20 3 0 10 9 16 20 6 11 8 20 6 20 -3 0
-10 -9 -16 -20z"/>
<path d="M2591 148 c0 -7 4 -22 9 -33 7 -17 9 -15 9 13 1 17 -3 32 -9 32 -5 0
-10 -6 -9 -12z"/>
<path d="M10 140 c8 -5 20 -10 25 -10 6 0 3 5 -5 10 -8 5 -19 10 -25 10 -6 0
-3 -5 5 -10z"/>
<path d="M2091 115 c-11 -19 -16 -35 -11 -35 10 0 33 36 36 58 4 20 -3 14 -25
-23z"/>
<path d="M2840 120 c0 -5 18 -10 40 -10 22 0 40 -4 40 -10 0 -5 9 -10 20 -10
38 0 20 17 -31 28 -62 15 -69 15 -69 2z"/>
<path d="M1930 101 c0 -10 9 -21 20 -24 18 -5 18 -4 3 19 -19 29 -23 30 -23 5z"/>
<path d="M107 103 c-4 -3 -7 -15 -7 -26 0 -14 -5 -18 -17 -14 -10 3 -33 10
-50 15 -26 8 -33 8 -33 -3 0 -7 15 -17 33 -21 l32 -8 -35 -7 c-31 -7 -30 -7
14 -6 34 1 51 -2 54 -12 3 -10 -7 -12 -47 -10 -28 2 -51 1 -51 -3 0 -5 28 -8
63 -8 l62 0 -1 50 c-2 52 -6 65 -17 53z"/>
<path d="M1076 94 c-9 -25 -2 -26 17 -4 13 16 14 20 3 20 -8 0 -17 -7 -20 -16z"/>
<path d="M1738 103 c7 -3 16 -2 19 1 4 3 -2 6 -13 5 -11 0 -14 -3 -6 -6z"/>
<path d="M1790 99 c0 -5 5 -7 10 -4 6 3 10 8 10 11 0 2 -4 4 -10 4 -5 0 -10
-5 -10 -11z"/>
<path d="M196 81 c-4 -5 -2 -12 3 -15 5 -4 12 -2 15 3 4 5 2 12 -3 15 -5 4
-12 2 -15 -3z"/>
<path d="M1492 50 c3 -39 6 -45 27 -48 19 -3 22 0 17 13 -3 9 -6 22 -7 28 0 7
-4 3 -9 -8 -8 -18 -9 -18 -9 5 -1 14 -6 32 -11 40 -8 11 -10 3 -8 -30z"/>
<path d="M1576 78 c3 -5 8 -7 12 -4 3 3 11 -2 18 -12 8 -9 14 -12 14 -5 0 13
-17 26 -38 29 -6 1 -9 -2 -6 -8z"/>
<path d="M1825 80 c3 -5 14 -10 23 -10 15 0 15 2 2 10 -20 13 -33 13 -25 0z"/>
<path d="M2880 70 c0 -11 5 -20 10 -20 6 0 10 9 10 20 0 11 -4 20 -10 20 -5 0
-10 -9 -10 -20z"/>
<path d="M150 68 c0 -10 17 -10 24 0 3 5 -1 9 -9 9 -8 0 -15 -4 -15 -9z"/>
<path d="M580 72 c0 -5 7 -9 15 -9 8 0 12 4 9 9 -3 4 -9 8 -15 8 -5 0 -9 -4
-9 -8z"/>
<path d="M2357 59 c4 -13 8 -18 11 -10 2 7 -1 18 -6 23 -8 8 -9 4 -5 -13z"/>
<path d="M2626 65 c4 -8 10 -12 15 -9 11 6 2 24 -11 24 -5 0 -7 -7 -4 -15z"/>
<path d="M2970 65 c0 -18 -5 -18 -33 -4 -21 11 -21 10 -5 -6 11 -12 24 -16 42
-11 29 7 34 21 11 30 -9 3 -15 0 -15 -9z"/>
<path d="M530 60 c0 -5 5 -10 10 -10 6 0 10 5 10 10 0 6 -4 10 -10 10 -5 0
-10 -4 -10 -10z"/>
<path d="M860 60 c0 -5 5 -10 11 -10 5 0 7 5 4 10 -3 6 -8 10 -11 10 -2 0 -4
-4 -4 -10z"/>
<path d="M2230 55 c0 -8 9 -19 20 -25 14 -7 20 -7 20 0 0 5 -5 10 -11 10 -5 0
-8 4 -5 9 3 5 -1 11 -9 15 -9 3 -15 0 -15 -9z"/>
<path d="M2660 60 c0 -5 5 -10 11 -10 5 0 7 5 4 10 -3 6 -8 10 -11 10 -2 0 -4
-4 -4 -10z"/>
<path d="M157 34 c6 -15 23 -19 23 -5 0 5 -7 11 -14 14 -10 4 -13 1 -9 -9z"/>
<path d="M200 40 c-13 -8 -12 -10 3 -10 9 0 17 5 17 10 0 12 -1 12 -20 0z"/>
<path d="M445 30 c-3 -5 -1 -10 4 -10 6 0 11 5 11 10 0 6 -2 10 -4 10 -3 0 -8
-4 -11 -10z"/>
<path d="M560 36 c0 -2 7 -6 15 -10 8 -3 15 -1 15 4 0 6 -7 10 -15 10 -8 0
-15 -2 -15 -4z"/>
<path d="M717 19 c-3 -13 -1 -19 6 -16 15 5 22 37 9 37 -5 0 -12 -9 -15 -21z"/>
<path d="M1233 33 c9 -2 15 -8 12 -13 -3 -5 -1 -11 4 -14 5 -3 11 3 14 14 4
16 0 20 -21 19 -18 -1 -21 -3 -9 -6z"/>
<path d="M2569 29 c-10 -6 -7 -9 14 -9 29 0 35 5 14 13 -8 3 -20 1 -28 -4z"/>
<path d="M2865 30 c3 -5 8 -10 11 -10 2 0 4 5 4 10 0 6 -5 10 -11 10 -5 0 -7
-4 -4 -10z"/>
<path d="M2906 31 c-18 -7 -18 -8 4 -14 27 -7 39 -1 24 12 -5 5 -18 5 -28 2z"/>
<path d="M530 19 c0 -5 5 -7 10 -4 6 3 10 8 10 11 0 2 -4 4 -10 4 -5 0 -10 -5
-10 -11z"/>
<path d="M810 25 c0 -2 10 -10 23 -16 20 -11 21 -11 8 4 -13 16 -31 23 -31 12z"/>
<path d="M1304 19 c-9 -15 14 -18 32 -4 18 13 18 14 -4 12 -13 -1 -26 -5 -28
-8z"/>
<path d="M2350 26 c0 -2 8 -10 18 -17 15 -13 16 -12 3 4 -13 16 -21 21 -21 13z"/>
<path d="M275 10 c-3 -5 1 -10 10 -10 9 0 13 5 10 10 -3 6 -8 10 -10 10 -2 0
-7 -4 -10 -10z"/>
<path d="M1720 10 c0 -5 5 -10 11 -10 5 0 7 5 4 10 -3 6 -8 10 -11 10 -2 0 -4
-4 -4 -10z"/>
<path d="M2663 3 c9 -2 25 -2 35 0 9 3 1 5 -18 5 -19 0 -27 -2 -17 -5z"/>
</g>
</svg>
